{"glyphs":{"0":{"ha":651,"x_min":73,"x_max":654,"o":"m 73 286 q 135 568 73 422 q 300 812 210 745 q 476 880 389 880 q 597 823 553 880 q 654 589 654 747 q 560 226 654 408 q 408 39 501 113 q 267 -16 336 -16 q 142 47 190 -16 q 73 286 73 136 m 161 195 q 189 54 161 91 q 262 17 217 17 q 374 73 325 17 q 519 397 448 156 q 576 697 576 591 q 543 819 576 777 q 474 848 519 848 q 347 780 406 848 q 210 481 270 694 q 161 195 161 309 z "},"1":{"ha":651,"x_min":206,"x_max":566,"o":"m 224 0 l 434 743 q 209 616 326 665 l 206 654 q 522 878 416 752 l 566 878 l 317 0 l 224 0 z "},"2":{"ha":651,"x_min":23,"x_max":675,"o":"m 530 85 l 507 0 l 23 0 l 27 18 q 397 377 303 279 q 547 573 511 498 q 570 681 570 620 q 538 782 570 748 q 448 817 506 817 q 336 782 382 817 q 247 654 290 747 l 210 654 q 317 823 248 768 q 468 878 385 878 q 620 825 565 878 q 675 688 675 772 q 660 602 675 640 q 593 498 641 552 q 386 302 546 444 l 143 85 l 530 85 z "},"3":{"ha":651,"x_min":30,"x_max":629,"o":"m 319 718 l 291 730 q 366 838 311 797 q 485 878 421 878 q 593 844 556 878 q 629 759 629 810 q 613 695 629 725 q 565 641 597 666 q 439 553 551 630 q 541 499 509 537 q 572 406 572 462 q 507 213 572 317 q 319 46 441 109 q 71 -16 198 -16 q 30 -16 57 -16 l 36 13 q 199 42 119 13 q 340 127 279 72 q 438 253 401 183 q 475 382 475 322 q 449 461 475 432 q 380 490 422 490 q 315 470 353 490 q 238 419 262 443 q 219 444 222 433 q 322 517 260 479 q 445 599 413 572 q 509 673 488 635 q 530 752 530 711 q 509 803 530 783 q 454 823 488 823 q 380 798 417 823 q 319 718 342 773 z "},"4":{"ha":651,"x_min":22,"x_max":616,"o":"m 265 0 l 339 258 l 22 258 l 28 309 l 580 878 l 616 878 l 453 318 l 616 318 l 601 258 l 435 258 l 362 0 l 265 0 m 357 318 l 471 715 l 88 318 l 357 318 z "},"5":{"ha":651,"x_min":21,"x_max":693,"o":"m 223 450 l 363 865 l 426 866 q 511 863 455 866 q 553 861 544 861 q 643 865 625 861 q 660 879 652 868 q 680 889 667 889 l 693 889 l 667 803 q 655 776 661 783 q 586 770 621 770 q 455 774 549 770 q 372 776 406 776 l 300 566 q 366 578 339 578 q 496 526 444 578 q 549 393 549 474 q 480 193 549 293 q 271 31 411 92 q 22 -16 176 -12 q 21 0 21 -7 q 26 14 21 7 q 148 32 70 14 q 293 95 226 50 q 408 221 361 140 q 455 369 455 301 q 422 458 455 423 q 338 492 389 492 q 223 450 291 492 z "},"6":{"ha":651,"x_min":78,"x_max":703,"o":"m 703 871 q 697 847 702 853 q 671 836 692 842 q 487 734 585 814 q 326 563 389 654 q 206 337 262 473 q 150 130 150 201 q 175 48 150 77 q 233 19 199 19 q 344 64 283 19 q 449 203 405 110 q 492 366 492 296 q 472 424 492 401 q 427 447 452 447 q 388 441 410 447 q 347 422 366 435 q 341 425 343 422 q 336 443 336 431 q 355 469 336 457 q 451 493 393 493 q 515 476 484 493 q 563 421 546 458 q 581 340 581 383 q 459 83 581 199 q 250 -16 355 -16 q 125 35 172 -16 q 78 189 78 86 q 91 301 78 249 q 169 489 115 396 q 307 663 223 582 q 449 774 370 724 q 615 859 550 841 q 666 875 659 872 q 683 880 679 880 q 703 871 690 880 z "},"7":{"ha":651,"x_min":113,"x_max":720,"o":"m 610 762 l 522 764 l 389 764 q 312 760 332 764 q 250 751 274 751 q 213 760 227 751 q 206 770 206 764 l 210 782 l 234 850 q 601 847 410 847 q 646 848 632 847 q 690 852 673 852 q 715 846 706 852 q 720 838 720 843 q 630 699 720 830 l 168 5 q 136 -16 151 -16 q 116 -13 121 -16 q 113 -7 113 -11 q 134 27 113 3 q 220 161 163 61 l 224 170 q 258 223 227 176 l 464 536 q 610 762 498 588 z "},"8":{"ha":651,"x_min":64,"x_max":660,"o":"m 323 441 q 227 654 227 553 q 263 762 227 705 q 357 848 300 819 q 486 878 413 878 q 615 837 570 878 q 660 734 660 795 q 642 663 660 696 q 573 578 616 614 q 422 471 530 541 q 513 341 487 397 q 538 229 538 286 q 465 53 538 124 q 275 -19 391 -19 q 121 33 179 -19 q 64 149 64 84 q 89 237 64 193 q 184 348 122 294 q 323 441 227 383 m 401 495 q 542 629 505 573 q 578 746 578 686 q 550 823 578 794 q 472 851 521 851 q 395 829 432 851 q 338 763 359 806 q 317 676 317 720 q 334 597 317 637 q 401 495 352 556 m 345 418 q 244 336 273 369 q 178 234 201 290 q 155 125 155 178 q 190 43 155 75 q 281 10 224 10 q 402 62 352 10 q 453 193 453 115 q 430 293 453 241 q 345 418 406 344 z "},"9":{"ha":651,"x_min":39,"x_max":664,"o":"m 39 -8 q 45 16 40 10 q 71 27 50 22 q 255 129 157 49 q 417 300 353 210 q 536 526 480 391 q 592 733 592 662 q 568 815 592 787 q 510 844 543 844 q 398 799 458 844 q 293 660 337 753 q 250 497 250 567 q 270 439 250 462 q 315 416 290 416 q 354 422 332 416 q 395 441 376 429 q 401 438 399 441 q 406 420 406 432 q 387 394 406 406 q 291 370 349 370 q 228 388 258 370 q 179 442 197 405 q 161 523 161 479 q 283 781 161 664 q 492 880 387 880 q 617 828 570 880 q 664 674 664 777 q 651 562 664 614 q 573 374 627 467 q 435 201 519 281 q 294 88 372 140 q 127 3 193 22 q 77 -12 83 -9 q 59 -17 64 -17 q 39 -8 52 -17 z "}," ":{"ha":347,"x_min":0,"x_max":0,"o":""},"!":{"ha":304,"x_min":69,"x_max":416,"o":"m 168 215 q 196 348 183 306 q 264 626 231 463 q 321 833 298 789 q 342 859 330 852 q 370 866 353 866 q 404 855 391 866 q 416 831 416 844 q 376 701 416 788 q 334 585 370 686 q 298 491 324 557 l 250 378 l 184 214 q 168 215 174 214 m 69 60 q 92 109 69 87 q 142 130 115 130 q 184 110 164 130 q 203 60 203 89 q 182 7 203 30 q 132 -16 160 -16 q 90 2 107 -16 q 71 41 82 9 q 69 60 69 49 z "},"\"":{"ha":578,"x_min":172,"x_max":647,"o":"m 467 545 l 487 743 q 497 833 494 820 q 521 900 507 877 q 552 929 532 917 q 597 941 573 941 q 633 928 620 941 q 647 894 647 915 q 637 849 647 876 q 595 743 611 778 l 499 545 l 467 545 m 172 545 l 193 745 q 211 861 202 831 q 248 922 224 903 q 300 941 272 941 q 338 927 324 941 q 352 893 352 913 q 345 857 352 877 q 296 745 336 829 l 201 545 l 172 545 z "},"#":{"ha":926,"x_min":113,"x_max":911,"o":"m 113 644 l 340 644 l 400 926 l 459 926 l 399 644 l 708 644 l 767 926 l 827 926 l 767 644 l 911 644 l 911 584 l 755 584 l 698 309 l 911 309 l 911 249 l 686 249 l 628 -32 l 568 -32 l 627 249 l 316 249 l 259 -32 l 199 -32 l 257 249 l 113 249 l 113 309 l 270 309 l 328 584 l 113 584 l 113 644 m 387 584 l 329 310 l 639 310 l 696 584 l 387 584 z "},"$":{"ha":608,"x_min":16,"x_max":640,"o":"m 137 53 l 260 397 q 279 452 276 440 q 218 625 218 544 q 275 777 218 714 q 421 847 332 840 l 431 873 l 448 874 q 460 873 453 874 l 451 846 q 534 821 489 840 l 555 873 l 583 873 q 570 834 581 863 q 560 805 567 826 q 640 664 640 746 q 627 626 640 640 q 599 612 615 612 q 568 627 581 612 q 555 674 555 642 q 557 700 555 680 l 558 715 q 545 763 558 741 l 420 415 q 452 367 428 403 q 478 327 475 332 q 496 277 489 305 q 504 217 504 248 q 472 98 504 154 q 382 11 439 42 q 265 -19 342 -12 l 218 -147 l 189 -146 q 228 -38 204 -98 q 235 -17 232 -26 q 150 6 190 -10 l 94 -147 l 66 -146 q 85 -91 68 -139 l 124 20 q 44 98 71 54 q 16 182 16 143 q 28 214 16 201 q 56 227 39 227 q 87 211 74 227 q 103 156 100 195 q 113 95 105 117 q 137 53 121 73 m 398 438 l 523 788 q 441 819 489 819 l 336 525 q 398 438 343 506 m 319 560 l 410 814 q 402 815 406 815 q 362 800 387 815 q 310 742 328 779 q 292 656 292 705 q 319 560 292 600 m 245 9 l 363 341 q 342 369 357 352 q 300 423 328 386 l 158 35 q 245 9 205 9 m 385 313 l 275 9 q 382 61 336 11 q 428 182 428 111 q 385 313 428 250 z "},"%":{"ha":1042,"x_min":100,"x_max":1021,"o":"m 221 -44 l 278 50 q 332 132 304 92 q 528 437 379 199 l 806 878 l 813 880 q 846 878 843 878 l 560 414 q 516 341 521 350 q 498 319 510 329 l 487 302 q 434 216 454 252 q 419 191 427 202 l 262 -45 q 226 -44 254 -45 l 221 -44 m 100 572 q 141 725 100 642 q 237 844 182 809 q 346 880 292 880 q 428 843 397 880 q 459 727 459 807 q 439 612 459 667 q 404 541 424 574 q 358 482 384 507 q 287 428 320 444 q 222 413 254 413 q 135 454 171 413 q 100 572 100 496 m 168 525 q 182 457 168 475 q 220 439 196 439 q 283 469 254 439 q 366 637 325 513 q 397 782 397 730 q 380 840 397 819 q 345 854 368 854 q 266 812 305 854 q 194 661 227 769 q 168 525 168 580 m 661 151 q 702 304 661 220 q 798 423 743 387 q 907 458 852 458 q 989 422 958 458 q 1021 306 1021 386 q 1000 191 1021 246 q 965 120 985 153 q 919 61 945 86 q 848 7 881 22 q 783 -8 814 -8 q 696 33 732 -8 q 661 151 661 75 m 730 104 q 744 36 730 54 q 781 18 758 18 q 844 48 816 18 q 927 216 886 92 q 958 361 958 309 q 941 419 958 398 q 906 433 930 433 q 828 391 867 433 q 755 240 789 348 q 730 104 730 159 z "},"&":{"ha":1259,"x_min":127,"x_max":1358,"o":"m 558 566 l 565 551 q 608 592 578 559 l 703 696 q 750 766 740 743 q 753 788 753 772 q 715 802 724 792 q 702 838 702 818 q 723 888 702 867 q 772 910 743 910 q 811 893 795 910 q 828 855 828 877 q 802 774 828 819 q 700 648 776 728 q 677 623 682 629 l 488 415 q 452 372 477 403 q 264 165 364 269 q 317 126 292 141 q 398 88 356 104 q 465 73 408 84 q 536 68 490 68 q 673 89 591 68 q 813 146 755 110 q 939 254 892 197 q 977 298 967 288 q 1014 347 1000 329 q 1053 412 1036 385 q 1066 439 1057 421 q 1080 469 1075 456 l 989 534 q 907 584 941 571 q 871 591 890 591 q 809 569 832 591 q 786 508 786 547 q 798 462 786 479 q 814 452 804 452 q 827 453 820 452 q 842 498 833 488 q 867 509 851 509 q 891 498 882 509 q 902 466 902 486 q 885 429 902 444 q 842 414 869 414 q 783 441 808 414 q 758 511 758 468 q 802 603 758 562 q 905 645 845 645 q 986 630 948 645 q 1108 561 1038 611 q 1207 499 1179 511 q 1259 486 1235 486 q 1310 511 1286 486 q 1333 576 1333 536 q 1316 630 1333 610 q 1278 649 1299 649 q 1270 647 1272 649 q 1267 637 1267 644 q 1276 610 1276 621 q 1267 590 1276 598 q 1243 582 1259 582 q 1217 592 1227 582 q 1206 620 1206 603 q 1224 660 1206 643 q 1272 676 1242 676 q 1332 648 1305 676 q 1358 573 1358 619 q 1314 473 1358 517 q 1211 429 1270 429 q 1107 454 1162 429 q 1061 373 1078 405 q 954 219 1023 302 q 815 97 903 158 q 642 12 728 37 q 469 -14 556 -14 q 234 69 340 -14 q 127 284 127 151 q 145 385 127 326 q 199 498 163 444 q 262 564 213 520 q 348 616 300 596 q 431 632 384 632 q 517 613 477 632 q 558 566 538 602 m 247 191 q 275 220 256 200 q 334 286 326 278 l 448 412 q 518 492 507 477 q 477 504 489 493 q 466 538 466 514 q 469 557 466 548 q 476 578 476 575 q 466 595 476 587 q 425 602 456 602 q 374 591 399 602 q 309 544 338 574 q 243 463 268 503 q 214 375 233 445 q 210 308 210 358 q 220 248 210 296 q 247 191 235 210 z "},"'":{"ha":304,"x_min":182,"x_max":363,"o":"m 182 545 l 203 745 q 221 861 212 831 q 257 922 234 903 q 310 941 281 941 q 349 927 334 941 q 363 892 363 913 q 356 859 363 877 q 306 745 347 832 l 212 545 l 182 545 z "},"(":{"ha":376,"x_min":132,"x_max":595,"o":"m 581 905 l 595 888 q 406 680 478 785 q 250 362 308 541 q 193 -7 193 183 q 248 -342 193 -168 l 228 -355 q 132 71 132 -153 q 244 530 132 309 q 581 905 357 751 z "},")":{"ha":376,"x_min":-109,"x_max":357,"o":"m -90 -352 l -109 -337 q 16 -215 -34 -274 q 79 -134 66 -157 q 109 -91 83 -128 q 185 52 134 -54 q 263 270 236 158 q 297 566 297 410 q 287 708 297 642 q 244 896 276 775 l 263 907 q 357 484 357 698 q 311 181 357 328 q 147 -131 256 6 q -90 -352 39 -269 z "},"*":{"ha":593,"x_min":133,"x_max":682,"o":"m 133 569 q 357 616 169 583 q 367 620 361 617 q 335 654 356 633 q 286 705 330 659 q 202 788 281 711 q 239 827 220 810 q 394 648 357 684 q 409 700 401 672 q 430 771 420 740 q 457 877 448 832 q 507 863 479 871 q 484 789 501 839 l 445 676 q 435 635 437 655 q 462 643 450 639 l 492 654 q 557 674 527 667 q 669 699 587 682 q 682 648 676 675 q 531 617 668 644 q 446 600 452 602 q 463 581 456 588 q 498 549 470 574 l 577 472 q 618 429 597 454 q 580 395 602 414 q 535 444 574 400 q 484 501 496 487 q 417 573 445 551 l 387 465 q 368 386 372 412 q 358 341 363 360 q 309 359 330 347 q 319 395 314 381 q 376 580 332 434 q 281 553 347 574 q 144 520 216 532 l 133 569 z "},"+":{"ha":926,"x_min":147,"x_max":876,"o":"m 147 460 l 481 460 l 481 795 l 541 795 l 541 460 l 876 460 l 876 400 l 541 400 l 541 68 l 481 68 l 481 400 l 147 400 l 147 460 z "},",":{"ha":304,"x_min":-24,"x_max":215,"o":"m -24 -201 q 56 -145 43 -156 q 112 -82 92 -115 q 131 -24 131 -50 q 110 14 131 -9 q 79 77 79 50 q 104 145 79 113 q 143 165 121 165 q 188 140 168 165 q 215 58 215 106 q 155 -90 215 -6 q -16 -223 94 -174 l -24 -201 z "},"-":{"ha":361,"x_min":72,"x_max":374,"o":"m 72 241 q 83 266 75 251 q 95 290 91 281 q 100 302 97 294 l 115 302 l 136 302 q 173 304 142 302 l 194 304 l 227 305 l 286 304 q 308 303 293 304 q 336 304 332 304 q 358 303 341 304 q 374 302 363 302 q 347 238 360 260 q 319 235 333 236 l 307 238 q 269 236 275 237 q 237 239 250 239 q 131 236 168 239 q 72 241 111 241 z "},".":{"ha":304,"x_min":57,"x_max":198,"o":"m 57 55 q 79 107 57 85 q 130 130 101 130 q 178 109 159 130 q 198 56 198 87 q 177 2 198 24 q 127 -20 157 -20 q 78 2 99 -20 q 57 55 57 24 z "},"/":{"ha":694,"x_min":79,"x_max":616,"o":"m 556 967 l 616 967 l 138 -188 l 79 -188 l 556 967 z "},":":{"ha":304,"x_min":59,"x_max":331,"o":"m 189 472 q 210 529 189 508 q 260 551 231 551 q 309 528 288 551 q 331 477 331 505 q 309 425 331 448 q 256 403 288 403 q 208 423 228 403 q 189 472 189 443 m 59 57 q 80 109 59 88 q 131 130 101 130 q 182 110 161 130 q 204 64 204 90 q 183 8 204 30 q 132 -14 161 -14 q 81 7 103 -14 q 59 57 59 29 z "},";":{"ha":304,"x_min":0,"x_max":349,"o":"m 319 418 q 281 406 297 406 q 229 427 250 406 q 208 478 208 448 q 230 531 208 509 q 282 553 252 553 q 330 533 310 553 q 349 484 349 513 q 319 418 349 446 m 0 -191 q 24 -173 9 -183 q 131 -33 131 -95 q 107 4 131 -16 q 77 37 84 25 q 68 72 68 54 q 95 145 68 108 q 128 164 109 164 q 174 138 154 164 q 203 45 203 100 q 147 -104 203 -30 q 7 -218 91 -178 l 0 -191 z "},"<":{"ha":926,"x_min":149,"x_max":875,"o":"m 875 97 l 149 406 l 149 459 l 875 766 l 875 701 l 227 433 l 875 162 l 875 97 z "},"=":{"ha":926,"x_min":149,"x_max":876,"o":"m 149 618 l 876 618 l 876 559 l 149 559 l 149 618 m 149 304 l 876 304 l 876 244 l 149 244 l 149 304 z "},">":{"ha":926,"x_min":149,"x_max":875,"o":"m 149 766 l 875 458 l 875 404 l 149 97 l 149 162 l 796 431 l 149 701 l 149 766 z "},"?":{"ha":507,"x_min":153,"x_max":578,"o":"m 260 736 q 239 734 247 734 q 227 735 235 734 q 286 843 238 804 q 405 883 334 883 q 527 836 475 883 q 578 703 578 789 q 561 620 578 659 q 511 549 544 581 q 381 454 489 527 q 273 374 304 401 q 224 311 242 347 q 214 269 214 291 q 229 228 214 241 q 282 206 253 206 q 330 231 309 206 q 373 302 360 263 q 394 294 385 302 q 354 211 391 248 q 276 174 317 174 q 204 209 236 174 q 172 294 172 243 q 193 386 172 341 q 257 473 213 431 q 367 560 287 503 q 466 635 448 617 q 515 699 498 666 q 524 743 524 718 q 487 817 524 783 q 402 851 449 851 q 304 816 344 851 q 260 736 282 797 m 153 49 l 153 56 q 175 112 153 90 q 223 134 197 134 q 262 115 245 134 q 279 67 279 96 q 257 7 279 32 q 210 -17 236 -17 q 171 2 188 -17 q 153 49 153 20 z "},"@":{"ha":1273,"x_min":66,"x_max":1245,"o":"m 955 650 l 876 379 q 822 185 831 225 q 812 121 812 146 q 827 85 812 100 q 863 70 842 70 q 982 119 913 70 q 1101 280 1052 169 q 1151 512 1151 391 q 1095 726 1151 628 q 937 877 1039 825 q 711 930 835 930 q 420 847 555 930 q 208 608 286 764 q 130 283 130 452 q 198 0 130 127 q 392 -193 267 -127 q 661 -258 517 -258 q 983 -163 839 -258 q 1206 117 1127 -67 l 1245 117 q 1023 -184 1184 -69 q 657 -300 863 -300 q 357 -223 496 -300 q 142 -7 219 -147 q 66 301 66 133 q 150 635 66 480 q 386 877 234 790 q 707 964 537 964 q 961 906 848 964 q 1133 737 1074 848 q 1192 500 1192 625 q 1136 254 1192 376 q 996 77 1081 132 q 817 21 910 21 q 740 45 766 21 q 713 113 713 70 q 726 214 713 152 q 571 61 632 101 q 458 20 510 20 q 373 63 410 20 q 336 178 336 106 q 400 399 336 277 q 570 597 464 521 q 709 654 648 654 q 785 630 755 654 q 826 560 815 607 l 848 635 l 955 650 m 718 622 q 613 568 665 622 q 483 356 537 489 q 443 198 443 258 q 467 129 443 156 q 521 102 491 102 q 603 132 560 102 q 694 223 646 161 q 763 346 742 286 q 802 524 802 455 q 777 595 802 569 q 718 622 752 622 z "},"A":{"ha":1056,"x_min":-77,"x_max":1037,"o":"m 67 40 q 87 56 75 47 l 97 65 l 256 224 q 292 258 283 251 q 311 277 300 265 q 337 304 321 288 q 364 330 354 319 q 401 366 392 355 q 653 608 496 453 l 800 751 q 829 779 817 768 q 895 852 871 827 q 930 890 903 859 q 947 891 939 891 q 970 890 956 891 l 971 882 q 966 802 966 826 q 961 723 962 774 l 952 601 q 948 529 951 587 l 924 211 l 924 196 l 923 161 l 923 151 q 920 139 921 142 l 919 81 l 920 72 l 918 45 q 947 33 923 35 q 1036 16 1007 26 l 1037 7 q 1034 -9 1037 1 q 1004 -5 1009 -5 l 920 1 l 860 -1 q 764 -7 801 -7 l 747 -9 l 728 -9 q 692 -12 698 -12 q 668 -9 682 -12 l 669 10 q 714 18 689 16 q 789 30 755 20 q 802 32 798 32 l 805 32 q 814 45 812 39 q 828 153 819 58 q 839 296 838 247 q 840 332 840 321 q 801 333 832 333 q 560 328 762 333 l 423 323 q 409 321 418 322 q 386 302 399 316 q 351 272 372 288 q 262 188 321 241 q 221 148 238 166 l 170 93 q 153 77 161 85 q 142 68 148 73 q 133 54 138 61 q 134 37 134 47 q 184 24 153 27 q 214 21 198 23 q 248 16 237 17 q 262 12 256 15 q 256 -11 261 1 l 131 -2 l 37 -7 q 6 -9 16 -7 l -1 -9 q -24 -11 -6 -9 l -57 -12 q -75 -9 -65 -12 q -77 14 -77 1 l -68 17 l 6 24 l 52 32 q 67 40 57 34 m 580 356 q 602 355 595 356 l 618 355 l 703 359 l 814 367 q 842 370 829 369 q 846 407 844 382 q 850 439 850 433 l 863 636 l 873 763 q 834 732 865 759 q 796 701 820 723 l 640 551 l 612 526 q 582 496 597 509 q 553 469 566 483 q 535 452 546 461 q 514 433 524 443 q 494 414 505 425 q 471 390 484 402 q 444 361 463 381 q 495 354 455 354 l 530 355 q 580 356 554 356 z "},"B":{"ha":781,"x_min":17,"x_max":756,"o":"m 19 12 q 41 17 31 16 q 61 20 52 18 q 74 21 69 20 q 135 31 122 24 q 154 53 147 38 q 176 124 172 98 q 180 144 178 139 q 182 165 181 153 q 189 201 188 195 q 198 253 191 220 q 211 328 205 286 q 215 357 214 351 q 236 469 230 430 q 275 685 262 634 q 290 788 279 724 l 292 822 q 283 841 292 833 q 234 860 268 855 q 180 865 200 865 l 172 864 l 161 869 q 160 881 160 877 l 161 888 q 207 890 202 890 q 331 888 299 890 q 367 887 353 887 q 415 888 382 887 q 448 890 437 890 q 589 880 549 890 q 672 842 642 868 q 732 769 716 802 q 748 687 748 735 q 738 635 748 661 q 704 585 727 610 q 650 542 696 576 q 625 527 640 536 l 564 498 q 647 467 613 488 q 667 456 657 460 q 686 442 677 448 q 702 429 694 435 q 728 391 720 408 l 739 370 q 750 327 743 361 q 756 267 756 293 q 755 237 756 245 l 741 193 q 693 112 711 138 q 630 50 675 87 q 560 13 606 31 q 477 -5 541 5 l 467 -6 q 427 -9 463 -6 q 394 -11 407 -11 q 280 -5 367 -11 q 230 1 248 -4 l 172 3 l 164 2 l 136 -2 l 114 -1 l 74 -5 q 29 -11 47 -11 q 17 -10 24 -11 l 19 12 m 353 492 q 456 499 431 494 q 543 530 509 510 q 607 585 577 550 q 637 642 625 605 q 650 707 650 679 q 642 760 650 735 q 618 804 637 776 q 583 838 593 831 q 506 861 561 849 l 494 861 l 440 862 q 404 850 418 862 q 392 816 395 842 q 371 685 385 743 l 350 570 l 347 534 q 344 507 346 519 l 343 501 q 353 492 343 498 m 331 454 q 307 329 328 418 q 291 227 301 304 q 264 74 264 108 q 280 30 264 41 q 375 18 296 18 q 488 35 439 18 q 505 43 496 39 q 555 74 536 56 q 609 142 593 110 q 639 211 636 199 q 650 304 650 265 q 646 342 650 321 q 631 387 641 363 q 604 416 613 408 q 562 446 594 424 q 534 456 547 450 q 521 458 525 458 q 494 464 500 463 l 452 465 l 420 464 l 393 464 l 333 459 l 331 454 z "},"C":{"ha":868,"x_min":98,"x_max":975,"o":"m 975 884 q 961 809 972 861 q 941 732 949 758 l 921 733 l 921 751 q 905 843 921 825 q 838 862 889 862 q 805 861 817 861 l 780 861 q 756 862 762 862 q 648 843 708 862 q 505 773 589 825 q 390 677 467 749 q 288 545 360 648 l 264 504 l 235 431 q 220 361 224 395 q 216 294 216 328 q 226 207 216 248 q 253 144 236 166 q 329 70 289 100 q 422 24 370 41 q 544 8 475 8 q 661 28 615 8 q 742 86 707 49 q 807 182 753 98 l 829 175 l 793 60 q 778 16 783 30 q 687 -7 734 0 q 513 -22 597 -22 q 321 2 389 -22 q 191 85 254 26 q 121 192 145 127 q 98 312 98 256 q 123 455 98 396 q 248 653 178 580 q 414 784 318 727 q 575 861 483 825 q 764 897 667 897 l 884 898 q 975 884 927 898 z "},"D":{"ha":1013,"x_min":25,"x_max":1020,"o":"m 25 -7 l 26 16 q 140 34 128 28 q 149 42 146 37 q 168 105 157 52 l 216 371 l 287 717 q 303 802 299 789 q 309 829 309 820 q 297 847 309 840 q 218 858 285 854 q 172 863 190 859 l 170 872 q 175 888 170 878 q 220 886 186 888 q 276 885 266 885 q 304 886 290 885 q 344 888 339 888 q 475 886 404 888 l 578 887 l 610 885 l 683 886 q 795 867 742 886 q 891 817 849 848 q 969 731 932 785 q 1007 646 994 695 q 1020 557 1020 597 q 984 390 1020 479 q 882 223 949 300 q 722 88 815 146 q 552 21 655 47 q 363 -5 450 -5 l 238 -4 l 174 -8 q 81 -9 159 -9 q 25 -7 42 -9 m 410 851 q 399 796 409 839 q 385 721 389 753 q 360 589 382 699 l 298 271 q 279 191 292 243 q 259 79 259 117 q 280 36 259 50 q 393 22 300 22 q 455 31 400 22 q 594 73 531 44 q 712 148 657 101 q 809 260 766 195 q 870 380 851 325 q 905 545 905 479 q 866 695 905 626 q 777 799 827 764 q 635 845 726 833 q 477 857 545 857 q 410 851 433 857 z "},"E":{"ha":955,"x_min":-4,"x_max":936,"o":"m 151 29 q 157 58 154 41 q 206 315 194 239 l 248 545 q 258 612 250 553 l 281 726 q 290 799 287 755 q 291 817 291 808 q 279 840 291 832 q 201 852 268 848 l 158 854 q 163 880 159 867 l 245 880 l 347 880 l 403 879 l 880 884 q 911 883 897 884 q 936 882 920 882 q 922 798 935 865 q 904 732 914 758 q 887 741 894 733 q 879 793 880 781 q 876 830 877 826 q 869 851 876 835 q 831 856 848 855 q 810 858 823 857 q 785 858 795 857 l 767 857 l 745 857 l 699 854 l 646 854 l 608 853 l 594 854 l 568 853 l 557 853 l 532 852 l 515 852 l 448 850 q 416 846 430 849 q 393 836 410 844 q 387 798 392 821 l 371 711 l 357 631 l 355 612 q 334 496 338 530 q 332 476 334 487 q 524 490 367 481 q 727 504 715 500 q 768 525 753 511 q 820 621 783 539 l 846 624 q 817 482 840 585 q 810 446 814 469 q 798 391 808 429 q 793 368 795 376 q 786 332 790 343 q 762 333 774 333 l 762 336 q 764 349 762 340 q 767 397 767 363 q 753 456 767 441 q 690 470 739 470 q 577 460 643 470 q 435 453 527 460 l 387 450 l 374 448 q 345 446 355 448 q 328 444 340 445 q 312 366 317 389 q 292 276 298 309 l 252 73 q 250 52 250 61 q 254 35 250 45 q 281 19 269 23 q 332 15 294 16 q 366 14 340 15 q 377 14 373 14 l 485 18 l 511 20 l 529 19 q 619 27 569 19 q 652 31 632 29 q 806 92 739 42 q 887 208 857 130 l 897 208 q 908 206 902 208 q 849 -5 901 173 q 638 -7 777 -7 l 538 -9 l 509 -9 l 424 -12 l 362 -10 l 296 -11 l 147 -10 l 114 -12 l 56 -10 l -3 -11 l -4 10 l 59 13 l 101 18 q 151 29 119 22 z "},"F":{"ha":795,"x_min":10,"x_max":901,"o":"m 10 -6 q 20 19 14 9 q 85 24 45 23 l 124 24 l 151 28 q 161 33 155 30 q 170 62 167 46 q 224 393 180 109 q 248 571 243 511 q 277 783 267 674 q 280 822 280 808 q 257 854 280 847 q 138 865 243 859 l 139 888 l 189 888 q 213 888 203 888 q 366 883 263 884 l 397 882 l 637 888 l 692 889 l 747 888 l 793 888 l 823 888 l 834 888 l 846 888 l 901 886 q 899 873 900 877 q 897 851 897 862 l 873 758 q 867 741 872 755 l 845 743 q 838 801 844 774 q 821 845 832 838 q 741 860 798 860 l 492 856 q 382 848 416 855 l 380 836 l 364 701 l 339 512 q 399 509 355 510 q 420 507 414 508 l 427 507 l 532 513 l 568 513 l 600 511 l 626 511 l 660 511 q 698 517 673 511 q 731 590 727 577 q 748 626 735 602 q 763 627 758 627 l 770 627 l 768 589 l 735 352 l 711 347 l 709 359 l 709 374 l 703 450 q 688 475 696 471 q 627 481 677 481 l 556 479 l 532 480 l 474 479 l 392 479 l 349 477 q 332 475 338 477 q 300 257 322 420 q 290 190 294 212 q 282 149 285 169 q 271 71 279 117 q 268 33 268 50 q 280 27 276 28 q 387 15 351 16 q 410 14 395 15 q 411 3 411 7 q 409 -10 411 -1 q 388 -9 395 -9 q 364 -11 382 -9 q 342 -12 351 -12 q 283 -5 328 -12 q 245 -4 264 -5 q 218 -3 226 -3 q 86 -7 131 -3 q 43 -9 56 -9 q 10 -6 27 -9 z "},"G":{"ha":984,"x_min":98,"x_max":985,"o":"m 102 385 q 124 471 111 428 q 150 534 127 480 l 162 553 l 170 569 q 268 693 222 643 q 351 770 313 744 q 486 838 413 813 q 650 880 585 873 l 724 889 q 760 890 735 890 q 913 882 821 890 q 980 871 960 878 q 981 847 981 855 q 979 821 981 833 l 969 753 q 959 718 966 737 q 934 723 947 719 l 924 797 q 913 839 918 830 q 903 850 908 848 q 868 861 890 858 q 812 865 820 865 q 682 851 738 865 q 548 806 601 830 q 440 736 495 783 q 357 652 386 690 l 345 640 q 307 589 326 612 q 241 444 279 547 q 218 317 218 382 l 220 275 q 221 262 221 271 q 249 177 230 216 q 296 108 269 138 q 370 52 324 78 q 441 24 405 31 q 526 13 493 13 q 672 28 611 13 q 728 60 707 37 q 747 97 740 73 q 775 252 775 202 q 759 279 775 273 q 689 294 718 294 l 646 294 q 625 300 637 294 q 637 320 635 319 l 662 321 l 715 319 l 771 321 q 816 320 787 321 q 856 319 844 319 q 905 320 888 319 q 930 321 922 321 l 985 319 l 985 298 q 948 290 970 294 q 899 275 909 285 q 877 224 884 259 q 855 121 866 165 l 837 31 l 691 -3 q 619 -16 639 -14 l 555 -23 q 422 -16 490 -23 q 384 -7 407 -15 l 300 24 q 222 72 271 39 q 162 128 174 114 q 121 198 138 159 q 106 252 111 220 q 98 322 98 299 l 102 385 z "},"H":{"ha":1071,"x_min":22,"x_max":1157,"o":"m 22 -9 l 22 4 q 25 16 22 11 q 70 21 43 19 q 108 25 96 23 q 127 28 117 27 q 154 34 142 30 q 172 127 159 50 l 199 281 q 253 591 205 332 q 273 705 264 652 q 288 789 281 758 q 290 805 289 800 q 293 830 293 827 q 290 844 293 834 q 255 850 275 850 l 224 852 l 210 852 q 166 857 199 852 q 170 888 166 872 q 182 887 176 887 q 229 884 208 886 q 288 882 266 884 l 342 884 l 378 882 q 508 886 456 882 q 522 887 515 887 q 532 886 526 887 q 534 874 534 878 q 529 857 534 868 l 458 852 l 402 845 q 393 840 397 844 q 385 811 388 825 l 357 648 q 336 538 350 606 q 328 470 331 507 q 477 465 413 465 q 618 471 517 465 l 702 471 l 721 471 q 782 469 741 471 q 843 467 822 467 q 870 469 853 467 l 892 583 l 922 738 q 933 805 932 791 q 935 834 935 819 l 935 847 q 893 857 926 856 q 880 857 888 857 q 809 862 846 861 q 814 887 810 877 l 962 884 l 1157 887 q 1152 863 1157 876 q 1122 859 1141 860 l 1069 853 q 1036 847 1048 852 l 1031 838 q 1025 817 1028 826 q 1017 779 1020 800 l 1009 719 l 958 442 q 913 200 943 363 l 886 54 q 884 39 884 46 q 900 30 892 31 q 912 27 905 29 q 934 24 920 25 q 1020 13 948 23 l 1019 7 q 1013 -7 1017 -2 l 998 -5 l 830 -2 q 703 -5 732 -2 q 640 -10 689 -7 q 643 14 640 4 l 650 16 l 735 25 q 782 32 762 27 l 785 39 q 800 108 791 61 q 842 309 801 113 q 862 429 857 380 q 779 434 831 434 l 715 433 l 707 434 l 695 435 l 676 434 l 639 434 l 553 431 l 510 431 l 455 429 l 428 429 l 395 427 l 351 429 l 320 427 q 315 386 316 406 l 298 288 q 282 210 292 255 q 267 135 278 176 q 262 104 262 119 q 256 67 260 85 q 253 49 253 56 q 256 37 253 43 q 268 31 263 33 q 304 27 272 30 l 387 14 q 382 -9 387 3 l 325 -10 l 174 -1 q 66 -8 135 -1 q 22 -9 54 -9 z "},"I":{"ha":448,"x_min":11,"x_max":546,"o":"m 11 11 q 57 20 34 16 q 134 42 114 29 q 148 60 140 46 q 186 201 155 73 q 258 559 227 372 l 296 753 l 300 793 q 302 819 302 808 q 292 844 302 838 q 218 857 273 857 l 213 856 l 195 856 q 167 860 184 856 q 173 889 169 873 l 254 885 l 381 881 l 495 886 l 546 889 l 546 865 q 497 858 534 862 q 429 843 441 851 q 413 820 420 836 q 358 578 406 803 l 281 208 q 250 46 250 65 q 253 37 250 42 q 322 22 269 26 q 377 14 355 18 l 379 -7 q 369 -9 376 -9 l 353 -9 q 247 -12 321 -12 l 127 -9 l 95 -9 q 64 -11 91 -9 q 11 -12 38 -12 l 11 11 z "},"J":{"ha":448,"x_min":-163,"x_max":542,"o":"m -1 -308 q 62 -266 36 -298 q 119 -127 97 -221 q 159 58 154 20 q 199 237 163 83 q 215 304 212 287 q 217 315 216 309 l 250 495 l 289 694 l 307 784 q 315 830 313 815 q 182 863 267 850 l 182 870 q 183 884 182 875 q 203 887 198 887 q 231 885 211 887 q 264 883 244 884 l 340 880 q 517 887 465 880 q 533 888 528 888 l 541 888 l 542 866 q 532 860 535 861 l 483 854 q 418 838 428 847 q 406 795 410 821 q 396 753 401 776 l 391 731 l 388 715 q 332 434 358 543 l 272 136 q 216 -75 246 20 q 131 -243 186 -170 q 36 -323 92 -295 q -56 -345 -7 -345 q -113 -335 -86 -345 q -152 -310 -128 -330 q -163 -275 -163 -297 q -150 -244 -163 -257 q -118 -232 -136 -232 q -78 -245 -96 -232 q -48 -281 -66 -253 q -14 -310 -31 -310 q -1 -308 -9 -310 z "},"K":{"ha":825,"x_min":20,"x_max":941,"o":"m 220 406 q 248 538 228 439 l 251 550 l 302 791 l 307 821 q 301 839 307 827 q 251 853 281 851 q 227 856 237 854 q 195 860 200 859 q 170 867 178 860 q 173 884 173 878 l 225 886 l 351 878 l 429 881 l 452 880 q 477 883 460 880 q 498 885 494 885 q 527 880 508 885 q 514 852 525 864 l 492 850 q 458 848 478 848 q 428 841 438 847 q 421 834 425 839 q 395 756 412 819 l 369 648 q 324 459 337 531 q 317 422 320 435 l 429 515 q 454 540 441 527 q 511 588 484 562 q 604 675 576 652 l 710 774 q 754 823 741 803 q 741 830 745 828 q 724 839 730 836 q 670 853 703 850 q 645 857 658 854 l 645 863 q 646 880 645 869 q 669 885 662 885 q 726 879 692 885 q 816 872 760 872 q 905 876 870 872 q 924 877 919 877 q 940 876 929 877 l 941 854 q 856 826 878 836 q 783 783 850 823 q 550 582 671 688 l 444 488 l 436 480 q 446 463 441 469 l 524 361 l 604 252 q 635 205 609 243 q 668 158 648 180 q 688 130 675 150 q 739 64 709 99 q 768 43 749 52 q 852 20 793 31 q 848 -9 851 3 l 812 -9 q 661 1 743 1 q 569 138 600 89 l 558 151 l 528 196 l 452 306 q 378 405 419 358 q 363 424 370 414 q 337 406 350 414 q 308 387 325 399 l 252 130 q 243 60 243 87 q 245 47 243 57 q 286 25 264 32 q 328 18 307 20 q 365 13 349 16 q 372 2 372 8 q 372 -5 372 -1 q 336 -11 357 -11 q 255 -7 287 -11 l 216 -8 l 189 -7 l 116 -8 q 96 -12 109 -9 l 20 -12 l 20 12 q 48 19 26 15 q 127 47 106 28 q 156 111 148 66 q 168 149 158 121 l 200 299 l 217 386 q 220 406 218 393 z "},"L":{"ha":882,"x_min":3,"x_max":937,"o":"m 5 20 l 98 27 q 130 35 109 29 q 156 56 148 45 q 172 94 168 72 q 229 452 188 172 l 276 773 l 277 780 q 275 811 277 804 q 265 827 273 817 q 216 844 248 838 q 149 852 184 851 q 153 878 149 864 q 228 876 208 878 q 368 873 280 873 q 396 874 382 873 q 435 876 415 876 l 520 877 l 520 864 q 519 850 520 858 q 494 848 509 848 q 422 834 450 846 q 396 809 407 828 q 374 732 386 791 q 368 680 370 696 l 347 549 l 302 285 q 279 140 287 208 q 271 67 271 73 q 280 37 271 45 q 326 24 294 24 l 405 25 l 546 24 q 680 36 620 24 q 793 76 741 47 q 857 127 827 95 q 906 201 869 140 q 915 215 909 206 q 937 213 928 215 q 930 176 935 189 l 884 28 q 871 -5 879 10 q 808 -7 827 -7 l 768 -5 l 599 -7 l 497 -5 l 368 -7 l 227 -3 l 170 -2 l 72 -5 q 3 -6 63 -6 l 3 -1 q 5 20 3 8 z "},"M":{"ha":1143,"x_min":-35,"x_max":1227,"o":"m -35 -1 l -35 4 q -28 26 -35 18 q 41 41 18 31 q 68 56 56 45 q 102 109 80 67 q 158 256 123 151 l 219 431 q 237 488 232 474 l 320 715 q 351 801 337 767 q 358 829 358 820 q 342 857 358 849 q 273 870 326 865 q 208 868 212 868 l 200 868 l 193 895 q 222 897 218 897 q 249 896 242 896 l 307 898 q 401 895 363 898 q 443 892 416 893 q 448 885 446 889 q 461 827 454 868 l 481 716 q 500 624 488 692 q 530 429 522 496 q 557 284 551 332 q 573 194 558 278 q 583 146 579 157 q 638 233 614 193 q 718 380 661 273 l 863 631 l 892 683 q 1016 896 947 787 q 1103 893 1061 893 q 1117 893 1109 893 q 1136 894 1125 894 l 1215 896 q 1227 895 1219 895 l 1225 873 q 1175 861 1208 867 q 1113 842 1128 851 q 1093 817 1098 832 q 1038 485 1072 680 l 976 132 l 975 127 q 972 87 974 117 q 970 68 971 75 l 968 62 q 970 53 968 58 q 994 39 984 43 q 1065 26 1010 33 q 1103 20 1090 22 l 1103 14 q 1099 0 1103 8 q 1057 -1 1070 -1 q 981 3 1025 -1 q 898 6 947 6 q 794 3 854 6 q 767 3 773 3 q 743 4 758 3 q 741 15 741 12 q 745 31 741 20 q 771 32 763 32 q 856 47 833 35 q 871 64 865 52 q 892 154 880 81 l 920 314 l 951 498 q 966 600 960 550 q 981 693 975 650 q 991 759 987 737 q 997 806 996 789 q 853 561 882 605 q 764 405 846 550 l 734 347 q 711 312 721 329 q 546 10 595 106 q 526 -26 534 -12 l 500 -26 q 497 37 500 7 q 484 156 491 110 q 466 253 483 164 l 426 472 q 418 523 420 505 q 411 567 417 541 q 388 686 402 605 l 371 774 q 362 749 366 762 l 290 544 l 246 412 q 198 264 227 363 q 146 102 170 166 q 140 73 140 85 q 149 53 140 61 q 196 31 158 44 q 222 26 212 28 q 275 20 261 24 q 283 14 279 19 q 279 -9 283 1 l 232 -7 l 201 -5 q 190 -6 197 -5 q 66 1 130 1 q -35 -1 62 1 z "},"N":{"ha":1085,"x_min":-14,"x_max":1202,"o":"m -14 23 q 29 28 0 26 q 75 33 58 30 q 138 54 117 36 q 155 87 151 65 l 195 274 q 211 345 205 324 l 213 362 l 245 537 q 256 586 246 553 q 270 686 265 618 l 280 736 l 289 823 q 280 840 289 835 q 144 867 260 850 l 150 888 l 400 889 q 412 871 408 880 q 449 816 420 857 l 488 761 q 535 686 511 723 q 581 612 559 650 q 790 278 595 587 q 841 195 827 220 q 897 99 867 146 q 911 187 905 141 q 944 363 939 318 q 951 411 947 389 q 960 466 954 426 l 970 542 q 987 660 971 555 q 1002 802 1002 764 q 996 833 1002 813 q 899 858 977 846 q 857 866 872 863 q 854 882 854 876 l 854 888 l 863 888 q 1029 880 876 888 q 1065 879 1056 879 q 1154 883 1110 879 q 1202 886 1185 886 q 1194 856 1200 870 q 1072 839 1098 847 q 1053 827 1058 834 q 1037 766 1048 821 q 1017 650 1022 687 q 1007 589 1013 614 q 998 543 1000 554 l 972 357 l 924 81 q 909 -26 910 -10 l 893 -26 q 872 -25 886 -26 q 840 28 859 1 l 646 332 q 624 369 633 352 l 575 442 l 420 686 q 366 762 389 734 q 354 782 361 772 q 338 806 347 791 q 328 821 334 811 q 314 747 323 801 l 298 661 q 256 432 286 585 l 241 351 l 224 230 q 209 136 218 179 q 199 66 199 94 q 208 49 199 58 q 252 35 224 42 q 292 26 265 31 q 364 9 296 26 l 358 -14 q 301 -7 342 -11 q 168 3 206 3 q 123 1 151 3 q 24 -2 45 -2 q -14 -1 12 -2 l -14 23 z "},"O":{"ha":941,"x_min":113,"x_max":937,"o":"m 113 393 q 141 536 113 463 q 214 688 169 610 q 316 802 229 715 q 437 873 345 830 q 534 895 475 891 q 573 899 549 896 q 613 901 596 901 q 859 768 753 901 q 937 498 937 670 q 912 360 937 439 q 839 212 887 281 q 727 88 791 144 q 593 6 664 32 q 453 -19 523 -19 q 293 26 365 -19 q 176 146 220 72 q 113 393 113 250 m 313 68 q 353 38 336 47 q 425 12 370 30 q 465 9 439 8 l 493 11 q 593 44 568 28 q 673 117 635 69 q 758 260 724 182 q 807 395 791 339 q 829 539 829 473 q 814 657 829 600 q 790 732 800 714 q 737 808 766 779 q 670 854 708 837 q 589 871 632 871 q 453 836 518 871 q 343 740 389 800 q 256 562 297 680 q 214 346 214 444 q 246 162 214 242 q 313 68 262 121 z "},"P":{"ha":738,"x_min":18,"x_max":798,"o":"m 18 19 q 31 22 24 22 q 125 37 96 27 q 153 57 144 44 q 170 117 157 63 q 208 297 174 147 q 221 378 212 329 q 235 463 224 391 q 250 547 236 475 l 266 635 l 269 661 q 298 838 298 801 q 294 850 298 842 q 260 859 284 857 q 242 861 254 859 l 208 861 l 193 860 l 182 859 q 161 863 175 859 q 169 892 161 871 q 249 889 180 892 q 366 885 318 885 q 479 890 415 885 q 514 893 503 893 q 635 870 581 893 q 646 865 639 869 l 694 838 q 745 792 732 808 q 782 726 767 765 q 798 650 798 688 q 793 606 798 624 l 777 547 q 747 494 766 522 q 716 462 739 481 q 700 447 707 454 q 610 394 662 417 q 549 378 583 382 q 474 370 483 370 q 438 374 465 370 q 374 386 391 380 l 374 390 q 378 407 374 394 q 444 403 397 405 q 476 406 454 404 q 547 428 524 414 q 629 489 596 455 q 680 572 661 523 q 694 663 694 609 q 673 745 694 704 q 626 810 652 786 q 561 849 600 835 q 452 863 522 863 q 403 857 428 863 q 389 795 394 832 q 382 760 386 777 l 321 417 l 284 244 q 274 182 278 200 q 267 141 271 164 q 260 104 264 118 q 252 64 252 79 q 263 44 252 53 q 313 33 275 36 q 366 22 351 29 q 365 5 365 11 q 363 -9 365 -4 q 282 -3 345 -9 l 149 -1 q 18 -8 87 -1 l 18 19 z "},"Q":{"ha":955,"x_min":-136,"x_max":959,"o":"m 307 -18 q 279 -8 296 -14 q 142 100 193 22 q 92 286 92 177 q 111 418 92 361 q 207 606 140 510 q 342 758 273 703 q 540 869 435 829 q 688 894 610 894 q 807 872 762 894 q 886 803 851 850 q 946 682 922 756 q 959 573 959 643 q 928 392 959 473 q 795 168 890 288 q 615 26 721 75 q 385 -24 509 -24 l 356 -24 q 339 -25 353 -24 q 322 -45 330 -36 q 248 -127 288 -87 l 309 -147 q 403 -183 368 -168 q 490 -217 458 -207 q 611 -245 554 -235 q 714 -256 668 -256 q 930 -174 846 -256 l 944 -189 q 877 -253 912 -228 q 765 -309 823 -291 q 669 -327 707 -327 l 648 -326 l 571 -324 q 473 -307 497 -314 q 340 -256 407 -287 q 191 -182 273 -225 q 86 -260 154 -219 q -18 -290 39 -288 l -58 -292 q -113 -267 -90 -290 q -136 -220 -136 -245 q -87 -143 -136 -178 q 94 -96 -23 -96 q 218 -119 142 -96 q 236 -100 221 -113 q 274 -61 252 -87 q 307 -18 297 -35 m 621 848 q 551 812 592 838 q 467 747 528 798 q 416 698 430 715 q 323 583 382 661 l 246 452 q 199 353 218 404 q 172 263 180 301 q 167 202 167 235 q 180 119 167 148 q 249 40 203 69 q 354 12 294 12 q 477 39 412 12 q 627 146 543 66 q 770 323 711 226 q 869 518 850 456 q 895 654 895 604 q 868 764 895 713 q 801 841 842 815 q 709 867 760 867 q 665 861 701 867 q 621 848 640 856 m 24 -145 q -45 -157 -9 -145 q -94 -187 -80 -170 q -107 -221 -107 -205 q -89 -254 -107 -239 q -30 -269 -71 -269 q 52 -248 11 -269 q 138 -193 113 -218 q 149 -184 146 -186 l 158 -174 q 146 -170 155 -172 q 111 -159 126 -165 q 24 -145 67 -145 z "},"R":{"ha":868,"x_min":42,"x_max":936,"o":"m 45 17 q 77 22 62 18 q 119 31 87 23 q 178 50 157 35 q 187 58 185 54 q 205 222 189 62 l 229 482 q 252 708 250 656 q 258 751 252 725 l 262 811 q 254 829 262 821 q 227 845 242 840 q 136 853 151 850 q 132 866 132 862 q 136 878 132 870 q 151 880 144 880 q 244 879 196 880 q 302 878 292 878 l 507 884 l 534 884 q 634 874 593 886 q 707 831 675 861 q 751 765 739 802 q 764 704 764 728 q 714 577 764 637 q 551 458 665 517 q 720 195 569 428 q 764 123 734 172 q 821 54 794 73 q 888 30 847 35 q 936 21 907 27 l 933 -7 q 865 -5 907 -7 q 750 1 789 1 l 652 -1 l 609 -3 l 602 -3 q 590 -5 595 -3 q 581 16 581 1 q 597 24 587 22 q 669 29 616 29 q 709 42 692 29 q 656 127 701 68 q 585 235 649 138 l 456 429 q 355 419 408 419 q 319 420 345 419 l 302 239 l 290 115 l 288 87 q 286 67 286 71 q 288 52 286 62 q 351 33 316 39 q 417 19 386 27 q 418 9 418 13 q 418 -1 418 5 q 389 -2 397 -2 q 354 -1 379 -2 q 283 2 319 2 q 159 -1 207 2 q 75 -4 111 -4 q 53 -5 64 -4 q 42 -3 50 -5 q 43 7 43 3 q 45 17 43 14 m 368 842 l 364 829 q 351 741 351 794 q 350 730 351 736 l 337 620 q 325 473 328 500 l 326 460 q 381 454 343 454 q 448 463 399 454 q 517 489 479 469 q 572 528 546 503 q 614 577 610 570 q 645 646 633 609 q 657 712 657 684 q 613 815 657 776 q 467 855 568 855 q 368 842 408 855 z "},"S":{"ha":694,"x_min":40,"x_max":727,"o":"m 63 180 q 86 178 75 180 q 140 30 92 83 q 216 4 174 7 l 241 3 q 327 16 283 1 q 390 50 371 31 q 439 127 415 76 q 449 186 449 149 q 446 223 449 208 q 426 288 441 249 q 389 374 412 327 l 323 511 q 288 605 307 546 q 280 671 280 632 q 302 767 280 725 q 367 841 325 809 q 441 882 409 872 q 536 896 485 896 q 727 856 630 896 q 717 786 725 817 q 693 712 705 743 q 671 714 680 712 q 654 802 670 751 q 616 852 646 831 q 546 873 586 873 q 425 828 470 873 q 379 706 379 783 q 391 624 379 664 q 463 467 404 585 q 507 370 492 409 q 526 313 510 362 q 543 252 542 263 q 547 209 547 233 q 478 56 547 113 q 233 -21 385 -21 q 40 9 137 -21 l 40 14 q 47 63 40 26 q 58 146 50 77 q 63 180 60 159 z "},"T":{"ha":810,"x_min":96,"x_max":947,"o":"m 188 905 q 204 886 191 894 q 254 877 220 877 l 312 878 l 338 876 l 394 877 l 467 876 l 517 879 l 584 877 l 641 880 q 663 879 650 880 q 711 878 703 878 q 741 879 721 878 q 825 881 762 880 q 922 906 889 882 l 932 904 l 947 904 q 922 792 935 837 q 913 750 916 766 q 905 713 911 738 q 879 716 890 713 q 849 823 878 793 q 737 852 820 852 q 605 845 665 852 q 576 838 587 842 q 571 825 573 831 q 543 632 562 791 q 492 332 538 584 l 442 87 q 438 64 439 68 q 434 43 434 50 q 441 28 434 33 q 497 20 456 20 q 549 16 507 20 q 580 12 576 14 q 585 7 583 11 l 581 -15 q 507 -11 535 -14 q 463 -7 479 -7 q 187 -14 350 -7 q 198 14 191 1 q 272 20 232 18 q 297 26 281 23 q 326 36 320 31 q 337 53 332 41 q 380 274 357 103 l 443 623 q 475 844 473 792 q 431 848 455 848 q 263 838 303 848 q 196 807 223 829 q 120 716 170 786 q 96 719 108 718 q 109 753 102 737 q 160 906 138 827 l 179 906 l 188 905 z "},"U":{"ha":998,"x_min":161,"x_max":1089,"o":"m 161 851 l 171 887 q 207 882 196 882 l 328 879 q 456 886 372 879 q 509 889 468 888 q 511 870 511 876 q 510 859 511 867 q 447 849 500 857 q 387 837 394 842 q 380 829 382 833 q 347 687 364 795 l 300 406 q 280 224 280 276 q 288 157 280 199 q 309 104 294 127 q 358 53 329 74 q 500 14 435 14 q 569 18 544 14 q 707 63 661 36 q 781 132 753 90 q 834 264 810 174 q 884 551 852 329 q 907 777 907 704 q 884 829 907 806 q 814 857 862 851 q 773 863 789 860 l 772 868 q 776 891 772 876 q 964 884 867 884 q 1046 888 998 884 l 1059 888 l 1088 888 l 1089 862 q 1048 854 1080 860 q 990 836 1006 846 q 962 804 973 825 q 937 713 943 772 l 907 484 q 867 269 894 382 q 816 129 848 188 q 749 52 795 92 q 652 0 715 22 q 503 -21 589 -21 q 456 -18 491 -21 q 334 6 392 -16 q 246 56 276 28 q 197 130 216 84 q 177 239 177 176 q 192 382 177 312 q 233 608 208 452 l 265 788 q 267 812 267 802 q 258 830 267 823 q 202 844 249 837 q 161 851 172 848 z "},"V":{"ha":1114,"x_min":164,"x_max":1286,"o":"m 164 882 q 168 887 164 886 l 315 884 l 391 883 l 522 884 q 553 884 534 884 l 541 856 q 484 850 502 851 q 420 841 436 848 q 398 821 405 833 q 388 758 389 806 l 373 357 q 365 122 365 194 l 365 111 l 363 73 l 363 66 q 507 203 439 132 q 555 250 530 229 q 783 485 744 450 q 833 533 793 494 q 941 651 891 592 l 955 667 l 996 708 l 1092 812 q 1107 830 1105 827 q 1109 840 1109 833 q 1088 850 1101 847 q 1022 859 1068 857 q 985 863 1005 859 l 985 885 q 1058 882 1025 882 l 1108 879 l 1119 879 q 1169 880 1135 880 q 1230 886 1208 886 q 1286 884 1251 886 l 1286 861 q 1257 857 1275 859 q 1226 850 1240 854 q 1169 825 1184 833 l 1129 793 l 970 635 q 938 605 954 621 q 800 463 823 484 q 761 425 777 441 l 440 98 q 415 71 422 77 l 307 -26 l 294 -26 q 275 -26 288 -26 l 284 290 l 287 338 l 286 357 l 295 538 l 297 675 q 299 749 299 718 q 299 777 299 764 q 298 793 298 789 l 298 818 q 291 839 298 831 q 267 850 284 846 q 165 859 180 857 l 164 882 z "},"W":{"ha":1230,"x_min":148,"x_max":1394,"o":"m 148 855 l 149 881 l 163 882 q 211 885 195 885 l 227 884 l 250 884 l 354 882 l 391 881 q 420 878 399 880 l 420 873 q 418 859 420 868 q 364 848 385 849 q 339 834 345 842 q 328 791 330 820 l 325 713 l 321 630 l 322 617 q 320 520 322 590 l 320 451 l 315 373 l 315 326 l 311 189 l 305 115 q 304 94 304 107 q 338 127 328 115 q 380 177 359 156 q 410 211 391 186 q 521 336 442 252 q 545 364 534 351 l 545 391 l 567 650 q 574 795 574 713 q 564 830 574 820 q 507 854 547 846 q 484 859 494 857 l 484 881 q 536 883 492 881 l 572 883 l 587 884 l 630 882 l 675 884 l 766 882 l 772 883 q 783 880 776 883 l 783 862 q 751 855 772 859 q 681 833 697 846 q 665 772 665 821 q 655 591 665 741 q 650 496 650 509 l 650 478 q 694 529 673 507 q 826 686 714 551 q 859 730 840 703 q 929 823 929 811 q 925 831 929 828 q 897 846 916 840 l 880 852 q 862 856 871 854 q 843 862 852 858 l 842 869 q 844 884 842 875 l 851 884 l 892 886 l 1100 884 q 1096 859 1100 869 q 1082 856 1086 857 q 1023 837 1050 851 q 969 799 995 823 q 876 704 914 748 l 701 492 q 665 452 678 466 q 640 424 652 435 l 636 328 q 635 298 636 317 l 624 141 q 621 92 621 109 q 633 105 631 102 l 742 229 q 785 277 752 241 q 833 330 793 284 q 870 370 850 349 q 892 393 882 382 l 1120 655 l 1208 755 q 1253 813 1244 798 q 1261 838 1258 822 q 1230 847 1251 844 q 1202 853 1215 851 q 1171 859 1195 854 l 1171 880 l 1225 884 l 1252 884 l 1278 885 q 1394 884 1362 885 l 1392 858 q 1318 821 1339 838 q 1158 650 1286 797 l 922 385 l 897 355 l 869 327 l 717 155 l 554 -23 l 547 -23 q 524 -22 538 -23 l 524 -6 l 523 5 q 524 16 523 8 q 531 140 526 29 l 538 258 l 538 287 l 539 311 q 507 277 532 305 q 486 255 504 274 q 446 208 467 237 q 262 -2 409 168 q 241 -23 256 -8 l 206 -25 l 205 -16 l 212 237 l 218 461 l 227 702 q 230 749 230 742 l 230 779 l 231 805 q 221 838 229 822 q 210 849 218 845 q 182 852 202 852 q 148 855 161 852 z "},"X":{"ha":1027,"x_min":-14,"x_max":1147,"o":"m -14 -8 l -14 17 q 6 25 -7 20 q 35 36 20 29 q 78 57 55 45 q 175 117 142 92 l 296 216 q 416 317 326 239 l 491 382 q 507 395 494 385 l 545 427 q 515 473 525 456 q 506 488 511 481 q 443 597 470 552 l 373 712 q 312 812 349 762 q 268 850 294 837 q 176 869 242 863 q 146 873 159 870 l 145 897 l 180 897 l 292 894 q 313 896 298 894 q 414 892 381 892 l 490 894 q 520 893 506 894 q 543 892 534 892 l 555 892 q 556 877 556 882 l 556 867 q 430 850 458 865 q 416 833 416 844 l 417 827 q 433 793 418 822 q 548 589 437 786 q 610 486 591 514 q 748 606 618 492 q 899 749 859 705 q 944 806 939 793 q 950 825 950 819 q 940 845 950 838 q 844 871 917 860 l 844 876 q 848 893 844 882 l 856 894 l 888 894 l 957 895 l 976 892 q 1097 888 981 892 l 1126 888 q 1147 887 1131 888 l 1147 861 q 1004 788 1084 854 q 972 765 990 778 q 909 714 963 758 l 831 640 q 798 612 808 622 q 626 459 764 579 q 745 254 674 371 q 825 123 802 158 l 860 75 q 903 43 869 66 q 933 30 918 36 q 979 8 962 18 l 979 1 q 978 -12 979 -4 q 902 -5 954 -12 q 793 3 851 3 q 620 -3 762 3 q 619 12 619 7 q 620 28 619 18 q 656 31 640 31 q 724 50 700 33 q 739 73 739 59 q 721 125 739 92 q 584 355 656 243 q 555 401 562 389 q 387 258 496 357 q 227 96 256 139 q 216 64 216 78 q 227 47 216 56 q 294 23 250 30 q 321 18 309 20 q 315 -4 319 7 q 302 -5 307 -5 l 290 -5 l 278 -5 l 201 0 q 147 3 159 3 l 33 -3 q -14 -8 2 -8 z "},"Y":{"ha":897,"x_min":99,"x_max":1056,"o":"m 100 893 l 111 894 q 139 892 118 894 l 229 884 q 421 890 309 884 q 437 890 433 890 l 445 890 q 448 874 448 880 q 447 864 448 871 l 353 848 q 339 833 339 844 q 341 824 339 829 l 374 758 q 456 583 422 661 q 524 458 477 531 q 683 615 656 591 q 739 669 710 638 q 818 746 781 711 q 876 826 876 801 q 863 849 876 841 q 760 867 833 866 q 738 867 753 867 l 737 875 q 741 890 737 880 l 757 891 l 846 891 l 916 888 q 1001 891 956 888 q 1056 893 1030 893 q 1055 878 1055 884 q 1055 866 1055 871 q 1040 863 1047 864 q 981 847 1029 861 q 937 821 958 836 q 894 780 922 809 q 875 762 882 769 q 812 702 833 721 q 726 621 790 683 l 546 446 q 538 412 543 433 q 521 338 529 376 q 503 259 509 286 l 489 199 q 479 158 483 172 q 466 70 466 111 q 476 39 466 47 q 546 24 496 25 q 579 23 566 24 q 604 20 593 21 q 605 12 605 15 q 602 -1 605 7 q 508 -3 569 -3 l 462 -1 q 422 1 441 1 q 379 -1 410 1 q 218 -5 278 -5 q 196 -4 214 -5 l 201 16 l 329 37 q 344 45 340 40 q 363 93 353 56 l 393 199 q 439 417 431 369 q 335 623 417 456 q 278 732 294 705 q 226 835 237 819 q 212 849 218 846 q 141 861 210 850 q 100 865 112 863 q 99 875 99 870 l 100 893 z "},"Z":{"ha":839,"x_min":58,"x_max":877,"o":"m 58 1 l 58 9 l 70 24 q 370 384 211 185 l 669 762 q 715 823 685 782 q 740 852 728 839 q 586 856 667 856 q 454 850 546 856 q 365 836 391 845 q 308 806 329 824 q 257 733 288 787 q 242 699 253 718 q 209 701 227 699 q 224 782 216 753 l 250 881 q 661 882 277 882 l 845 883 q 876 882 856 883 q 877 869 877 875 q 875 857 877 863 q 850 821 857 831 l 703 642 q 667 599 686 623 q 576 486 649 575 l 459 338 l 352 209 l 248 83 q 203 31 217 49 l 220 30 q 372 33 310 30 q 395 33 387 33 l 463 35 q 573 44 498 35 q 640 60 601 47 q 664 79 647 63 q 701 119 691 103 q 751 209 732 170 l 778 206 l 778 201 l 776 193 q 740 3 746 24 l 524 3 q 378 1 472 3 l 245 1 l 113 0 q 58 1 84 0 z "},"[":{"ha":420,"x_min":66,"x_max":665,"o":"m 66 -317 l 404 868 l 665 867 l 658 841 l 427 841 l 104 -291 l 332 -292 l 325 -318 l 66 -317 z "},"\\":{"ha":694,"x_min":77,"x_max":618,"o":"m 77 967 l 136 967 l 618 -188 l 558 -188 l 77 967 z "},"]":{"ha":420,"x_min":-145,"x_max":448,"o":"m -145 -319 l -137 -293 l 92 -292 l 410 840 l 181 840 l 189 868 l 448 869 l 117 -319 l -145 -319 z "},"^":{"ha":694,"x_min":94,"x_max":701,"o":"m 397 932 l 701 567 l 657 531 l 397 844 l 137 531 l 94 567 l 397 932 z "},"_":{"ha":694,"x_min":-8,"x_max":703,"o":"m -8 -104 l 703 -104 l 703 -174 l -8 -174 l -8 -104 z "},"`":{"ha":463,"x_min":271,"x_max":497,"o":"m 497 641 l 485 641 q 290 779 310 759 q 271 819 271 800 q 280 842 271 833 q 304 850 290 850 q 342 838 323 850 q 406 766 361 825 q 497 641 473 679 z "},"a":{"ha":564,"x_min":53,"x_max":592,"o":"m 515 491 q 524 509 522 503 q 540 536 532 530 q 568 538 559 538 q 590 533 579 538 l 592 525 q 589 513 592 521 q 580 487 587 509 l 574 473 l 530 352 q 480 221 501 270 q 443 122 458 172 q 414 50 427 71 l 412 43 q 419 32 412 39 q 471 68 450 49 q 535 132 525 119 q 549 148 543 140 q 564 134 557 141 q 500 62 545 107 q 420 -3 456 16 q 368 -17 392 -17 q 344 -10 352 -17 q 336 7 336 -3 q 343 43 336 17 q 367 102 360 87 q 385 146 374 116 q 413 210 392 164 q 381 172 400 197 q 255 41 326 102 q 176 -5 239 26 q 122 -16 153 -14 q 87 -11 96 -16 q 60 17 71 -2 q 53 61 53 31 q 72 157 53 104 q 138 291 104 248 q 251 410 195 366 q 353 475 307 454 q 460 502 415 502 q 489 499 475 502 q 515 491 503 496 m 192 46 q 220 58 208 50 q 273 95 228 62 q 367 191 356 178 q 420 263 391 217 q 455 327 429 275 l 473 374 q 482 421 482 415 q 467 457 482 440 q 433 467 456 467 q 388 458 407 467 q 310 407 345 438 q 218 297 262 364 q 156 186 174 231 q 131 94 131 124 q 141 56 131 68 q 167 44 151 44 q 192 46 172 44 z "},"b":{"ha":564,"x_min":93,"x_max":597,"o":"m 313 856 q 259 868 294 868 l 248 868 l 250 887 q 324 893 269 892 q 410 898 336 893 q 369 767 408 888 l 319 608 q 285 500 312 582 l 211 258 l 309 388 q 410 502 395 488 q 475 546 447 534 q 526 558 504 558 q 571 534 551 558 q 597 461 597 503 q 551 278 597 373 q 425 104 505 182 q 271 6 372 53 q 178 -20 214 -20 q 116 1 138 -20 q 93 51 93 22 q 107 138 93 88 l 142 264 l 273 665 q 316 795 296 741 q 324 832 324 817 q 313 856 324 842 m 206 8 q 252 22 228 8 q 357 117 298 49 q 437 220 416 184 q 511 367 482 294 q 532 462 532 421 q 520 493 532 481 q 488 505 507 505 q 446 492 469 505 q 344 395 403 466 q 223 239 250 284 q 178 135 195 193 q 160 56 160 76 q 173 22 160 36 q 206 8 186 8 z "},"c":{"ha":376,"x_min":67,"x_max":465,"o":"m 408 435 q 392 450 397 443 q 379 476 389 454 q 365 502 370 497 q 348 509 357 509 q 297 480 324 509 q 196 303 247 427 q 144 98 144 180 q 153 56 144 68 q 173 47 160 47 q 231 75 199 47 q 318 181 274 113 q 338 184 331 184 l 348 183 q 310 119 345 171 q 216 15 259 44 q 138 -15 174 -15 q 90 7 106 -15 q 67 100 67 37 q 93 232 67 154 q 170 382 119 310 q 253 487 221 455 q 332 541 286 518 q 392 556 364 556 q 443 531 420 556 q 465 473 465 507 q 454 442 465 453 q 429 431 444 431 q 408 435 420 431 z "},"d":{"ha":564,"x_min":62,"x_max":708,"o":"m 505 481 l 578 715 q 591 764 583 730 q 594 775 593 771 q 608 832 608 820 q 600 848 608 841 q 538 873 581 863 l 524 877 l 529 896 q 682 911 644 896 l 690 912 q 708 909 699 912 q 701 882 703 889 l 701 878 l 644 709 l 576 492 q 552 410 558 437 q 532 337 543 371 l 435 49 l 437 45 q 562 159 462 49 q 578 147 573 155 q 452 10 522 62 q 377 -27 402 -27 q 362 -24 372 -27 q 358 -14 358 -18 q 381 81 358 7 q 413 188 404 155 q 359 132 395 171 q 218 7 292 56 q 121 -28 164 -28 q 83 -9 97 -28 q 62 73 62 20 q 92 209 62 139 q 150 319 109 252 q 242 436 191 386 q 338 508 292 486 q 421 530 384 530 q 473 516 450 530 q 505 481 488 507 m 195 42 q 258 67 222 42 q 381 190 323 113 q 463 342 439 266 q 486 432 486 418 q 469 473 486 454 q 438 493 452 493 q 377 475 413 493 q 302 415 342 458 q 234 316 280 391 q 165 186 188 241 q 143 103 143 132 q 158 58 143 75 q 195 42 172 42 z "},"e":{"ha":405,"x_min":71,"x_max":439,"o":"m 164 245 q 142 120 142 183 q 163 46 142 74 q 202 27 178 27 q 229 33 217 27 q 272 64 254 46 q 309 110 290 81 q 341 174 329 138 l 351 174 q 369 172 359 174 q 269 23 349 96 q 165 -22 218 -22 q 104 10 129 -22 q 71 128 71 53 q 80 206 71 161 q 103 282 90 252 q 149 372 123 330 l 201 448 q 258 507 252 502 q 306 538 281 528 q 355 549 330 549 q 414 521 389 549 q 439 451 439 493 q 419 377 439 414 q 378 324 400 341 l 321 288 q 271 270 312 283 q 164 245 229 258 m 176 279 q 243 296 197 278 q 310 333 269 305 q 347 370 326 344 q 379 424 368 396 q 390 482 390 452 q 378 515 390 502 q 353 528 367 528 q 309 507 334 528 q 221 384 267 470 q 176 279 186 318 z "},"f":{"ha":304,"x_min":-254,"x_max":603,"o":"m -235 -260 q -215 -254 -222 -254 q -174 -286 -192 -254 q -159 -308 -167 -299 q -123 -325 -142 -325 q -52 -292 -94 -325 q 14 -185 -17 -255 q 68 -36 45 -116 l 135 193 q 147 239 141 214 l 192 399 q 220 485 210 460 q 201 486 208 486 q 180 485 197 486 q 100 484 163 484 q 104 517 102 503 q 134 519 118 519 l 233 523 q 300 710 262 623 q 368 815 324 762 q 449 880 402 855 q 507 892 471 892 q 576 868 550 892 q 603 820 603 845 q 592 792 603 804 q 568 780 581 780 q 536 791 550 780 q 516 827 522 803 q 503 852 511 845 q 480 859 494 859 q 456 854 467 859 q 410 812 435 843 q 373 747 393 790 q 329 623 353 703 q 303 524 306 543 l 321 522 l 385 524 q 406 522 389 524 q 407 513 407 516 q 403 488 407 503 l 291 484 l 269 408 l 212 203 q 203 176 207 186 q 189 128 191 144 l 138 -33 q 72 -186 105 -125 q -9 -294 39 -246 q -85 -345 -45 -329 q -153 -356 -111 -356 q -232 -338 -210 -356 q -254 -295 -254 -320 q -235 -260 -254 -271 z "},"g":{"ha":448,"x_min":-129,"x_max":529,"o":"m 127 -33 q 60 27 75 9 q 55 42 55 34 q 62 60 55 52 q 97 80 69 68 q 186 132 124 92 q 154 168 179 142 l 132 192 q 117 232 124 207 q 111 282 111 257 q 123 361 111 323 q 169 456 142 417 q 223 517 195 495 q 269 541 242 532 q 340 556 311 556 q 410 539 375 556 q 461 528 432 528 q 489 530 473 528 q 511 532 505 532 q 527 531 516 532 q 529 502 529 511 q 524 488 529 495 q 509 486 513 486 q 461 495 493 486 q 438 501 448 498 q 457 410 457 460 q 390 224 457 311 q 233 119 322 138 q 158 88 185 110 q 147 66 147 80 q 182 16 147 44 q 262 -22 226 -5 q 419 -104 366 -59 q 460 -198 460 -139 q 444 -255 460 -229 q 391 -302 427 -280 q 311 -330 366 -317 q 205 -342 256 -342 q 71 -334 113 -342 q -47 -296 -4 -318 q -115 -239 -90 -273 q -129 -199 -129 -220 q -101 -147 -129 -170 q 127 -33 -61 -115 m 227 150 q 287 176 262 155 q 326 230 298 184 q 366 313 353 276 q 395 452 395 397 q 377 508 395 488 q 332 528 359 528 q 274 503 302 528 q 207 378 246 477 q 168 224 168 279 q 185 175 168 196 q 227 150 202 154 m -33 -250 q 68 -300 5 -285 q 89 -307 79 -303 q 130 -314 101 -310 q 203 -316 173 -316 q 319 -296 264 -316 q 391 -256 374 -277 q 403 -220 403 -242 q 359 -146 403 -183 q 227 -81 327 -119 q 154 -51 182 -63 q 36 -105 109 -66 q -23 -144 -3 -126 q -45 -167 -43 -163 q -53 -200 -53 -183 q -33 -250 -53 -229 z "},"h":{"ha":578,"x_min":49,"x_max":587,"o":"m 278 875 l 281 889 q 422 902 398 902 q 444 901 430 902 l 441 888 l 422 843 l 382 730 q 356 650 373 704 q 291 469 325 549 q 227 294 256 389 q 254 332 237 308 q 416 519 351 469 q 503 553 460 553 q 562 524 537 553 q 587 435 587 495 q 548 252 587 357 q 456 81 509 146 q 366 -4 404 15 q 298 -23 328 -23 q 258 -9 271 -23 q 237 35 237 12 q 248 54 237 45 q 277 63 259 63 q 298 57 290 63 q 323 26 307 52 q 342 16 335 16 q 378 45 355 16 q 477 267 422 103 q 521 463 521 396 q 511 512 521 499 q 483 525 500 525 q 461 519 473 525 q 382 456 425 500 q 247 283 339 411 q 179 153 227 254 q 115 11 132 52 q 98 -17 106 -11 q 77 -23 90 -23 q 55 -18 62 -23 q 49 -2 49 -12 q 60 35 49 9 l 109 157 q 116 174 113 165 l 308 722 l 336 801 q 347 842 347 831 q 342 854 347 850 q 327 861 338 859 q 278 875 300 866 z "},"i":{"ha":318,"x_min":52,"x_max":405,"o":"m 288 802 q 307 845 288 826 q 349 863 325 863 q 389 847 372 863 q 405 810 405 831 q 385 760 405 783 q 340 747 372 747 q 303 762 318 747 q 288 802 288 777 m 262 498 q 241 496 248 498 q 194 467 209 479 q 136 411 163 443 l 97 402 q 213 513 149 473 q 313 553 277 553 q 337 545 329 553 q 345 525 345 537 q 307 414 345 492 q 284 366 302 405 q 197 197 243 277 q 165 136 182 172 q 148 104 155 117 q 127 52 127 69 q 131 44 127 47 q 140 40 134 40 q 161 48 147 40 q 218 93 185 62 q 276 165 251 125 l 304 165 q 246 81 284 129 q 159 5 208 34 q 94 -16 122 -16 q 62 -7 72 -16 q 52 17 52 2 q 128 214 52 69 l 237 420 q 261 470 254 452 q 265 486 265 481 q 262 498 265 489 z "},"j":{"ha":290,"x_min":-301,"x_max":395,"o":"m 296 789 q 313 826 296 810 q 357 842 330 842 q 384 829 372 842 q 395 795 395 816 q 382 760 395 774 q 343 747 368 747 q 309 760 322 747 q 296 789 296 772 m -277 -243 q -254 -238 -261 -238 q -230 -249 -243 -238 q -211 -282 -218 -260 q -191 -311 -203 -304 q -144 -304 -165 -311 q -101 -278 -120 -295 q -52 -217 -81 -261 q 6 -109 -28 -183 q 59 12 41 -35 q 78 61 68 39 l 168 280 l 200 357 q 227 414 210 378 q 244 477 244 450 q 240 488 244 484 q 231 492 236 492 q 195 474 222 492 q 102 378 159 448 q 85 392 93 383 q 162 481 115 435 q 257 550 209 527 q 318 564 287 564 q 328 546 328 555 q 236 271 328 477 q 217 224 227 250 q 134 24 189 146 q 25 -200 56 -153 q -46 -282 -5 -248 q -119 -326 -86 -315 q -206 -341 -168 -341 q -255 -334 -240 -341 q -293 -306 -279 -324 q -301 -279 -301 -296 q -277 -243 -301 -257 z "},"k":{"ha":724,"x_min":45,"x_max":711,"o":"m 338 857 l 344 875 q 502 896 430 875 l 527 896 q 509 854 521 879 l 382 580 l 313 429 l 278 353 q 273 336 275 345 q 306 359 293 349 l 401 449 q 513 527 467 506 q 601 547 558 547 q 683 515 645 547 q 708 456 708 493 q 641 338 708 394 q 454 283 574 283 q 343 292 406 283 q 385 191 356 241 q 438 104 400 163 q 485 51 458 75 q 549 7 523 19 q 600 -4 574 -4 q 661 16 637 -4 q 685 56 685 36 q 679 71 685 64 q 669 77 673 77 q 639 66 664 77 q 621 62 631 62 q 589 74 602 62 q 579 96 579 82 q 594 126 579 114 q 639 140 609 139 q 691 114 677 132 q 711 56 711 89 q 680 -5 711 22 q 597 -33 649 -33 q 456 3 516 -33 q 336 130 395 39 q 264 296 302 179 q 232 237 253 280 q 217 206 229 231 q 189 147 204 181 q 109 -11 123 7 q 81 -24 99 -24 q 48 -18 68 -24 q 45 -5 45 -10 q 92 101 45 12 q 122 169 102 119 q 164 264 143 218 l 268 490 l 309 581 q 394 781 352 686 q 400 817 400 800 q 393 836 400 828 q 362 850 387 843 q 338 857 347 854 m 314 329 q 379 319 353 319 q 572 349 490 319 q 656 400 633 371 q 679 456 679 430 q 668 476 679 467 q 634 485 656 485 q 544 470 591 485 q 407 405 463 444 q 314 329 351 366 z "},"l":{"ha":304,"x_min":50,"x_max":465,"o":"m 308 878 l 310 897 q 435 903 393 903 l 465 903 l 465 893 l 444 827 q 395 702 443 825 l 303 463 q 222 256 279 396 l 199 197 q 161 110 176 132 q 139 56 139 73 l 142 45 q 199 75 164 47 q 293 178 251 115 q 314 180 307 180 l 322 180 q 265 99 296 130 q 199 37 217 50 q 121 -8 158 7 q 74 -18 97 -18 q 56 -12 62 -18 q 50 3 50 -6 q 158 283 50 35 q 227 456 191 359 q 324 697 290 625 q 374 827 358 769 q 375 837 375 833 q 366 856 375 847 q 308 878 353 867 z "},"m":{"ha":868,"x_min":34,"x_max":903,"o":"m 279 487 l 269 490 q 231 470 257 490 q 151 391 184 435 q 137 375 144 382 q 111 378 124 376 q 153 435 132 413 q 221 499 202 485 q 292 543 259 528 q 326 550 309 550 q 351 541 341 550 q 361 522 361 532 q 281 343 361 498 q 252 282 259 298 q 348 390 290 321 q 459 501 389 439 q 521 538 486 525 q 578 551 555 551 q 610 538 596 551 q 618 515 618 530 q 541 312 618 456 l 509 252 l 505 241 l 574 323 q 618 371 606 359 q 649 404 640 392 q 768 510 707 473 q 865 547 829 547 q 891 535 880 547 q 903 503 903 524 q 900 477 903 490 q 878 417 895 455 q 819 309 877 414 q 768 219 786 248 l 734 165 q 696 109 709 122 q 657 45 657 70 q 662 39 657 42 q 687 52 665 39 q 795 138 731 79 l 817 133 q 710 30 784 78 q 578 -19 637 -19 q 553 -8 564 -19 q 556 6 553 1 q 578 43 559 12 l 690 226 q 799 413 781 373 q 825 482 825 472 q 820 495 825 490 q 808 500 815 500 q 784 492 799 500 q 692 415 745 470 q 535 241 589 305 q 388 26 449 137 q 356 -17 374 -1 q 327 -19 341 -19 q 291 -15 305 -19 q 310 25 293 -3 q 414 209 342 77 q 509 388 486 340 q 537 457 531 435 q 539 473 539 465 q 532 492 539 484 q 522 498 528 498 q 490 486 511 498 q 403 410 459 470 q 293 290 305 306 q 169 117 210 183 q 143 72 167 113 q 111 16 119 31 q 84 -15 100 -1 q 54 -17 66 -17 q 37 -14 45 -17 l 34 -4 q 44 23 34 6 q 155 236 48 30 l 276 473 q 279 487 278 477 z "},"n":{"ha":593,"x_min":63,"x_max":603,"o":"m 245 470 q 242 477 244 475 q 236 479 239 479 q 126 368 201 479 q 115 368 119 368 q 102 368 111 368 q 148 440 116 397 q 217 512 180 484 q 286 555 253 541 q 305 560 296 560 q 315 559 309 560 q 328 534 328 547 q 326 518 328 526 q 319 493 324 510 q 289 411 298 435 l 250 311 q 224 237 237 276 q 233 250 229 244 q 369 427 296 342 q 490 540 442 511 q 554 561 524 561 q 590 548 577 561 q 603 516 603 536 q 600 492 603 504 q 579 420 595 467 q 494 220 563 374 l 426 64 l 423 55 q 428 43 423 51 q 542 163 466 51 l 570 163 q 500 65 549 125 q 420 -5 463 20 q 370 -20 397 -20 q 345 -13 353 -20 q 337 2 337 -6 q 372 113 337 38 l 470 328 l 508 418 q 524 460 521 448 q 526 483 526 471 q 522 497 526 492 q 509 502 517 502 q 484 493 498 502 q 374 391 434 463 q 258 241 287 286 q 134 11 187 128 q 115 -17 126 -8 q 93 -19 100 -19 q 66 -16 84 -19 q 63 -7 63 -10 q 70 18 63 -1 q 143 203 85 62 l 159 240 l 245 470 z "},"o":{"ha":492,"x_min":77,"x_max":493,"o":"m 493 385 q 398 106 493 228 q 200 -16 302 -16 q 111 25 145 -16 q 77 153 77 66 q 104 289 77 212 q 172 417 130 366 q 194 445 182 429 q 279 524 230 492 q 380 555 329 555 q 460 516 428 555 q 493 385 493 476 m 140 77 q 155 31 140 45 q 202 16 170 16 q 267 47 234 16 q 383 243 325 104 q 441 462 441 382 q 427 507 441 490 q 395 524 413 524 q 311 477 355 524 q 184 260 237 398 q 140 77 140 147 z "},"p":{"ha":564,"x_min":-196,"x_max":568,"o":"m -192 -328 q -126 -317 -167 -321 q -96 -313 -105 -315 q -76 -309 -85 -311 q -62 -300 -66 -305 q -44 -264 -55 -292 l 23 -88 q 50 -12 37 -54 q 68 40 58 15 q 79 73 78 65 q 86 95 83 88 l 149 271 q 200 420 153 281 q 226 504 214 462 q 142 485 178 496 q 121 479 134 483 q 90 469 96 469 q 73 473 84 469 l 71 481 q 82 497 71 490 q 239 545 115 518 q 279 660 272 629 q 302 716 289 701 q 319 718 310 718 q 347 716 328 718 q 359 696 359 704 l 356 687 q 347 656 355 684 q 334 617 343 640 q 312 556 317 572 q 352 558 342 558 q 385 557 363 558 l 388 557 q 463 538 424 557 q 543 465 518 511 q 568 359 568 419 q 551 262 568 313 q 497 157 533 210 q 415 67 461 103 q 333 18 369 31 q 227 -10 252 -10 q 184 -5 208 -10 q 132 12 160 1 q 42 -224 105 -43 q 22 -277 30 -260 q 15 -304 15 -294 l 16 -310 l 23 -316 q 67 -323 41 -321 q 111 -328 92 -324 q 120 -332 115 -330 l 123 -343 q 120 -351 123 -347 q 79 -349 94 -349 q 64 -350 70 -349 l 47 -351 l -77 -346 q -130 -350 -111 -346 q -170 -349 -153 -349 l -195 -349 l -196 -344 q -192 -328 -196 -338 m 372 94 q 462 235 435 163 q 489 361 489 307 q 479 431 489 396 q 460 465 475 450 q 419 496 439 487 q 336 510 387 510 q 298 508 320 510 q 224 291 254 368 l 168 129 q 159 91 161 109 q 157 71 157 81 q 170 37 157 47 q 226 22 190 22 q 288 35 258 22 q 372 94 311 45 z "},"q":{"ha":593,"x_min":53,"x_max":626,"o":"m 611 559 l 616 559 q 626 555 621 559 q 619 521 626 538 q 591 441 595 455 q 553 324 583 411 l 503 174 q 439 -12 463 70 q 417 -75 435 -24 q 383 -172 392 -143 l 370 -217 q 347 -300 361 -241 q 358 -318 347 -311 l 403 -322 q 412 -323 408 -323 q 433 -331 425 -324 q 434 -340 434 -336 l 433 -348 l 403 -350 q 275 -347 283 -347 q 248 -347 262 -347 q 176 -349 204 -349 l 129 -351 q 110 -341 120 -351 q 120 -326 111 -331 l 157 -324 q 245 -304 222 -320 q 272 -270 261 -294 q 321 -123 282 -246 l 404 106 l 429 193 q 444 238 442 226 q 422 210 437 229 q 317 85 367 137 q 242 16 267 33 q 179 -17 218 -2 q 134 -26 157 -26 q 76 2 100 -26 q 53 94 53 30 q 194 380 53 233 q 460 558 365 558 q 505 548 479 558 q 568 515 541 534 q 611 559 590 541 m 188 35 q 231 47 211 35 q 308 115 252 60 q 406 232 350 155 q 487 366 463 309 q 512 462 512 422 q 498 510 512 494 q 467 526 485 526 q 419 510 448 526 q 331 439 390 494 q 234 332 273 385 q 153 197 172 249 q 133 108 133 146 q 147 52 133 68 q 188 35 161 35 z "},"r":{"ha":420,"x_min":77,"x_max":553,"o":"m 222 498 q 180 460 200 482 q 119 379 175 454 l 91 378 q 154 468 108 414 q 234 541 200 522 q 283 556 256 554 q 306 543 300 551 q 313 524 313 535 q 310 500 313 512 q 280 394 302 463 q 240 285 258 325 l 205 201 l 202 189 q 241 262 212 205 q 400 521 351 471 q 484 556 436 556 q 535 534 511 556 q 553 490 553 517 q 533 436 553 458 q 494 420 519 420 q 465 430 473 420 q 454 479 456 440 q 435 497 446 497 q 412 486 424 497 q 289 299 379 456 q 176 80 199 141 q 139 -5 153 18 q 111 -16 132 -16 q 85 -10 93 -16 q 77 7 77 -3 q 84 38 77 20 q 178 300 113 109 l 225 446 q 232 471 230 465 l 236 481 q 222 498 236 488 z "},"s":{"ha":405,"x_min":36,"x_max":460,"o":"m 78 116 q 134 64 112 116 q 155 30 144 38 q 180 21 164 21 q 235 48 209 21 q 256 111 256 68 q 233 208 256 143 q 200 356 200 302 q 242 494 200 434 q 375 555 284 555 q 437 534 414 555 q 460 483 460 513 q 449 450 460 463 q 423 437 437 437 q 370 466 393 437 q 338 500 346 495 q 313 504 330 504 q 279 488 294 504 q 264 448 264 471 q 297 295 264 393 q 330 143 330 197 q 308 73 330 109 q 242 13 287 37 q 149 -12 197 -12 q 64 12 92 -12 q 36 71 36 37 q 47 103 36 91 q 78 116 59 116 z "},"t":{"ha":347,"x_min":54,"x_max":467,"o":"m 250 493 l 211 493 l 192 494 l 148 492 l 139 492 q 151 527 140 507 q 267 532 248 530 q 290 584 280 564 q 332 688 310 628 q 347 724 338 708 q 381 726 361 726 q 412 723 397 726 l 414 712 q 353 563 414 699 q 341 531 346 547 q 364 528 361 528 l 378 528 l 401 527 l 467 528 q 458 492 467 506 q 387 489 431 489 q 359 488 366 489 q 319 481 325 485 l 207 218 q 144 71 189 180 q 149 62 144 67 l 157 60 q 203 83 176 60 q 317 202 263 134 q 337 188 328 196 q 241 80 269 106 q 170 25 213 54 q 119 -6 127 -3 q 87 -12 103 -12 q 62 -5 70 -12 q 54 16 54 2 q 87 107 54 35 l 116 170 l 218 411 q 250 493 238 458 z "},"u":{"ha":593,"x_min":53,"x_max":629,"o":"m 268 496 q 205 444 245 487 q 155 397 178 422 q 132 373 140 380 l 111 378 q 174 454 121 398 q 280 541 226 510 q 328 557 307 557 q 351 547 341 557 q 360 527 360 538 q 349 488 360 513 q 338 465 347 484 q 220 223 308 394 q 144 57 144 77 l 145 53 q 193 81 163 56 q 327 208 281 157 q 358 240 333 214 q 486 394 435 320 q 573 554 517 438 q 605 556 592 556 q 629 545 621 556 q 575 406 614 503 l 449 91 q 434 46 437 66 l 439 45 q 461 61 444 45 q 527 133 500 96 q 548 159 539 150 l 570 156 q 460 22 537 94 q 393 -18 417 -18 q 370 -14 384 -18 q 357 11 357 -1 q 385 110 357 45 l 481 333 q 486 347 485 340 q 433 286 474 333 q 265 106 335 172 q 114 -5 195 41 q 75 -16 94 -16 q 59 -9 66 -16 q 53 9 53 -3 q 58 37 53 20 q 96 125 68 71 l 212 353 l 260 454 q 273 484 273 475 q 268 496 273 488 z "},"v":{"ha":477,"x_min":73,"x_max":527,"o":"m 117 363 l 96 361 l 90 361 q 195 532 129 467 q 258 564 227 564 q 291 548 276 564 q 306 505 306 532 q 299 444 306 475 q 267 346 292 413 l 205 191 q 174 113 178 127 l 164 85 q 149 35 149 48 q 154 17 149 31 q 165 14 161 14 l 209 35 q 312 121 290 98 q 408 239 354 165 q 448 319 433 274 q 458 379 458 349 q 443 496 458 414 q 459 549 443 528 q 485 566 471 566 q 513 548 499 566 q 527 497 527 530 q 478 307 527 410 q 368 144 444 235 q 209 4 292 54 q 123 -21 168 -21 q 91 -14 110 -21 q 73 18 73 1 q 90 85 73 45 q 220 423 163 266 q 230 473 230 453 q 224 493 230 485 q 213 499 219 499 q 180 475 198 499 q 117 363 146 431 z "},"w":{"ha":738,"x_min":49,"x_max":802,"o":"m 120 396 l 102 404 q 156 511 120 465 q 228 557 192 557 q 272 534 254 557 q 290 450 290 511 q 260 296 290 386 q 151 50 231 206 q 239 100 189 63 q 362 212 312 152 q 419 297 387 240 q 460 374 452 353 q 473 452 473 414 q 465 479 473 469 q 453 486 460 486 q 435 481 444 486 q 409 454 422 473 l 374 397 l 354 407 q 401 493 379 463 q 451 547 433 536 q 482 557 469 557 q 525 540 510 557 q 549 448 549 513 q 512 271 549 387 q 414 50 475 156 q 648 229 542 106 q 728 441 728 323 q 726 490 728 446 q 737 535 726 513 q 763 556 747 556 q 791 545 781 556 q 802 514 802 534 q 769 371 802 450 q 658 198 736 292 q 519 77 603 132 q 346 -13 468 44 q 304 -26 307 -26 q 287 -20 299 -26 q 289 -7 287 -10 q 301 9 290 -3 q 397 173 363 101 q 442 285 432 245 q 340 151 386 194 q 147 10 275 88 q 63 -24 90 -24 q 53 -20 57 -24 q 49 -11 49 -16 q 52 6 49 -1 q 78 55 53 9 q 144 190 123 139 q 203 358 183 283 q 216 446 216 412 q 208 477 216 466 q 193 484 203 484 q 167 469 182 484 q 120 396 152 454 z "},"x":{"ha":694,"x_min":12,"x_max":773,"o":"m 110 125 q 104 111 106 116 q 92 69 92 79 q 99 52 92 60 q 117 45 106 45 q 134 49 126 45 q 241 133 163 63 q 360 246 318 202 q 322 320 343 286 l 252 438 q 227 466 238 458 q 210 471 218 471 q 191 461 199 471 q 176 361 180 374 q 155 387 159 374 q 144 448 144 411 q 164 517 144 482 q 208 553 184 553 q 262 526 235 553 q 392 328 305 485 q 412 294 406 302 l 543 412 q 680 525 636 495 q 719 545 699 538 q 738 548 728 548 q 763 535 752 548 q 773 501 773 523 q 733 410 773 441 q 710 401 718 401 q 686 406 701 401 q 713 455 713 442 q 705 475 713 466 q 694 477 697 477 q 672 472 687 477 q 627 445 663 469 q 522 359 572 406 l 429 271 q 532 87 515 109 q 558 71 545 71 q 579 82 570 71 q 595 106 595 98 l 592 151 l 593 157 q 608 154 602 157 q 625 87 625 130 q 614 39 625 74 q 589 2 606 16 q 555 -12 572 -12 q 523 -1 538 -12 q 470 62 507 10 q 401 179 465 71 l 376 220 q 319 165 366 211 q 141 11 195 45 q 75 -14 102 -14 q 30 3 47 -14 q 12 45 12 20 q 38 102 12 75 q 87 129 63 129 q 110 125 96 129 z "},"y":{"ha":463,"x_min":-299,"x_max":487,"o":"m -192 -281 q -167 -301 -178 -297 q -132 -306 -157 -306 q -47 -286 -96 -306 q 24 -244 1 -266 q 125 -150 68 -215 q 177 -60 155 -115 q 210 79 199 -5 q 220 223 220 163 q 217 353 220 258 q 207 441 214 417 q 188 475 199 465 q 172 480 182 480 q 145 467 157 480 q 98 356 121 437 l 93 355 q 76 362 86 355 q 110 473 100 451 q 146 533 131 516 q 178 553 156 543 q 195 555 189 555 q 258 504 234 555 q 290 312 290 433 q 282 176 290 257 q 266 56 275 94 q 253 -12 254 1 q 260 -2 256 -9 q 335 123 304 63 q 379 230 359 168 q 411 358 399 292 q 418 444 418 397 q 417 473 418 461 q 416 493 416 490 q 429 543 416 526 q 452 553 435 553 q 478 543 470 553 q 487 512 487 534 q 448 350 487 479 q 339 73 395 171 q 142 -189 254 -75 q -16 -302 66 -267 q -158 -338 -98 -338 q -269 -317 -239 -338 q -299 -275 -299 -296 q -289 -252 -299 -262 q -265 -242 -279 -242 q -225 -252 -246 -242 q -192 -281 -215 -258 z "},"z":{"ha":578,"x_min":81,"x_max":675,"o":"m 560 406 l 487 404 q 333 462 419 404 q 248 494 286 494 q 184 469 210 494 q 159 410 159 445 q 171 369 159 391 l 180 368 q 189 382 186 374 q 206 410 195 401 q 232 419 217 419 q 260 406 248 419 q 274 361 271 393 q 250 326 267 338 q 209 313 232 313 q 157 338 179 313 q 135 404 135 363 q 187 508 135 460 q 308 555 239 555 q 442 501 371 555 q 528 439 513 447 q 553 432 543 432 q 576 442 565 432 l 582 454 q 600 516 590 505 q 631 531 612 531 q 661 519 648 531 q 674 493 674 507 q 661 450 674 469 q 588 379 644 425 q 530 323 572 366 q 475 271 505 298 l 405 212 q 266 87 340 149 q 278 80 274 82 q 342 45 336 50 q 377 -3 357 32 q 417 -109 397 -39 l 451 -224 q 471 -269 457 -240 q 489 -293 481 -281 q 572 -328 519 -328 q 624 -318 610 -328 q 634 -301 634 -312 q 631 -287 634 -296 q 608 -277 627 -283 q 586 -265 590 -271 q 578 -241 578 -254 q 591 -214 578 -226 q 625 -201 605 -201 q 639 -205 631 -201 q 665 -225 654 -210 q 675 -267 675 -241 q 648 -329 675 -305 q 559 -353 620 -353 q 488 -344 511 -353 q 420 -295 452 -329 q 367 -216 389 -262 q 335 -118 358 -198 q 305 -18 313 -37 q 264 45 286 26 q 237 56 252 56 q 196 29 222 56 q 123 -12 157 -12 q 94 1 107 -12 q 81 31 81 14 q 106 73 81 53 q 180 92 130 92 q 215 95 208 92 q 291 153 235 104 l 492 334 q 560 406 521 359 z "},"{":{"ha":665,"x_min":192,"x_max":570,"o":"m 570 -276 l 570 -300 q 386 -208 457 -284 q 315 -39 315 -132 q 331 75 315 11 q 347 177 347 139 q 305 267 347 224 q 192 319 264 309 l 192 347 q 306 398 264 356 q 347 488 347 440 q 331 590 347 526 q 315 705 315 654 q 386 873 315 796 q 570 964 457 949 l 570 941 q 454 879 491 922 q 417 785 417 836 q 432 679 417 744 q 448 567 448 613 q 397 434 448 498 q 248 334 347 370 q 396 233 345 298 q 448 98 448 167 q 432 -13 448 52 q 417 -120 417 -79 q 454 -213 417 -170 q 570 -276 491 -256 z "},"|":{"ha":694,"x_min":366,"x_max":427,"o":"m 366 891 l 427 891 l 427 -342 l 366 -342 l 366 891 z "},"}":{"ha":665,"x_min":186,"x_max":564,"o":"m 186 941 l 186 964 q 370 873 298 949 q 441 704 441 797 q 425 590 441 654 q 410 488 410 526 q 451 398 410 441 q 564 347 492 356 l 564 319 q 451 267 492 309 q 410 176 410 225 q 425 75 410 140 q 441 -39 441 11 q 370 -208 441 -131 q 186 -300 299 -284 l 186 -276 q 302 -214 265 -256 q 339 -120 339 -171 q 323 -13 339 -79 q 308 98 308 52 q 358 231 308 167 q 509 331 409 296 q 359 433 411 367 q 308 567 308 498 q 323 679 308 613 q 339 785 339 744 q 302 879 339 836 q 186 941 265 922 z "},"~":{"ha":926,"x_min":151,"x_max":873,"o":"m 844 524 l 873 524 q 824 388 871 437 q 709 338 777 338 q 647 347 677 338 q 456 420 606 359 q 307 464 351 464 q 227 435 259 464 q 180 340 194 406 l 151 340 q 201 477 156 430 q 309 525 247 525 q 369 516 338 525 q 566 441 439 496 q 718 397 671 397 q 803 429 768 397 q 844 524 838 462 z "},"":{"ha":1056,"x_min":-77,"x_max":1173,"o":"m 67 40 q 87 56 75 47 l 97 65 l 256 224 q 292 258 283 251 q 311 277 300 265 q 337 304 321 288 q 364 330 354 319 q 401 366 392 355 q 653 608 496 453 l 800 751 q 829 779 817 768 q 895 852 871 827 q 930 890 903 859 q 947 891 939 891 q 970 890 956 891 l 971 882 q 966 802 966 826 q 961 723 962 774 l 952 601 q 948 529 951 587 l 924 211 l 924 196 l 923 161 l 923 151 q 920 139 921 142 l 919 81 l 920 72 l 918 45 q 947 33 923 35 q 1036 16 1007 26 l 1037 7 q 1034 -9 1037 1 q 1004 -5 1009 -5 l 920 1 l 860 -1 q 764 -7 801 -7 l 747 -9 l 728 -9 q 692 -12 698 -12 q 668 -9 682 -12 l 669 10 q 714 18 689 16 q 789 30 755 20 q 802 32 798 32 l 805 32 q 814 45 812 39 q 828 153 819 58 q 839 296 838 247 q 840 332 840 321 q 801 333 832 333 q 560 328 762 333 l 423 323 q 409 321 418 322 q 386 302 399 316 q 351 272 372 288 q 262 188 321 241 q 221 148 238 166 l 170 93 q 153 77 161 85 q 142 68 148 73 q 133 54 138 61 q 134 37 134 47 q 184 24 153 27 q 214 21 198 23 q 248 16 237 17 q 262 12 256 15 q 256 -11 261 1 l 131 -2 l 37 -7 q 6 -9 16 -7 l -1 -9 q -24 -11 -6 -9 l -57 -12 q -75 -9 -65 -12 q -77 14 -77 1 l -68 17 l 6 24 l 52 32 q 67 40 57 34 m 580 356 q 602 355 595 356 l 618 355 l 703 359 l 814 367 q 842 370 829 369 q 846 407 844 382 q 850 439 850 433 l 863 636 l 873 763 q 834 732 865 759 q 796 701 820 723 l 640 551 l 612 526 q 582 496 597 509 q 553 469 566 483 q 535 452 546 461 q 514 433 524 443 q 494 414 505 425 q 471 390 484 402 q 444 361 463 381 q 495 354 455 354 l 530 355 q 580 356 554 356 m 836 1038 q 852 1076 836 1059 q 891 1092 868 1092 q 930 1076 914 1092 q 946 1037 946 1060 q 930 998 946 1014 q 891 981 913 981 q 852 998 869 981 q 836 1038 836 1014 m 1118 1091 q 1157 1075 1141 1091 q 1173 1036 1173 1059 q 1157 997 1173 1013 q 1118 981 1141 981 q 1079 997 1095 981 q 1063 1038 1063 1013 q 1079 1075 1063 1059 q 1118 1091 1095 1091 z "},"":{"ha":1056,"x_min":-77,"x_max":1053,"o":"m 67 40 q 87 56 75 47 l 97 65 l 256 224 q 292 258 283 251 q 311 277 300 265 q 337 304 321 288 q 364 330 354 319 q 401 366 392 355 q 653 608 496 453 l 800 751 q 829 779 817 768 q 895 852 871 827 q 930 890 903 859 q 947 891 939 891 q 970 890 956 891 l 971 882 q 966 802 966 826 q 961 723 962 774 l 952 601 q 948 529 951 587 l 924 211 l 924 196 l 923 161 l 923 151 q 920 139 921 142 l 919 81 l 920 72 l 918 45 q 947 33 923 35 q 1036 16 1007 26 l 1037 7 q 1034 -9 1037 1 q 1004 -5 1009 -5 l 920 1 l 860 -1 q 764 -7 801 -7 l 747 -9 l 728 -9 q 692 -12 698 -12 q 668 -9 682 -12 l 669 10 q 714 18 689 16 q 789 30 755 20 q 802 32 798 32 l 805 32 q 814 45 812 39 q 828 153 819 58 q 839 296 838 247 q 840 332 840 321 q 801 333 832 333 q 560 328 762 333 l 423 323 q 409 321 418 322 q 386 302 399 316 q 351 272 372 288 q 262 188 321 241 q 221 148 238 166 l 170 93 q 153 77 161 85 q 142 68 148 73 q 133 54 138 61 q 134 37 134 47 q 184 24 153 27 q 214 21 198 23 q 248 16 237 17 q 262 12 256 15 q 256 -11 261 1 l 131 -2 l 37 -7 q 6 -9 16 -7 l -1 -9 q -24 -11 -6 -9 l -57 -12 q -75 -9 -65 -12 q -77 14 -77 1 l -68 17 l 6 24 l 52 32 q 67 40 57 34 m 580 356 q 602 355 595 356 l 618 355 l 703 359 l 814 367 q 842 370 829 369 q 846 407 844 382 q 850 439 850 433 l 863 636 l 873 763 q 834 732 865 759 q 796 701 820 723 l 640 551 l 612 526 q 582 496 597 509 q 553 469 566 483 q 535 452 546 461 q 514 433 524 443 q 494 414 505 425 q 471 390 484 402 q 444 361 463 381 q 495 354 455 354 l 530 355 q 580 356 554 356 m 829 986 q 862 1067 829 1034 q 941 1100 895 1100 q 1020 1067 987 1100 q 1053 987 1053 1034 q 1020 908 1053 941 q 941 875 987 875 q 862 907 895 875 q 829 986 829 940 m 941 905 q 1000 929 976 905 q 1024 987 1024 953 q 1000 1046 1024 1021 q 941 1070 975 1070 q 883 1046 907 1070 q 859 987 859 1022 q 883 929 859 953 q 941 905 907 905 z "},"":{"ha":868,"x_min":98,"x_max":975,"o":"m 975 884 q 961 809 972 861 q 941 732 949 758 l 921 733 l 921 751 q 905 843 921 825 q 838 862 889 862 q 805 861 817 861 l 780 861 q 756 862 762 862 q 648 843 708 862 q 505 773 589 825 q 390 677 467 749 q 288 545 360 648 l 264 504 l 235 431 q 220 361 224 395 q 216 294 216 328 q 226 207 216 248 q 253 144 236 166 q 329 70 289 100 q 422 24 370 41 q 544 8 475 8 q 661 28 615 8 q 742 86 707 49 q 807 182 753 98 l 829 175 l 793 60 q 778 16 783 30 q 687 -7 734 0 q 513 -22 597 -22 q 321 2 389 -22 q 191 85 254 26 q 121 192 145 127 q 98 312 98 256 q 123 455 98 396 q 248 653 178 580 q 414 784 318 727 q 575 861 483 825 q 764 897 667 897 l 884 898 q 975 884 927 898 m 317 -127 q 327 -101 320 -116 q 374 6 334 -87 l 393 5 q 376 -38 387 -13 q 359 -81 364 -62 l 360 -90 q 378 -113 363 -96 q 408 -197 408 -146 q 376 -281 408 -248 q 293 -314 343 -314 q 246 -302 262 -314 q 235 -278 235 -294 q 241 -258 235 -266 q 253 -251 248 -251 q 273 -262 261 -251 q 317 -285 297 -285 q 356 -266 338 -285 q 373 -220 373 -247 q 340 -157 373 -181 q 319 -139 323 -144 q 317 -127 317 -136 z "},"":{"ha":955,"x_min":-4,"x_max":936,"o":"m 151 29 q 157 58 154 41 q 206 315 194 239 l 248 545 q 258 612 250 553 l 281 726 q 290 799 287 755 q 291 817 291 808 q 279 840 291 832 q 201 852 268 848 l 158 854 q 163 880 159 867 l 245 880 l 347 880 l 403 879 l 880 884 q 911 883 897 884 q 936 882 920 882 q 922 798 935 865 q 904 732 914 758 q 887 741 894 733 q 879 793 880 781 q 876 830 877 826 q 869 851 876 835 q 831 856 848 855 q 810 858 823 857 q 785 858 795 857 l 767 857 l 745 857 l 699 854 l 646 854 l 608 853 l 594 854 l 568 853 l 557 853 l 532 852 l 515 852 l 448 850 q 416 846 430 849 q 393 836 410 844 q 387 798 392 821 l 371 711 l 357 631 l 355 612 q 334 496 338 530 q 332 476 334 487 q 524 490 367 481 q 727 504 715 500 q 768 525 753 511 q 820 621 783 539 l 846 624 q 817 482 840 585 q 810 446 814 469 q 798 391 808 429 q 793 368 795 376 q 786 332 790 343 q 762 333 774 333 l 762 336 q 764 349 762 340 q 767 397 767 363 q 753 456 767 441 q 690 470 739 470 q 577 460 643 470 q 435 453 527 460 l 387 450 l 374 448 q 345 446 355 448 q 328 444 340 445 q 312 366 317 389 q 292 276 298 309 l 252 73 q 250 52 250 61 q 254 35 250 45 q 281 19 269 23 q 332 15 294 16 q 366 14 340 15 q 377 14 373 14 l 485 18 l 511 20 l 529 19 q 619 27 569 19 q 652 31 632 29 q 806 92 739 42 q 887 208 857 130 l 897 208 q 908 206 902 208 q 849 -5 901 173 q 638 -7 777 -7 l 538 -9 l 509 -9 l 424 -12 l 362 -10 l 296 -11 l 147 -10 l 114 -12 l 56 -10 l -3 -11 l -4 10 l 59 13 l 101 18 q 151 29 119 22 m 627 964 l 615 965 q 673 1048 616 968 q 737 1136 730 1128 q 775 1168 755 1157 q 804 1175 789 1175 q 830 1165 821 1175 q 840 1143 840 1156 q 785 1076 840 1114 l 627 964 z "},"":{"ha":1085,"x_min":-14,"x_max":1202,"o":"m -14 23 q 29 28 0 26 q 75 33 58 30 q 138 54 117 36 q 155 87 151 65 l 195 274 q 211 345 205 324 l 213 362 l 245 537 q 256 586 246 553 q 270 686 265 618 l 280 736 l 289 823 q 280 840 289 835 q 144 867 260 850 l 150 888 l 400 889 q 412 871 408 880 q 449 816 420 857 l 488 761 q 535 686 511 723 q 581 612 559 650 q 790 278 595 587 q 841 195 827 220 q 897 99 867 146 q 911 187 905 141 q 944 363 939 318 q 951 411 947 389 q 960 466 954 426 l 970 542 q 987 660 971 555 q 1002 802 1002 764 q 996 833 1002 813 q 899 858 977 846 q 857 866 872 863 q 854 882 854 876 l 854 888 l 863 888 q 1029 880 876 888 q 1065 879 1056 879 q 1154 883 1110 879 q 1202 886 1185 886 q 1194 856 1200 870 q 1072 839 1098 847 q 1053 827 1058 834 q 1037 766 1048 821 q 1017 650 1022 687 q 1007 589 1013 614 q 998 543 1000 554 l 972 357 l 924 81 q 909 -26 910 -10 l 893 -26 q 872 -25 886 -26 q 840 28 859 1 l 646 332 q 624 369 633 352 l 575 442 l 420 686 q 366 762 389 734 q 354 782 361 772 q 338 806 347 791 q 328 821 334 811 q 314 747 323 801 l 298 661 q 256 432 286 585 l 241 351 l 224 230 q 209 136 218 179 q 199 66 199 94 q 208 49 199 58 q 252 35 224 42 q 292 26 265 31 q 364 9 296 26 l 358 -14 q 301 -7 342 -11 q 168 3 206 3 q 123 1 151 3 q 24 -2 45 -2 q -14 -1 12 -2 l -14 23 m 928 1113 l 939 1113 q 939 1095 939 1103 q 906 1009 939 1044 q 828 974 873 974 q 783 983 806 974 q 708 1026 759 993 q 627 1059 658 1059 q 587 1040 604 1059 q 565 974 570 1021 l 553 974 l 553 981 q 585 1077 553 1042 q 663 1112 617 1112 q 764 1075 705 1112 q 836 1031 823 1037 q 865 1024 854 1024 q 904 1043 886 1024 q 928 1113 922 1062 z "},"":{"ha":941,"x_min":113,"x_max":937,"o":"m 113 393 q 141 536 113 463 q 214 688 169 610 q 316 802 229 715 q 437 873 345 830 q 534 895 475 891 q 573 899 549 896 q 613 901 596 901 q 859 768 753 901 q 937 498 937 670 q 912 360 937 439 q 839 212 887 281 q 727 88 791 144 q 593 6 664 32 q 453 -19 523 -19 q 293 26 365 -19 q 176 146 220 72 q 113 393 113 250 m 313 68 q 353 38 336 47 q 425 12 370 30 q 465 9 439 8 l 493 11 q 593 44 568 28 q 673 117 635 69 q 758 260 724 182 q 807 395 791 339 q 829 539 829 473 q 814 657 829 600 q 790 732 800 714 q 737 808 766 779 q 670 854 708 837 q 589 871 632 871 q 453 836 518 871 q 343 740 389 800 q 256 562 297 680 q 214 346 214 444 q 246 162 214 242 q 313 68 262 121 m 443 1038 q 459 1076 443 1059 q 498 1092 475 1092 q 537 1076 521 1092 q 553 1037 553 1060 q 536 998 553 1014 q 498 981 520 981 q 459 998 475 981 q 443 1038 443 1014 m 724 1091 q 764 1075 747 1091 q 780 1036 780 1059 q 764 997 780 1013 q 724 981 747 981 q 685 997 701 981 q 669 1038 669 1013 q 685 1075 669 1059 q 724 1091 701 1091 z "},"":{"ha":998,"x_min":161,"x_max":1089,"o":"m 161 851 l 171 887 q 207 882 196 882 l 328 879 q 456 886 372 879 q 509 889 468 888 q 511 870 511 876 q 510 859 511 867 q 447 849 500 857 q 387 837 394 842 q 380 829 382 833 q 347 687 364 795 l 300 406 q 280 224 280 276 q 288 157 280 199 q 309 104 294 127 q 358 53 329 74 q 500 14 435 14 q 569 18 544 14 q 707 63 661 36 q 781 132 753 90 q 834 264 810 174 q 884 551 852 329 q 907 777 907 704 q 884 829 907 806 q 814 857 862 851 q 773 863 789 860 l 772 868 q 776 891 772 876 q 964 884 867 884 q 1046 888 998 884 l 1059 888 l 1088 888 l 1089 862 q 1048 854 1080 860 q 990 836 1006 846 q 962 804 973 825 q 937 713 943 772 l 907 484 q 867 269 894 382 q 816 129 848 188 q 749 52 795 92 q 652 0 715 22 q 503 -21 589 -21 q 456 -18 491 -21 q 334 6 392 -16 q 246 56 276 28 q 197 130 216 84 q 177 239 177 176 q 192 382 177 312 q 233 608 208 452 l 265 788 q 267 812 267 802 q 258 830 267 823 q 202 844 249 837 q 161 851 172 848 m 515 1038 q 531 1076 515 1059 q 570 1092 547 1092 q 609 1076 593 1092 q 625 1037 625 1060 q 608 998 625 1014 q 570 981 592 981 q 531 998 547 981 q 515 1038 515 1014 m 796 1091 q 836 1075 819 1091 q 852 1036 852 1059 q 836 997 852 1013 q 796 981 819 981 q 757 997 773 981 q 741 1038 741 1013 q 757 1075 741 1059 q 796 1091 773 1091 z "},"":{"ha":564,"x_min":53,"x_max":617,"o":"m 515 491 q 524 509 522 503 q 540 536 532 530 q 568 538 559 538 q 590 533 579 538 l 592 525 q 589 513 592 521 q 580 487 587 509 l 574 473 l 530 352 q 480 221 501 270 q 443 122 458 172 q 414 50 427 71 l 412 43 q 419 32 412 39 q 471 68 450 49 q 535 132 525 119 q 549 148 543 140 q 564 134 557 141 q 500 62 545 107 q 420 -3 456 16 q 368 -17 392 -17 q 344 -10 352 -17 q 336 7 336 -3 q 343 43 336 17 q 367 102 360 87 q 385 146 374 116 q 413 210 392 164 q 381 172 400 197 q 255 41 326 102 q 176 -5 239 26 q 122 -16 153 -14 q 87 -11 96 -16 q 60 17 71 -2 q 53 61 53 31 q 72 157 53 104 q 138 291 104 248 q 251 410 195 366 q 353 475 307 454 q 460 502 415 502 q 489 499 475 502 q 515 491 503 496 m 192 46 q 220 58 208 50 q 273 95 228 62 q 367 191 356 178 q 420 263 391 217 q 455 327 429 275 l 473 374 q 482 421 482 415 q 467 457 482 440 q 433 467 456 467 q 388 458 407 467 q 310 407 345 438 q 218 297 262 364 q 156 186 174 231 q 131 94 131 124 q 141 56 131 68 q 167 44 151 44 q 192 46 172 44 m 404 640 l 392 640 q 450 723 393 644 q 514 811 507 803 q 552 843 532 832 q 581 850 566 850 q 607 841 597 850 q 617 819 617 831 q 562 751 617 789 l 404 640 z "},"":{"ha":564,"x_min":53,"x_max":619,"o":"m 515 491 q 524 509 522 503 q 540 536 532 530 q 568 538 559 538 q 590 533 579 538 l 592 525 q 589 513 592 521 q 580 487 587 509 l 574 473 l 530 352 q 480 221 501 270 q 443 122 458 172 q 414 50 427 71 l 412 43 q 419 32 412 39 q 471 68 450 49 q 535 132 525 119 q 549 148 543 140 q 564 134 557 141 q 500 62 545 107 q 420 -3 456 16 q 368 -17 392 -17 q 344 -10 352 -17 q 336 7 336 -3 q 343 43 336 17 q 367 102 360 87 q 385 146 374 116 q 413 210 392 164 q 381 172 400 197 q 255 41 326 102 q 176 -5 239 26 q 122 -16 153 -14 q 87 -11 96 -16 q 60 17 71 -2 q 53 61 53 31 q 72 157 53 104 q 138 291 104 248 q 251 410 195 366 q 353 475 307 454 q 460 502 415 502 q 489 499 475 502 q 515 491 503 496 m 192 46 q 220 58 208 50 q 273 95 228 62 q 367 191 356 178 q 420 263 391 217 q 455 327 429 275 l 473 374 q 482 421 482 415 q 467 457 482 440 q 433 467 456 467 q 388 458 407 467 q 310 407 345 438 q 218 297 262 364 q 156 186 174 231 q 131 94 131 124 q 141 56 131 68 q 167 44 151 44 q 192 46 172 44 m 619 641 l 607 641 q 412 779 432 759 q 393 819 393 800 q 402 842 393 833 q 427 850 412 850 q 464 838 445 850 q 528 766 484 825 q 619 641 595 679 z "},"":{"ha":564,"x_min":53,"x_max":597,"o":"m 515 491 q 524 509 522 503 q 540 536 532 530 q 568 538 559 538 q 590 533 579 538 l 592 525 q 589 513 592 521 q 580 487 587 509 l 574 473 l 530 352 q 480 221 501 270 q 443 122 458 172 q 414 50 427 71 l 412 43 q 419 32 412 39 q 471 68 450 49 q 535 132 525 119 q 549 148 543 140 q 564 134 557 141 q 500 62 545 107 q 420 -3 456 16 q 368 -17 392 -17 q 344 -10 352 -17 q 336 7 336 -3 q 343 43 336 17 q 367 102 360 87 q 385 146 374 116 q 413 210 392 164 q 381 172 400 197 q 255 41 326 102 q 176 -5 239 26 q 122 -16 153 -14 q 87 -11 96 -16 q 60 17 71 -2 q 53 61 53 31 q 72 157 53 104 q 138 291 104 248 q 251 410 195 366 q 353 475 307 454 q 460 502 415 502 q 489 499 475 502 q 515 491 503 496 m 192 46 q 220 58 208 50 q 273 95 228 62 q 367 191 356 178 q 420 263 391 217 q 455 327 429 275 l 473 374 q 482 421 482 415 q 467 457 482 440 q 433 467 456 467 q 388 458 407 467 q 310 407 345 438 q 218 297 262 364 q 156 186 174 231 q 131 94 131 124 q 141 56 131 68 q 167 44 151 44 q 192 46 172 44 m 282 613 q 361 691 294 627 l 545 864 l 583 865 l 597 612 l 583 611 q 564 671 581 616 l 537 759 q 531 777 534 769 l 303 614 l 282 613 z "},"":{"ha":564,"x_min":53,"x_max":688,"o":"m 515 491 q 524 509 522 503 q 540 536 532 530 q 568 538 559 538 q 590 533 579 538 l 592 525 q 589 513 592 521 q 580 487 587 509 l 574 473 l 530 352 q 480 221 501 270 q 443 122 458 172 q 414 50 427 71 l 412 43 q 419 32 412 39 q 471 68 450 49 q 535 132 525 119 q 549 148 543 140 q 564 134 557 141 q 500 62 545 107 q 420 -3 456 16 q 368 -17 392 -17 q 344 -10 352 -17 q 336 7 336 -3 q 343 43 336 17 q 367 102 360 87 q 385 146 374 116 q 413 210 392 164 q 381 172 400 197 q 255 41 326 102 q 176 -5 239 26 q 122 -16 153 -14 q 87 -11 96 -16 q 60 17 71 -2 q 53 61 53 31 q 72 157 53 104 q 138 291 104 248 q 251 410 195 366 q 353 475 307 454 q 460 502 415 502 q 489 499 475 502 q 515 491 503 496 m 192 46 q 220 58 208 50 q 273 95 228 62 q 367 191 356 178 q 420 263 391 217 q 455 327 429 275 l 473 374 q 482 421 482 415 q 467 457 482 440 q 433 467 456 467 q 388 458 407 467 q 310 407 345 438 q 218 297 262 364 q 156 186 174 231 q 131 94 131 124 q 141 56 131 68 q 167 44 151 44 q 192 46 172 44 m 351 744 q 367 782 351 766 q 406 798 383 798 q 445 782 429 798 q 461 743 461 766 q 445 704 461 720 q 406 688 429 688 q 368 704 384 688 q 351 744 351 720 m 633 798 q 672 781 656 798 q 688 743 688 765 q 672 703 688 720 q 633 687 656 687 q 594 703 610 687 q 578 744 578 720 q 594 782 578 766 q 633 798 610 798 z "},"":{"ha":564,"x_min":53,"x_max":662,"o":"m 515 491 q 524 509 522 503 q 540 536 532 530 q 568 538 559 538 q 590 533 579 538 l 592 525 q 589 513 592 521 q 580 487 587 509 l 574 473 l 530 352 q 480 221 501 270 q 443 122 458 172 q 414 50 427 71 l 412 43 q 419 32 412 39 q 471 68 450 49 q 535 132 525 119 q 549 148 543 140 q 564 134 557 141 q 500 62 545 107 q 420 -3 456 16 q 368 -17 392 -17 q 344 -10 352 -17 q 336 7 336 -3 q 343 43 336 17 q 367 102 360 87 q 385 146 374 116 q 413 210 392 164 q 381 172 400 197 q 255 41 326 102 q 176 -5 239 26 q 122 -16 153 -14 q 87 -11 96 -16 q 60 17 71 -2 q 53 61 53 31 q 72 157 53 104 q 138 291 104 248 q 251 410 195 366 q 353 475 307 454 q 460 502 415 502 q 489 499 475 502 q 515 491 503 496 m 192 46 q 220 58 208 50 q 273 95 228 62 q 367 191 356 178 q 420 263 391 217 q 455 327 429 275 l 473 374 q 482 421 482 415 q 467 457 482 440 q 433 467 456 467 q 388 458 407 467 q 310 407 345 438 q 218 297 262 364 q 156 186 174 231 q 131 94 131 124 q 141 56 131 68 q 167 44 151 44 q 192 46 172 44 m 651 819 l 661 819 q 662 801 662 808 q 629 714 662 749 q 551 680 595 680 q 505 689 529 680 q 431 732 481 699 q 349 765 380 765 q 310 746 327 765 q 288 680 292 727 l 275 680 l 275 686 q 308 783 275 748 q 385 818 340 818 q 487 780 428 818 q 558 737 545 743 q 587 730 576 730 q 627 749 609 730 q 651 819 644 768 z "},"":{"ha":564,"x_min":53,"x_max":592,"o":"m 515 491 q 524 509 522 503 q 540 536 532 530 q 568 538 559 538 q 590 533 579 538 l 592 525 q 589 513 592 521 q 580 487 587 509 l 574 473 l 530 352 q 480 221 501 270 q 443 122 458 172 q 414 50 427 71 l 412 43 q 419 32 412 39 q 471 68 450 49 q 535 132 525 119 q 549 148 543 140 q 564 134 557 141 q 500 62 545 107 q 420 -3 456 16 q 368 -17 392 -17 q 344 -10 352 -17 q 336 7 336 -3 q 343 43 336 17 q 367 102 360 87 q 385 146 374 116 q 413 210 392 164 q 381 172 400 197 q 255 41 326 102 q 176 -5 239 26 q 122 -16 153 -14 q 87 -11 96 -16 q 60 17 71 -2 q 53 61 53 31 q 72 157 53 104 q 138 291 104 248 q 251 410 195 366 q 353 475 307 454 q 460 502 415 502 q 489 499 475 502 q 515 491 503 496 m 192 46 q 220 58 208 50 q 273 95 228 62 q 367 191 356 178 q 420 263 391 217 q 455 327 429 275 l 473 374 q 482 421 482 415 q 467 457 482 440 q 433 467 456 467 q 388 458 407 467 q 310 407 345 438 q 218 297 262 364 q 156 186 174 231 q 131 94 131 124 q 141 56 131 68 q 167 44 151 44 q 192 46 172 44 m 368 742 q 400 823 368 789 q 480 856 433 856 q 559 823 526 856 q 592 743 592 790 q 559 664 592 697 q 480 631 526 631 q 400 663 433 631 q 368 742 368 696 m 480 661 q 539 685 515 661 q 563 743 563 709 q 538 802 563 777 q 480 826 514 826 q 422 802 446 826 q 398 743 398 778 q 422 685 398 709 q 480 661 446 661 z "},"":{"ha":376,"x_min":-11,"x_max":465,"o":"m 408 435 q 392 450 397 443 q 379 476 389 454 q 365 502 370 497 q 348 509 357 509 q 297 480 324 509 q 196 303 247 427 q 144 98 144 180 q 153 56 144 68 q 173 47 160 47 q 231 75 199 47 q 318 181 274 113 q 338 184 331 184 l 348 183 q 310 119 345 171 q 216 15 259 44 q 138 -15 174 -15 q 90 7 106 -15 q 67 100 67 37 q 93 232 67 154 q 170 382 119 310 q 253 487 221 455 q 332 541 286 518 q 392 556 364 556 q 443 531 420 556 q 465 473 465 507 q 454 442 465 453 q 429 431 444 431 q 408 435 420 431 m 71 -123 q 81 -97 74 -112 q 128 10 88 -83 l 146 9 q 130 -34 141 -9 q 113 -77 118 -58 l 114 -86 q 132 -109 117 -92 q 162 -193 162 -142 q 130 -277 162 -243 q 47 -310 97 -310 q 0 -298 16 -310 q -11 -274 -11 -290 q -5 -254 -11 -262 q 7 -247 1 -247 q 26 -258 15 -247 q 71 -281 51 -281 q 110 -262 92 -281 q 127 -216 127 -243 q 94 -153 127 -177 q 73 -135 77 -140 q 71 -123 71 -132 z "},"":{"ha":405,"x_min":71,"x_max":532,"o":"m 164 245 q 142 120 142 183 q 163 46 142 74 q 202 27 178 27 q 229 33 217 27 q 272 64 254 46 q 309 110 290 81 q 341 174 329 138 l 351 174 q 369 172 359 174 q 269 23 349 96 q 165 -22 218 -22 q 104 10 129 -22 q 71 128 71 53 q 80 206 71 161 q 103 282 90 252 q 149 372 123 330 l 201 448 q 258 507 252 502 q 306 538 281 528 q 355 549 330 549 q 414 521 389 549 q 439 451 439 493 q 419 377 439 414 q 378 324 400 341 l 321 288 q 271 270 312 283 q 164 245 229 258 m 176 279 q 243 296 197 278 q 310 333 269 305 q 347 370 326 344 q 379 424 368 396 q 390 482 390 452 q 378 515 390 502 q 353 528 367 528 q 309 507 334 528 q 221 384 267 470 q 176 279 186 318 m 319 640 l 307 640 q 365 723 308 644 q 429 811 421 803 q 467 843 447 832 q 495 850 480 850 q 522 841 512 850 q 532 819 532 831 q 476 751 532 789 l 319 640 z "},"":{"ha":405,"x_min":71,"x_max":466,"o":"m 164 245 q 142 120 142 183 q 163 46 142 74 q 202 27 178 27 q 229 33 217 27 q 272 64 254 46 q 309 110 290 81 q 341 174 329 138 l 351 174 q 369 172 359 174 q 269 23 349 96 q 165 -22 218 -22 q 104 10 129 -22 q 71 128 71 53 q 80 206 71 161 q 103 282 90 252 q 149 372 123 330 l 201 448 q 258 507 252 502 q 306 538 281 528 q 355 549 330 549 q 414 521 389 549 q 439 451 439 493 q 419 377 439 414 q 378 324 400 341 l 321 288 q 271 270 312 283 q 164 245 229 258 m 176 279 q 243 296 197 278 q 310 333 269 305 q 347 370 326 344 q 379 424 368 396 q 390 482 390 452 q 378 515 390 502 q 353 528 367 528 q 309 507 334 528 q 221 384 267 470 q 176 279 186 318 m 466 641 l 454 641 q 259 779 279 759 q 239 819 239 800 q 249 842 239 833 q 273 850 258 850 q 311 838 292 850 q 375 766 330 825 q 466 641 441 679 z "},"":{"ha":405,"x_min":71,"x_max":511,"o":"m 164 245 q 142 120 142 183 q 163 46 142 74 q 202 27 178 27 q 229 33 217 27 q 272 64 254 46 q 309 110 290 81 q 341 174 329 138 l 351 174 q 369 172 359 174 q 269 23 349 96 q 165 -22 218 -22 q 104 10 129 -22 q 71 128 71 53 q 80 206 71 161 q 103 282 90 252 q 149 372 123 330 l 201 448 q 258 507 252 502 q 306 538 281 528 q 355 549 330 549 q 414 521 389 549 q 439 451 439 493 q 419 377 439 414 q 378 324 400 341 l 321 288 q 271 270 312 283 q 164 245 229 258 m 176 279 q 243 296 197 278 q 310 333 269 305 q 347 370 326 344 q 379 424 368 396 q 390 482 390 452 q 378 515 390 502 q 353 528 367 528 q 309 507 334 528 q 221 384 267 470 q 176 279 186 318 m 196 613 q 275 691 208 627 l 458 864 l 497 865 l 511 612 l 496 611 q 477 671 494 616 l 451 759 q 445 777 448 769 l 217 614 l 196 613 z "},"":{"ha":405,"x_min":71,"x_max":555,"o":"m 164 245 q 142 120 142 183 q 163 46 142 74 q 202 27 178 27 q 229 33 217 27 q 272 64 254 46 q 309 110 290 81 q 341 174 329 138 l 351 174 q 369 172 359 174 q 269 23 349 96 q 165 -22 218 -22 q 104 10 129 -22 q 71 128 71 53 q 80 206 71 161 q 103 282 90 252 q 149 372 123 330 l 201 448 q 258 507 252 502 q 306 538 281 528 q 355 549 330 549 q 414 521 389 549 q 439 451 439 493 q 419 377 439 414 q 378 324 400 341 l 321 288 q 271 270 312 283 q 164 245 229 258 m 176 279 q 243 296 197 278 q 310 333 269 305 q 347 370 326 344 q 379 424 368 396 q 390 482 390 452 q 378 515 390 502 q 353 528 367 528 q 309 507 334 528 q 221 384 267 470 q 176 279 186 318 m 218 744 q 234 782 218 766 q 273 798 250 798 q 312 782 296 798 q 328 743 328 766 q 312 704 328 720 q 273 688 296 688 q 235 704 251 688 q 218 744 218 720 m 500 798 q 539 781 523 798 q 555 743 555 765 q 539 703 555 720 q 500 687 523 687 q 461 703 477 687 q 445 744 445 720 q 461 782 445 766 q 500 798 477 798 z "},"":{"ha":318,"x_min":53,"x_max":485,"o":"m 261 502 q 140 412 208 488 l 103 406 q 212 510 144 467 q 321 553 279 553 q 341 545 333 553 q 349 525 349 537 q 347 510 349 517 q 328 456 345 503 q 246 287 318 429 l 148 106 q 133 73 136 83 q 130 47 130 62 q 138 43 134 43 q 186 66 161 43 q 277 167 254 127 q 303 165 289 167 q 245 83 284 130 q 164 12 206 36 q 94 -13 123 -13 q 64 -3 75 -13 q 53 18 53 7 q 130 216 53 75 q 245 429 223 382 q 261 460 256 450 q 271 482 271 475 q 261 502 271 488 m 272 640 l 260 640 q 318 723 261 644 q 382 811 374 803 q 420 843 400 832 q 448 850 433 850 q 475 841 465 850 q 485 819 485 831 q 429 751 485 789 l 272 640 z "},"":{"ha":318,"x_min":53,"x_max":420,"o":"m 261 502 q 140 412 208 488 l 103 406 q 212 510 144 467 q 321 553 279 553 q 341 545 333 553 q 349 525 349 537 q 347 510 349 517 q 328 456 345 503 q 246 287 318 429 l 148 106 q 133 73 136 83 q 130 47 130 62 q 138 43 134 43 q 186 66 161 43 q 277 167 254 127 q 303 165 289 167 q 245 83 284 130 q 164 12 206 36 q 94 -13 123 -13 q 64 -3 75 -13 q 53 18 53 7 q 130 216 53 75 q 245 429 223 382 q 261 460 256 450 q 271 482 271 475 q 261 502 271 488 m 420 641 l 408 641 q 213 779 233 759 q 193 819 193 800 q 203 842 193 833 q 227 850 212 850 q 265 838 245 850 q 329 766 284 825 q 420 641 395 679 z "},"":{"ha":318,"x_min":53,"x_max":474,"o":"m 261 502 q 140 412 208 488 l 103 406 q 212 510 144 467 q 321 553 279 553 q 341 545 333 553 q 349 525 349 537 q 347 510 349 517 q 328 456 345 503 q 246 287 318 429 l 148 106 q 133 73 136 83 q 130 47 130 62 q 138 43 134 43 q 186 66 161 43 q 277 167 254 127 q 303 165 289 167 q 245 83 284 130 q 164 12 206 36 q 94 -13 123 -13 q 64 -3 75 -13 q 53 18 53 7 q 130 216 53 75 q 245 429 223 382 q 261 460 256 450 q 271 482 271 475 q 261 502 271 488 m 159 613 q 239 691 171 627 l 422 864 l 460 865 l 474 612 l 460 611 q 441 671 458 616 l 414 759 q 408 777 412 769 l 180 614 l 159 613 z "},"":{"ha":318,"x_min":53,"x_max":526,"o":"m 261 502 q 140 412 208 488 l 103 406 q 212 510 144 467 q 321 553 279 553 q 341 545 333 553 q 349 525 349 537 q 347 510 349 517 q 328 456 345 503 q 246 287 318 429 l 148 106 q 133 73 136 83 q 130 47 130 62 q 138 43 134 43 q 186 66 161 43 q 277 167 254 127 q 303 165 289 167 q 245 83 284 130 q 164 12 206 36 q 94 -13 123 -13 q 64 -3 75 -13 q 53 18 53 7 q 130 216 53 75 q 245 429 223 382 q 261 460 256 450 q 271 482 271 475 q 261 502 271 488 m 189 744 q 204 782 189 766 q 243 798 220 798 q 282 782 267 798 q 298 743 298 766 q 282 704 298 720 q 243 688 266 688 q 205 704 221 688 q 189 744 189 720 m 470 798 q 509 781 493 798 q 526 743 526 765 q 509 703 526 720 q 470 687 493 687 q 431 703 447 687 q 415 744 415 720 q 431 782 415 766 q 470 798 447 798 z "},"":{"ha":593,"x_min":63,"x_max":745,"o":"m 245 470 q 242 477 244 475 q 236 479 239 479 q 126 368 201 479 q 115 368 119 368 q 102 368 111 368 q 148 440 116 397 q 217 512 180 484 q 286 555 253 541 q 305 560 296 560 q 315 559 309 560 q 328 534 328 547 q 326 518 328 526 q 319 493 324 510 q 289 411 298 435 l 250 311 q 224 237 237 276 q 233 250 229 244 q 369 427 296 342 q 490 540 442 511 q 554 561 524 561 q 590 548 577 561 q 603 516 603 536 q 600 492 603 504 q 579 420 595 467 q 494 220 563 374 l 426 64 l 423 55 q 428 43 423 51 q 542 163 466 51 l 570 163 q 500 65 549 125 q 420 -5 463 20 q 370 -20 397 -20 q 345 -13 353 -20 q 337 2 337 -6 q 372 113 337 38 l 470 328 l 508 418 q 524 460 521 448 q 526 483 526 471 q 522 497 526 492 q 509 502 517 502 q 484 493 498 502 q 374 391 434 463 q 258 241 287 286 q 134 11 187 128 q 115 -17 126 -8 q 93 -19 100 -19 q 66 -16 84 -19 q 63 -7 63 -10 q 70 18 63 -1 q 143 203 85 62 l 159 240 l 245 470 m 734 819 l 744 819 q 745 801 745 808 q 711 714 745 749 q 633 680 678 680 q 588 689 612 680 q 514 732 564 699 q 432 765 463 765 q 392 746 410 765 q 370 680 375 727 l 358 680 l 358 686 q 390 783 358 748 q 468 818 422 818 q 569 780 511 818 q 641 737 628 743 q 670 730 659 730 q 709 749 692 730 q 734 819 727 768 z "},"":{"ha":492,"x_min":77,"x_max":578,"o":"m 493 385 q 398 106 493 228 q 200 -16 302 -16 q 111 25 145 -16 q 77 153 77 66 q 104 289 77 212 q 172 417 130 366 q 194 445 182 429 q 279 524 230 492 q 380 555 329 555 q 460 516 428 555 q 493 385 493 476 m 140 77 q 155 31 140 45 q 202 16 170 16 q 267 47 234 16 q 383 243 325 104 q 441 462 441 382 q 427 507 441 490 q 395 524 413 524 q 311 477 355 524 q 184 260 237 398 q 140 77 140 147 m 366 640 l 353 640 q 411 723 355 644 q 475 811 468 803 q 513 843 494 832 q 542 850 527 850 q 569 841 559 850 q 578 819 578 831 q 523 751 578 789 l 366 640 z "},"":{"ha":492,"x_min":77,"x_max":513,"o":"m 493 385 q 398 106 493 228 q 200 -16 302 -16 q 111 25 145 -16 q 77 153 77 66 q 104 289 77 212 q 172 417 130 366 q 194 445 182 429 q 279 524 230 492 q 380 555 329 555 q 460 516 428 555 q 493 385 493 476 m 140 77 q 155 31 140 45 q 202 16 170 16 q 267 47 234 16 q 383 243 325 104 q 441 462 441 382 q 427 507 441 490 q 395 524 413 524 q 311 477 355 524 q 184 260 237 398 q 140 77 140 147 m 513 641 l 500 641 q 306 779 326 759 q 286 819 286 800 q 296 842 286 833 q 320 850 305 850 q 358 838 338 850 q 422 766 377 825 q 513 641 488 679 z "},"":{"ha":492,"x_min":77,"x_max":558,"o":"m 493 385 q 398 106 493 228 q 200 -16 302 -16 q 111 25 145 -16 q 77 153 77 66 q 104 289 77 212 q 172 417 130 366 q 194 445 182 429 q 279 524 230 492 q 380 555 329 555 q 460 516 428 555 q 493 385 493 476 m 140 77 q 155 31 140 45 q 202 16 170 16 q 267 47 234 16 q 383 243 325 104 q 441 462 441 382 q 427 507 441 490 q 395 524 413 524 q 311 477 355 524 q 184 260 237 398 q 140 77 140 147 m 243 613 q 323 691 255 627 l 506 864 l 545 865 l 558 612 l 544 611 q 525 671 542 616 l 498 759 q 492 777 496 769 l 264 614 l 243 613 z "},"":{"ha":492,"x_min":77,"x_max":602,"o":"m 493 385 q 398 106 493 228 q 200 -16 302 -16 q 111 25 145 -16 q 77 153 77 66 q 104 289 77 212 q 172 417 130 366 q 194 445 182 429 q 279 524 230 492 q 380 555 329 555 q 460 516 428 555 q 493 385 493 476 m 140 77 q 155 31 140 45 q 202 16 170 16 q 267 47 234 16 q 383 243 325 104 q 441 462 441 382 q 427 507 441 490 q 395 524 413 524 q 311 477 355 524 q 184 260 237 398 q 140 77 140 147 m 265 744 q 281 782 265 766 q 320 798 297 798 q 359 782 343 798 q 375 743 375 766 q 359 704 375 720 q 320 688 342 688 q 281 704 298 688 q 265 744 265 720 m 547 798 q 586 781 570 798 q 602 743 602 765 q 586 703 602 720 q 547 687 570 687 q 508 703 524 687 q 492 744 492 720 q 508 782 492 766 q 547 798 524 798 z "},"":{"ha":492,"x_min":77,"x_max":623,"o":"m 493 385 q 398 106 493 228 q 200 -16 302 -16 q 111 25 145 -16 q 77 153 77 66 q 104 289 77 212 q 172 417 130 366 q 194 445 182 429 q 279 524 230 492 q 380 555 329 555 q 460 516 428 555 q 493 385 493 476 m 140 77 q 155 31 140 45 q 202 16 170 16 q 267 47 234 16 q 383 243 325 104 q 441 462 441 382 q 427 507 441 490 q 395 524 413 524 q 311 477 355 524 q 184 260 237 398 q 140 77 140 147 m 612 819 l 622 819 q 623 801 623 808 q 589 714 623 749 q 511 680 556 680 q 466 689 490 680 q 392 732 442 699 q 310 765 341 765 q 270 746 288 765 q 248 680 253 727 l 236 680 l 236 686 q 268 783 236 748 q 346 818 300 818 q 447 780 389 818 q 519 737 506 743 q 548 730 537 730 q 587 749 570 730 q 612 819 605 768 z "},"":{"ha":593,"x_min":53,"x_max":633,"o":"m 268 496 q 205 444 245 487 q 155 397 178 422 q 132 373 140 380 l 111 378 q 174 454 121 398 q 280 541 226 510 q 328 557 307 557 q 351 547 341 557 q 360 527 360 538 q 349 488 360 513 q 338 465 347 484 q 220 223 308 394 q 144 57 144 77 l 145 53 q 193 81 163 56 q 327 208 281 157 q 358 240 333 214 q 486 394 435 320 q 573 554 517 438 q 605 556 592 556 q 629 545 621 556 q 575 406 614 503 l 449 91 q 434 46 437 66 l 439 45 q 461 61 444 45 q 527 133 500 96 q 548 159 539 150 l 570 156 q 460 22 537 94 q 393 -18 417 -18 q 370 -14 384 -18 q 357 11 357 -1 q 385 110 357 45 l 481 333 q 486 347 485 340 q 433 286 474 333 q 265 106 335 172 q 114 -5 195 41 q 75 -16 94 -16 q 59 -9 66 -16 q 53 9 53 -3 q 58 37 53 20 q 96 125 68 71 l 212 353 l 260 454 q 273 484 273 475 q 268 496 273 488 m 420 640 l 408 640 q 466 723 409 644 q 530 811 522 803 q 568 843 548 832 q 596 850 581 850 q 623 841 613 850 q 633 819 633 831 q 577 751 633 789 l 420 640 z "},"":{"ha":593,"x_min":53,"x_max":629,"o":"m 268 496 q 205 444 245 487 q 155 397 178 422 q 132 373 140 380 l 111 378 q 174 454 121 398 q 280 541 226 510 q 328 557 307 557 q 351 547 341 557 q 360 527 360 538 q 349 488 360 513 q 338 465 347 484 q 220 223 308 394 q 144 57 144 77 l 145 53 q 193 81 163 56 q 327 208 281 157 q 358 240 333 214 q 486 394 435 320 q 573 554 517 438 q 605 556 592 556 q 629 545 621 556 q 575 406 614 503 l 449 91 q 434 46 437 66 l 439 45 q 461 61 444 45 q 527 133 500 96 q 548 159 539 150 l 570 156 q 460 22 537 94 q 393 -18 417 -18 q 370 -14 384 -18 q 357 11 357 -1 q 385 110 357 45 l 481 333 q 486 347 485 340 q 433 286 474 333 q 265 106 335 172 q 114 -5 195 41 q 75 -16 94 -16 q 59 -9 66 -16 q 53 9 53 -3 q 58 37 53 20 q 96 125 68 71 l 212 353 l 260 454 q 273 484 273 475 q 268 496 273 488 m 567 641 l 555 641 q 360 779 380 759 q 340 819 340 800 q 350 842 340 833 q 374 850 359 850 q 412 838 393 850 q 476 766 431 825 q 567 641 543 679 z "},"":{"ha":593,"x_min":53,"x_max":629,"o":"m 268 496 q 205 444 245 487 q 155 397 178 422 q 132 373 140 380 l 111 378 q 174 454 121 398 q 280 541 226 510 q 328 557 307 557 q 351 547 341 557 q 360 527 360 538 q 349 488 360 513 q 338 465 347 484 q 220 223 308 394 q 144 57 144 77 l 145 53 q 193 81 163 56 q 327 208 281 157 q 358 240 333 214 q 486 394 435 320 q 573 554 517 438 q 605 556 592 556 q 629 545 621 556 q 575 406 614 503 l 449 91 q 434 46 437 66 l 439 45 q 461 61 444 45 q 527 133 500 96 q 548 159 539 150 l 570 156 q 460 22 537 94 q 393 -18 417 -18 q 370 -14 384 -18 q 357 11 357 -1 q 385 110 357 45 l 481 333 q 486 347 485 340 q 433 286 474 333 q 265 106 335 172 q 114 -5 195 41 q 75 -16 94 -16 q 59 -9 66 -16 q 53 9 53 -3 q 58 37 53 20 q 96 125 68 71 l 212 353 l 260 454 q 273 484 273 475 q 268 496 273 488 m 298 613 q 377 691 309 627 l 560 864 l 599 865 l 612 612 l 598 611 q 579 671 596 616 l 553 759 q 547 777 550 769 l 319 614 l 298 613 z "},"":{"ha":593,"x_min":53,"x_max":656,"o":"m 268 496 q 205 444 245 487 q 155 397 178 422 q 132 373 140 380 l 111 378 q 174 454 121 398 q 280 541 226 510 q 328 557 307 557 q 351 547 341 557 q 360 527 360 538 q 349 488 360 513 q 338 465 347 484 q 220 223 308 394 q 144 57 144 77 l 145 53 q 193 81 163 56 q 327 208 281 157 q 358 240 333 214 q 486 394 435 320 q 573 554 517 438 q 605 556 592 556 q 629 545 621 556 q 575 406 614 503 l 449 91 q 434 46 437 66 l 439 45 q 461 61 444 45 q 527 133 500 96 q 548 159 539 150 l 570 156 q 460 22 537 94 q 393 -18 417 -18 q 370 -14 384 -18 q 357 11 357 -1 q 385 110 357 45 l 481 333 q 486 347 485 340 q 433 286 474 333 q 265 106 335 172 q 114 -5 195 41 q 75 -16 94 -16 q 59 -9 66 -16 q 53 9 53 -3 q 58 37 53 20 q 96 125 68 71 l 212 353 l 260 454 q 273 484 273 475 q 268 496 273 488 m 319 744 q 335 782 319 766 q 374 798 351 798 q 413 782 397 798 q 429 743 429 766 q 413 704 429 720 q 374 688 397 688 q 336 704 352 688 q 319 744 319 720 m 601 798 q 640 781 624 798 q 656 743 656 765 q 640 703 656 720 q 601 687 624 687 q 562 703 578 687 q 546 744 546 720 q 562 782 546 766 q 601 798 578 798 z "},"":{"ha":608,"x_min":118,"x_max":693,"o":"m 398 579 q 410 671 410 623 q 409 716 410 686 q 408 757 408 747 q 432 863 408 832 q 491 895 456 895 q 534 875 516 895 q 551 827 551 856 q 537 770 551 802 q 477 676 523 738 q 424 579 431 615 l 436 579 q 532 600 467 579 q 628 620 597 620 q 674 602 655 620 q 693 562 693 585 q 673 519 693 538 q 624 500 652 500 q 594 504 607 500 l 512 533 q 422 555 446 555 l 416 555 q 409 500 409 526 q 434 401 409 448 q 287 68 358 270 l 259 -10 l 155 -336 l 130 -336 l 213 -50 q 270 193 251 82 q 289 375 289 303 q 288 401 289 381 l 336 456 q 374 514 359 486 q 391 555 385 534 q 348 551 368 555 q 283 528 328 546 q 182 502 216 502 q 137 520 157 502 q 118 559 118 538 q 138 603 118 584 q 190 621 157 621 q 221 618 208 621 q 275 602 227 617 q 340 583 323 587 q 387 579 365 579 l 398 579 z "},"":{"ha":550,"x_min":144,"x_max":562,"o":"m 353 942 q 501 881 440 942 q 562 734 562 821 q 500 587 562 648 q 353 526 439 526 q 205 587 267 526 q 144 734 144 648 q 205 881 144 821 q 353 942 266 942 m 353 886 q 245 841 290 886 q 201 734 201 797 q 245 627 201 671 q 353 583 290 583 q 459 627 415 583 q 504 734 504 671 q 460 841 504 797 q 353 886 416 886 z "},"":{"ha":420,"x_min":-10,"x_max":488,"o":"m -10 -168 l 72 -7 q 22 35 40 5 q 3 113 3 64 q 43 260 3 174 q 133 400 73 326 q 269 522 193 474 q 361 557 317 552 l 458 743 l 488 743 q 476 718 482 729 q 427 622 461 690 l 393 555 q 446 523 430 543 q 462 479 462 503 q 450 447 462 460 q 421 434 437 434 q 382 465 397 434 q 362 496 370 489 l 302 380 l 136 52 q 165 56 155 52 q 222 99 186 66 q 291 184 258 133 l 323 184 q 217 45 289 112 q 102 -9 163 -4 l 20 -168 l -10 -168 m 106 61 l 336 508 q 253 467 297 508 q 135 295 189 409 q 81 112 81 180 q 106 61 81 82 z "},"":{"ha":868,"x_min":44,"x_max":825,"o":"m 139 -186 q 149 -178 146 -181 q 176 -158 169 -166 l 201 -66 q 224 20 219 -5 q 242 97 227 39 q 61 105 150 105 q 57 121 57 115 l 58 129 q 86 132 73 132 l 109 132 q 250 134 203 132 l 289 299 q 351 503 304 353 q 361 532 357 524 q 376 574 370 556 q 460 742 400 660 q 579 856 520 825 q 707 880 624 880 q 799 861 772 880 q 825 821 825 842 q 813 785 825 799 q 785 772 801 772 q 763 777 774 772 q 728 806 755 781 q 685 838 701 831 q 640 849 663 849 q 598 842 613 849 q 559 808 583 835 q 508 729 536 782 q 473 644 489 693 q 434 504 444 558 q 426 469 431 487 l 376 279 l 357 208 q 342 140 348 179 q 518 132 486 136 q 511 110 517 122 q 506 97 509 106 l 361 95 q 327 93 342 95 l 298 20 q 212 -150 278 -27 q 231 -142 222 -146 q 250 -134 240 -138 l 256 -132 q 328 -120 313 -120 q 361 -125 341 -120 q 398 -139 382 -130 l 479 -192 q 551 -245 496 -202 l 581 -269 q 596 -275 587 -273 l 611 -275 q 677 -238 644 -275 q 711 -167 711 -202 q 695 -116 711 -145 q 680 -77 680 -86 q 694 -43 680 -59 q 720 -33 704 -33 q 750 -40 739 -33 q 771 -69 764 -50 q 779 -96 779 -88 q 769 -157 779 -111 q 732 -225 751 -203 q 644 -297 690 -274 q 544 -321 597 -321 q 493 -312 511 -321 q 433 -267 475 -304 q 329 -186 367 -206 q 256 -167 290 -167 q 235 -170 246 -167 q 211 -180 224 -174 q 188 -207 193 -198 q 172 -241 182 -215 q 126 -303 156 -280 q 77 -327 96 -327 q 52 -317 64 -327 q 44 -296 44 -309 q 56 -259 44 -279 q 95 -217 67 -239 q 139 -186 122 -194 z "},"":{"ha":608,"x_min":-6,"x_max":645,"o":"m 299 -242 q 140 -315 223 -315 q 47 -287 89 -315 q -6 -181 -6 -244 q 12 -121 -6 -144 q 45 -104 25 -104 q 81 -122 66 -104 q 97 -185 95 -140 q 108 -244 98 -229 q 153 -264 121 -264 q 222 -235 196 -264 q 248 -138 248 -205 q 221 63 248 -76 q 185 272 194 203 q 177 398 177 340 q 211 621 177 520 q 304 791 244 722 q 380 859 343 837 q 491 895 437 895 q 604 854 564 895 q 645 750 645 814 q 630 699 645 717 q 593 682 614 682 q 562 697 575 682 q 541 761 548 712 q 518 826 533 809 q 479 842 503 842 q 416 811 442 842 q 389 721 389 780 q 393 657 389 690 q 414 538 395 640 q 456 186 456 305 q 413 -56 456 58 q 299 -242 371 -170 m 279 -206 q 359 -73 326 -161 q 392 121 392 15 q 370 338 392 183 q 342 631 342 539 q 359 785 342 718 q 274 665 310 745 q 239 485 239 586 q 263 232 239 389 q 294 -55 294 35 q 279 -206 294 -157 z "},"":{"ha":492,"x_min":142,"x_max":482,"o":"m 312 629 q 432 579 382 629 q 482 459 482 530 q 432 339 482 389 q 312 289 382 289 q 192 339 241 289 q 142 459 142 389 q 191 579 142 530 q 312 629 241 629 z "},"":{"ha":622,"x_min":-9,"x_max":631,"o":"m 541 882 l 541 -300 l 492 -300 l 492 882 l 366 882 l 366 -300 l 316 -300 l 316 408 q 122 442 186 413 q 24 531 58 471 q -9 665 -9 591 q 20 787 -9 740 q 124 886 59 852 q 296 920 190 920 l 631 920 l 631 882 l 541 882 z "},"":{"ha":578,"x_min":-202,"x_max":748,"o":"m -185 -251 q -155 -240 -168 -240 q -122 -254 -135 -240 q -110 -294 -110 -267 q -111 -314 -110 -302 l -109 -319 q -94 -321 -105 -321 q -36 -303 -60 -321 q 11 -241 -11 -286 q 50 -127 42 -176 l 161 295 q 298 648 218 489 q 412 810 341 732 q 502 873 444 844 q 612 901 559 901 q 712 867 676 901 q 748 780 748 833 q 731 710 748 743 q 675 646 713 676 q 589 592 649 626 q 513 548 529 559 q 473 507 485 526 q 462 463 462 487 q 503 317 462 432 q 528 236 522 264 q 534 175 534 207 q 521 104 534 138 q 483 35 508 69 q 440 -2 468 16 q 385 -20 412 -20 q 309 -4 353 -20 q 262 27 276 7 q 248 69 248 47 q 254 92 248 77 q 287 111 271 111 q 326 85 315 111 q 353 31 332 50 q 394 13 372 13 q 432 27 412 13 q 459 65 452 41 q 472 127 472 106 q 465 197 472 159 q 439 292 460 225 q 414 383 419 358 q 409 430 409 408 q 420 480 409 458 q 477 555 435 511 q 554 617 492 569 q 673 725 646 688 q 699 794 699 762 q 677 852 699 829 q 623 876 656 876 q 477 813 550 876 q 333 588 405 751 q 216 241 260 425 q 177 98 206 203 l 138 -43 q 37 -286 96 -223 q -95 -348 -23 -348 q -175 -327 -149 -348 q -202 -284 -202 -307 q -185 -251 -202 -267 z "},"":{"ha":1056,"x_min":113,"x_max":1075,"o":"m 593 941 q 830 879 715 941 q 1010 701 945 817 q 1075 460 1075 585 q 1011 220 1075 335 q 833 42 947 106 q 593 -21 718 -21 q 354 42 469 -21 q 176 220 240 106 q 113 460 113 335 q 177 701 113 585 q 357 879 242 817 q 593 941 473 941 m 593 899 q 378 842 483 899 q 214 680 273 785 q 155 460 155 574 q 213 241 155 346 q 375 79 271 137 q 593 20 479 20 q 812 79 707 20 q 975 241 917 137 q 1033 460 1033 346 q 974 680 1033 574 q 810 842 915 785 q 593 899 705 899 m 328 755 l 589 755 q 739 711 688 755 q 791 604 791 667 q 756 513 791 552 q 640 453 721 474 l 782 251 q 828 201 808 215 q 864 191 841 193 l 864 169 l 739 169 l 540 444 l 488 444 l 488 234 q 508 201 492 212 q 568 191 523 191 l 568 169 l 319 169 l 319 191 q 367 200 353 191 q 387 227 381 209 q 390 285 390 235 l 390 640 q 388 699 390 690 q 371 723 383 714 q 328 731 358 731 l 328 755 m 488 473 l 509 473 q 640 508 599 473 q 682 596 682 543 q 643 688 682 651 q 545 726 605 726 q 488 715 519 726 l 488 473 z "},"":{"ha":1056,"x_min":113,"x_max":1075,"o":"m 593 941 q 830 879 715 941 q 1010 701 945 817 q 1075 460 1075 585 q 1011 220 1075 335 q 833 42 947 106 q 593 -21 718 -21 q 354 42 469 -21 q 176 220 240 106 q 113 460 113 335 q 177 701 113 585 q 357 879 242 817 q 593 941 473 941 m 593 899 q 378 842 483 899 q 214 680 273 785 q 155 460 155 574 q 213 241 155 346 q 375 79 271 137 q 593 20 479 20 q 812 79 707 20 q 975 241 917 137 q 1033 460 1033 346 q 974 680 1033 574 q 810 842 915 785 q 593 899 705 899 m 831 769 l 845 579 l 819 579 q 741 700 794 660 q 613 739 688 739 q 514 716 557 739 q 443 654 471 693 q 409 577 422 625 q 395 475 395 529 q 457 263 395 332 q 620 195 519 195 q 831 305 752 195 l 857 292 q 597 155 762 155 q 372 242 461 155 q 283 456 283 330 q 378 678 283 586 q 621 770 473 770 q 672 766 652 770 q 746 744 693 762 q 771 739 763 739 q 789 744 782 739 q 804 769 797 750 l 831 769 z "},"":{"ha":1360,"x_min":85,"x_max":1403,"o":"m 100 920 l 593 920 l 608 783 l 585 783 q 550 856 578 832 q 454 879 521 879 l 403 879 l 403 486 q 416 414 403 429 q 475 397 430 399 l 475 372 l 221 372 l 221 397 q 277 415 265 401 q 289 486 289 430 l 289 879 l 237 879 q 146 858 173 879 q 109 783 119 836 l 85 783 l 100 920 m 849 920 l 1034 532 l 1214 920 l 1403 920 l 1403 895 q 1341 877 1355 893 q 1328 803 1328 861 l 1328 486 q 1341 414 1328 428 q 1403 397 1354 399 l 1403 372 l 1133 372 l 1133 397 q 1187 405 1173 397 q 1207 427 1201 412 q 1214 485 1214 441 l 1214 819 l 1006 372 l 984 372 l 775 812 l 775 486 q 779 431 775 442 q 798 405 785 414 q 838 397 810 397 l 863 397 l 863 372 l 655 372 l 655 397 q 706 404 693 397 q 726 425 720 410 q 732 486 732 439 l 732 802 q 719 878 732 862 q 655 895 705 895 l 655 920 l 849 920 z "},"":{"ha":463,"x_min":337,"x_max":562,"o":"m 349 640 l 337 640 q 395 723 338 644 q 459 811 452 803 q 497 843 477 832 q 526 850 511 850 q 552 841 543 850 q 562 819 562 831 q 507 751 562 789 l 349 640 z "},"":{"ha":463,"x_min":250,"x_max":587,"o":"m 250 744 q 266 782 250 766 q 304 798 281 798 q 343 782 328 798 q 359 743 359 766 q 343 704 359 720 q 304 688 327 688 q 266 704 282 688 q 250 744 250 720 m 531 798 q 570 781 554 798 q 587 743 587 765 q 570 703 587 720 q 531 687 554 687 q 492 703 508 687 q 476 744 476 720 q 492 782 476 766 q 531 798 508 798 z "},"":{"ha":926,"x_min":146,"x_max":878,"o":"m 146 618 l 553 618 l 698 988 l 758 988 l 612 618 l 878 618 l 878 559 l 590 559 l 492 304 l 878 304 l 878 244 l 469 244 l 327 -121 l 267 -121 l 408 244 l 146 244 l 146 304 l 432 304 l 530 559 l 146 559 l 146 618 z "},"":{"ha":1230,"x_min":-45,"x_max":1207,"o":"m -45 -5 l -45 20 q -4 31 -29 24 q 65 52 52 43 q 102 86 79 60 q 174 191 105 90 q 364 466 265 328 q 472 627 433 562 q 525 709 496 667 q 607 840 579 785 q 496 858 574 851 l 472 860 l 473 885 q 844 886 496 886 q 1207 885 1186 886 q 1199 825 1206 869 l 1185 738 l 1165 738 q 1150 834 1156 819 q 1136 848 1145 845 q 1036 857 1105 857 q 776 843 821 857 q 760 768 767 815 l 706 477 q 745 476 733 476 q 972 483 902 476 q 1059 500 1023 488 q 1121 615 1078 528 q 1145 612 1131 615 q 1085 358 1104 465 l 1076 312 l 1052 313 q 1056 389 1056 364 q 1039 438 1056 427 q 926 450 1022 450 q 699 446 812 450 q 690 399 694 426 q 633 113 666 263 q 620 45 623 61 q 800 22 682 22 q 1027 66 947 22 q 1160 212 1106 110 q 1189 205 1174 210 q 1171 133 1186 186 q 1125 -9 1147 52 q 1072 -7 1109 -8 l 962 -5 q 762 -1 848 -1 q 630 -3 702 -1 q 421 -9 487 -9 q 349 -7 380 -9 l 353 14 q 454 26 433 22 q 515 45 488 33 q 602 441 561 191 l 384 441 q 330 361 349 390 q 169 120 187 142 q 134 54 134 79 q 145 38 134 45 q 216 24 156 31 q 249 20 237 22 l 249 -3 l 62 0 q -27 -4 9 0 q -45 -5 -35 -5 m 608 472 l 650 687 q 678 842 673 802 l 677 846 l 653 847 l 488 594 q 409 471 422 493 q 496 470 440 470 q 519 471 503 470 q 608 472 562 472 z "},"":{"ha":941,"x_min":113,"x_max":937,"o":"m 840 790 q 912 669 887 736 q 937 498 937 602 q 912 360 937 439 q 839 212 887 281 q 727 88 791 144 q 593 6 664 32 q 453 -19 523 -19 q 330 7 391 -19 q 233 74 288 24 l 151 -22 l 127 -2 l 211 96 q 163 167 188 121 q 123 284 139 213 q 113 393 113 330 q 141 536 113 463 q 214 688 169 610 q 315 801 229 715 q 437 873 345 830 q 534 895 475 891 q 573 899 549 896 q 613 901 596 901 q 819 812 725 901 l 896 904 l 920 883 l 840 790 m 253 146 l 774 761 q 694 841 743 812 q 589 871 645 871 q 453 836 518 871 q 343 740 389 800 q 256 562 297 680 q 214 346 214 444 q 253 146 214 232 m 791 731 l 270 118 q 372 30 317 52 q 465 9 426 7 l 493 11 q 593 44 568 28 q 672 117 635 69 q 758 260 724 182 q 807 395 791 339 q 829 539 829 473 q 817 648 829 600 q 791 731 800 712 z "},"":{"ha":984,"x_min":82,"x_max":1000,"o":"m 489 528 q 590 674 535 633 q 740 715 645 715 q 924 636 849 715 q 1000 433 1000 557 q 926 228 1000 309 q 763 148 853 148 q 653 185 703 148 q 534 342 604 222 q 439 221 491 258 q 315 184 388 184 q 150 254 217 184 q 82 434 82 323 q 144 614 82 546 q 290 683 207 683 q 396 650 353 683 q 489 528 440 618 m 554 390 q 651 250 602 289 q 766 211 701 211 q 905 271 849 211 q 961 433 961 332 q 902 597 961 532 q 770 663 843 663 q 688 638 723 663 q 625 562 653 614 q 554 390 608 532 m 469 475 q 393 585 436 550 q 288 621 351 621 q 168 570 216 621 q 119 435 119 519 q 167 291 119 345 q 275 237 215 237 q 389 294 340 237 q 469 475 421 332 z "},"":{"ha":926,"x_min":147,"x_max":876,"o":"m 147 583 l 481 583 l 481 918 l 541 918 l 541 583 l 876 583 l 876 523 l 541 523 l 541 189 l 481 189 l 481 523 l 147 523 l 147 583 m 147 35 l 876 35 l 876 -25 l 147 -25 l 147 35 z "},"":{"ha":926,"x_min":148,"x_max":876,"o":"m 875 250 l 149 559 l 149 612 l 875 920 l 875 854 l 227 586 l 875 316 l 875 250 m 148 33 l 876 33 l 876 -28 l 148 -28 l 148 33 z "},"":{"ha":926,"x_min":148,"x_max":876,"o":"m 149 920 l 875 611 l 875 557 l 149 250 l 149 315 l 796 584 l 149 854 l 149 920 m 148 33 l 876 33 l 876 -28 l 148 -28 l 148 33 z "},"":{"ha":868,"x_min":63,"x_max":1030,"o":"m 534 416 q 519 377 529 406 l 476 248 q 801 246 707 248 l 794 219 l 626 216 l 465 217 q 427 106 430 119 q 419 62 419 78 q 432 35 419 44 q 499 18 452 20 q 557 14 524 18 q 558 3 558 7 q 557 -8 558 -2 l 515 -8 q 478 -11 497 -8 q 451 -13 460 -13 q 427 -12 447 -13 l 398 -12 l 349 -7 l 328 -7 l 302 -7 l 194 -13 q 152 -12 182 -13 q 160 15 155 3 q 266 26 243 22 q 288 35 275 28 q 303 54 299 46 l 339 138 l 366 218 l 63 219 l 70 246 q 113 244 109 244 l 376 248 l 427 399 l 420 414 l 116 412 l 123 439 q 407 443 160 441 q 388 486 394 470 q 275 746 322 646 q 255 791 260 777 q 223 844 239 833 q 131 863 207 854 l 132 886 l 159 887 q 224 881 185 887 q 349 875 262 875 q 458 884 416 875 l 458 862 q 457 850 458 858 l 407 846 q 360 839 366 842 q 349 824 353 836 l 432 632 l 511 444 q 526 452 524 450 q 774 706 593 522 l 788 720 q 837 781 812 743 q 852 813 852 805 q 835 840 852 829 q 757 855 813 855 q 719 854 739 855 l 719 882 q 768 887 746 887 q 826 882 781 887 q 884 878 871 878 q 957 881 913 878 q 987 882 972 882 q 1021 886 1004 886 l 1030 886 l 1030 854 q 1012 850 1023 852 q 958 833 985 846 q 895 790 940 825 q 732 630 873 773 q 557 444 656 553 l 780 441 l 826 441 q 854 439 842 441 l 847 412 l 808 412 l 547 416 q 534 416 543 416 z "},"":{"ha":694,"x_min":-86,"x_max":669,"o":"m 173 532 l 257 532 l 168 222 q 147 116 147 149 q 168 61 147 82 q 223 39 189 39 q 315 73 272 39 q 418 196 376 119 q 474 346 446 248 l 528 532 l 612 532 l 507 165 q 495 91 495 126 q 508 53 495 66 q 541 40 520 40 q 587 59 566 40 q 642 144 621 89 l 669 144 q 600 25 646 66 q 503 -16 553 -16 q 433 12 460 -16 q 406 86 406 40 q 412 139 406 106 q 308 27 372 71 q 182 -16 243 -16 q 114 5 140 -16 q 75 73 88 25 q 49 -24 58 18 q 31 -152 41 -67 q 7 -264 20 -237 q -41 -299 -11 -299 q -73 -286 -59 -299 q -86 -252 -86 -272 q -80 -218 -86 -237 q -55 -166 -77 -208 q 76 193 22 -17 l 83 216 l 173 532 z "},"":{"ha":680,"x_min":73,"x_max":705,"o":"m 660 486 q 668 612 668 563 q 604 801 668 734 q 433 868 540 868 q 314 841 361 868 q 229 760 267 814 l 198 760 q 311 916 250 867 q 456 964 371 964 q 575 931 517 964 q 669 824 633 898 q 705 624 705 750 q 600 193 705 384 q 303 -21 483 -21 q 135 40 197 -21 q 73 206 73 101 q 105 362 73 286 q 184 491 136 438 q 292 575 233 544 q 448 616 368 616 q 548 594 503 616 q 623 543 593 573 q 660 486 641 524 m 648 426 q 569 540 622 501 q 454 578 517 578 q 334 536 393 578 q 231 389 275 494 q 188 178 188 283 q 225 59 188 101 q 320 18 262 18 q 490 106 404 18 q 648 426 601 218 z "},"":{"ha":990,"x_min":29,"x_max":963,"o":"m 920 -342 l 29 -342 l 29 -317 l 479 276 l 29 866 l 29 891 l 896 891 l 914 663 l 887 663 q 834 796 876 755 q 718 836 793 836 l 216 836 l 597 338 l 171 -222 l 726 -222 q 829 -204 773 -222 q 893 -159 868 -191 q 936 -56 919 -126 l 963 -61 l 920 -342 z "},"":{"ha":1143,"x_min":31,"x_max":1112,"o":"m 841 838 l 302 838 l 302 -212 q 327 -292 302 -268 q 412 -317 352 -317 l 436 -317 l 436 -342 l 31 -342 l 31 -317 l 55 -317 q 140 -293 115 -317 q 165 -212 165 -269 l 165 760 q 140 841 165 817 q 55 866 115 866 l 31 866 l 31 891 l 1112 891 l 1112 866 l 1088 866 q 1004 842 1029 866 q 979 760 979 817 l 979 -212 q 1004 -292 979 -268 q 1088 -317 1029 -317 l 1112 -317 l 1112 -342 l 707 -342 l 707 -317 l 731 -317 q 816 -293 791 -317 q 841 -212 841 -269 l 841 838 z "},"":{"ha":376,"x_min":-2,"x_max":378,"o":"m 134 607 l 146 1002 q 164 1128 150 1073 q 198 1211 178 1183 q 240 1247 212 1232 q 293 1263 267 1263 q 352 1241 327 1263 q 378 1191 378 1218 q 360 1140 378 1159 q 315 1120 342 1120 q 264 1145 292 1120 q 237 1158 248 1158 q 217 1148 225 1158 q 210 1115 210 1139 q 216 1017 210 1087 q 241 567 241 738 q 231 212 241 519 q 218 36 228 98 q 182 -83 204 -47 q 135 -134 161 -119 q 78 -149 109 -149 q 20 -126 43 -149 q -2 -67 -2 -103 q 15 -18 -2 -37 q 59 0 33 0 q 106 -22 86 0 q 139 -43 125 -43 q 158 -34 151 -43 q 165 -2 165 -24 q 159 79 165 26 q 142 309 148 176 q 134 607 134 477 z "},"":{"ha":361,"x_min":143,"x_max":507,"o":"m 447 861 l 450 868 q 463 885 456 881 q 486 886 479 886 q 507 882 496 886 q 507 871 507 876 q 507 863 507 867 l 471 777 q 421 657 457 739 q 395 586 401 610 q 473 656 427 610 q 492 640 484 648 q 414 566 456 595 q 358 545 383 545 q 333 551 341 545 q 328 564 328 555 q 359 647 328 581 q 191 545 267 545 q 156 558 168 545 q 143 597 143 571 q 173 694 143 629 q 227 767 186 723 q 320 838 268 810 q 410 865 372 865 q 426 864 416 865 q 447 861 435 863 m 231 590 q 252 595 241 590 q 308 637 281 612 q 359 688 344 670 q 407 762 391 726 q 422 813 422 798 q 416 829 422 823 q 397 836 410 836 q 340 813 379 836 q 284 759 322 802 q 229 675 247 715 q 210 615 210 634 q 216 596 210 603 q 231 590 222 590 z "},"":{"ha":318,"x_min":160,"x_max":447,"o":"m 447 791 q 382 618 447 692 q 247 545 317 545 q 183 572 207 545 q 160 652 160 598 q 178 733 160 685 q 212 799 191 769 q 254 846 234 828 q 308 884 281 871 q 365 897 334 897 q 424 871 401 897 q 447 791 447 846 m 217 605 q 224 581 217 589 q 245 573 231 573 q 284 589 266 573 q 358 702 319 619 q 397 836 397 785 q 390 860 397 852 q 374 869 383 869 q 329 845 353 869 q 251 727 285 802 q 217 605 217 652 z "},"":{"ha":1056,"x_min":78,"x_max":1058,"o":"m 78 0 l 146 233 l 172 233 q 162 192 162 209 q 185 137 162 159 q 256 116 209 116 l 407 116 l 423 183 q 245 291 314 206 q 177 488 177 375 q 243 708 177 600 q 434 878 309 816 q 694 941 559 941 q 956 847 854 941 q 1058 631 1058 753 q 1008 441 1058 538 q 863 276 959 344 q 675 195 766 209 l 648 116 l 801 116 q 908 142 872 116 q 962 233 943 168 l 987 233 l 920 0 l 562 0 l 648 247 q 759 302 713 260 q 871 471 827 363 q 914 671 914 578 q 851 831 914 768 q 691 894 789 894 q 513 840 597 894 q 374 669 428 786 q 321 430 321 553 q 363 294 321 349 q 473 227 406 240 l 423 0 l 78 0 z "},"":{"ha":680,"x_min":37,"x_max":714,"o":"m 500 511 q 528 563 509 531 q 541 564 536 564 q 555 563 545 564 q 555 549 555 553 q 545 490 555 533 q 649 541 613 541 q 693 517 673 541 q 714 454 714 493 q 686 363 714 405 q 608 291 659 322 q 439 210 557 259 q 397 63 397 110 q 407 32 397 43 q 426 23 414 23 q 508 54 458 23 q 613 154 557 85 q 632 176 625 168 q 649 165 643 170 q 585 82 632 130 q 488 9 538 35 q 389 -17 437 -17 q 341 1 359 -17 q 323 45 323 19 q 337 119 323 72 q 197 6 243 32 q 107 -19 150 -19 q 56 3 75 -19 q 37 73 37 25 q 67 202 37 135 q 174 355 98 270 q 272 451 232 419 q 357 502 312 483 q 439 522 403 522 q 500 511 465 522 m 452 247 q 528 279 478 251 q 640 378 595 317 q 673 471 673 423 q 663 504 673 492 q 640 516 653 516 q 598 496 621 516 q 513 375 562 465 q 452 247 465 286 m 485 476 q 454 493 469 493 q 393 476 427 493 q 295 404 345 452 q 191 277 246 356 q 131 169 154 223 q 109 79 109 114 q 122 42 109 56 q 155 28 135 28 q 202 45 172 28 q 306 126 262 78 q 365 220 331 153 q 485 476 455 400 z "},"":{"ha":492,"x_min":61,"x_max":519,"o":"m 61 26 l 95 66 q 81 151 81 117 q 108 290 81 213 q 151 382 128 347 q 214 467 182 433 q 299 536 260 515 q 376 556 339 556 q 430 545 409 556 q 471 506 450 534 q 507 547 475 511 q 519 521 513 535 l 483 477 q 495 382 495 437 q 486 292 495 333 q 448 180 469 222 q 369 71 418 123 q 279 0 320 19 q 210 -14 248 -14 q 149 -3 170 -14 q 109 37 127 7 q 85 12 98 28 q 68 -7 79 4 l 61 26 m 149 130 q 264 263 172 154 l 443 473 q 426 513 440 500 q 393 526 412 526 q 377 524 385 526 q 326 493 344 510 q 255 402 293 463 q 191 274 218 341 q 149 130 155 183 m 441 427 l 244 199 q 142 78 150 90 l 142 72 q 157 30 142 45 q 203 15 173 15 q 245 27 222 15 q 300 82 269 40 q 368 203 330 123 q 423 344 406 283 q 441 423 441 406 l 441 427 z "},"":{"ha":507,"x_min":-7,"x_max":418,"o":"m 292 482 q 313 544 292 520 q 360 568 334 568 q 401 549 384 568 q 418 491 418 529 q 407 455 418 476 q 381 426 396 434 q 345 416 361 416 q 310 436 328 416 q 292 482 292 456 m 357 297 q 336 329 349 320 q 289 345 312 345 q 244 324 268 345 q 197 250 220 304 q 174 257 185 251 q 201 322 178 291 q 251 366 224 353 q 298 379 277 379 q 342 363 316 379 q 384 318 368 348 q 401 254 401 289 q 386 181 401 223 q 333 98 370 139 q 213 -2 296 56 q 102 -86 130 -61 q 54 -151 75 -111 q 47 -190 47 -166 q 85 -267 47 -233 q 177 -300 122 -300 q 260 -272 216 -300 l 269 -263 q 310 -185 295 -238 q 345 -183 327 -183 q 287 -291 335 -252 q 163 -330 239 -330 q 41 -280 90 -330 q -7 -155 -7 -231 q 4 -85 -7 -113 q 46 -14 18 -46 q 124 54 74 19 l 240 132 q 339 223 310 180 q 357 281 357 250 q 357 297 357 288 z "},"":{"ha":304,"x_min":-24,"x_max":323,"o":"m 189 488 q 209 545 189 523 q 258 568 230 568 q 302 549 285 568 q 323 488 323 524 q 301 443 323 465 q 251 420 279 420 q 207 440 226 420 q 189 488 189 460 m 208 336 l 215 336 q 227 334 220 336 l 224 322 q 190 182 213 256 q 170 104 176 125 q 153 36 159 70 q 128 -64 147 3 q 89 -242 105 -195 q 56 -304 73 -290 q 15 -315 42 -315 q -12 -303 0 -315 q -24 -279 -24 -291 q -18 -247 -24 -270 l 16 -149 l 103 81 q 124 130 115 111 q 141 169 133 149 l 208 336 z "},"":{"ha":926,"x_min":148,"x_max":876,"o":"m 148 641 l 876 641 l 876 250 l 817 250 l 817 581 l 148 581 l 148 641 z "},"":{"ha":762,"x_min":57,"x_max":762,"o":"m 712 1267 l 762 1267 l 551 -53 l 214 640 l 80 578 l 57 621 l 261 724 l 536 165 l 712 1267 z "},"":{"ha":854,"x_min":-1,"x_max":855,"o":"m 17 -260 q 37 -254 31 -254 q 78 -286 60 -254 q 93 -308 85 -299 q 130 -325 110 -325 q 200 -292 158 -325 q 266 -185 235 -255 q 321 -36 297 -116 l 387 193 q 399 239 393 214 l 444 399 q 472 485 463 460 q 454 486 460 486 q 432 485 449 486 q 352 484 415 484 q 356 517 354 503 q 387 519 370 519 l 485 523 q 553 710 515 623 q 621 815 576 762 q 701 880 654 855 q 759 892 724 892 q 829 868 802 892 q 855 820 855 845 q 844 792 855 804 q 820 780 833 780 q 788 791 802 780 q 768 827 774 803 q 755 852 764 845 q 732 859 747 859 q 709 854 719 859 q 663 812 688 843 q 625 747 645 790 q 582 623 605 703 q 555 524 558 543 l 574 522 l 637 524 q 659 522 642 524 q 659 513 659 516 q 655 488 659 503 l 543 484 l 521 408 l 464 203 q 456 176 459 186 q 441 128 444 144 l 391 -33 q 325 -186 357 -125 q 243 -294 292 -246 q 167 -345 207 -329 q 100 -356 141 -356 q 21 -338 43 -356 q -1 -295 -1 -320 q 17 -260 -1 -271 z "},"":{"ha":926,"x_min":149,"x_max":876,"o":"m 843 696 l 876 696 q 825 553 873 606 q 707 501 777 501 q 637 512 673 501 q 452 583 601 522 q 305 626 349 626 q 225 597 258 626 q 180 503 193 568 l 149 503 q 200 648 153 599 q 311 698 247 698 q 376 688 343 698 q 558 620 444 669 q 719 570 672 570 q 803 603 769 570 q 843 696 837 635 m 843 361 l 876 361 q 825 217 873 269 q 707 165 777 165 q 637 176 673 165 q 452 248 601 186 q 305 290 349 290 q 225 261 258 290 q 180 167 193 232 l 149 167 q 200 313 153 263 q 311 362 247 362 q 374 353 342 362 q 558 284 444 333 q 719 235 673 235 q 803 267 769 235 q 843 361 837 300 z "},"":{"ha":850,"x_min":18,"x_max":831,"o":"m 831 0 l 18 0 l 444 941 l 831 0 m 671 56 l 401 711 l 102 56 l 671 56 z "},"":{"ha":535,"x_min":73,"x_max":636,"o":"m 73 275 q 151 345 85 288 l 340 505 l 404 560 l 429 560 l 153 277 q 161 248 157 259 l 216 87 q 249 -10 234 37 l 229 -11 l 73 275 m 326 273 q 557 493 391 338 l 572 508 q 615 547 602 537 l 636 547 l 480 363 l 433 307 q 406 275 416 288 l 440 3 l 422 3 l 326 273 z "},"":{"ha":535,"x_min":-18,"x_max":547,"o":"m 193 -8 q 469 273 217 17 q 385 523 454 323 q 372 562 376 549 l 393 559 l 547 275 l 274 39 q 216 -9 227 -1 l 193 -8 m -18 5 q 12 39 -9 14 l 215 275 l 181 549 l 198 549 l 294 277 l 7 5 l -18 5 z "},"":{"ha":1389,"x_min":159,"x_max":1231,"o":"m 1085 60 q 1106 113 1085 92 q 1158 134 1128 134 q 1210 112 1188 134 q 1231 61 1231 91 q 1210 9 1231 31 q 1158 -12 1188 -12 q 1106 9 1128 -12 q 1085 60 1085 31 m 231 134 q 284 112 262 134 q 305 61 305 91 q 283 10 305 31 q 231 -12 262 -12 q 180 10 201 -12 q 159 61 159 31 q 180 112 159 91 q 231 134 201 134 m 622 60 q 643 112 622 90 q 695 133 665 133 q 747 112 726 133 q 768 60 768 90 q 746 8 768 30 q 695 -13 725 -13 q 644 9 665 -13 q 622 60 622 31 z "},"":{"ha":347,"x_min":0,"x_max":0,"o":""},"":{"ha":1056,"x_min":-77,"x_max":1059,"o":"m 67 40 q 87 56 75 47 l 97 65 l 256 224 q 292 258 283 251 q 311 277 300 265 q 337 304 321 288 q 364 330 354 319 q 401 366 392 355 q 653 608 496 453 l 800 751 q 829 779 817 768 q 895 852 871 827 q 930 890 903 859 q 947 891 939 891 q 970 890 956 891 l 971 882 q 966 802 966 826 q 961 723 962 774 l 952 601 q 948 529 951 587 l 924 211 l 924 196 l 923 161 l 923 151 q 920 139 921 142 l 919 81 l 920 72 l 918 45 q 947 33 923 35 q 1036 16 1007 26 l 1037 7 q 1034 -9 1037 1 q 1004 -5 1009 -5 l 920 1 l 860 -1 q 764 -7 801 -7 l 747 -9 l 728 -9 q 692 -12 698 -12 q 668 -9 682 -12 l 669 10 q 714 18 689 16 q 789 30 755 20 q 802 32 798 32 l 805 32 q 814 45 812 39 q 828 153 819 58 q 839 296 838 247 q 840 332 840 321 q 801 333 832 333 q 560 328 762 333 l 423 323 q 409 321 418 322 q 386 302 399 316 q 351 272 372 288 q 262 188 321 241 q 221 148 238 166 l 170 93 q 153 77 161 85 q 142 68 148 73 q 133 54 138 61 q 134 37 134 47 q 184 24 153 27 q 214 21 198 23 q 248 16 237 17 q 262 12 256 15 q 256 -11 261 1 l 131 -2 l 37 -7 q 6 -9 16 -7 l -1 -9 q -24 -11 -6 -9 l -57 -12 q -75 -9 -65 -12 q -77 14 -77 1 l -68 17 l 6 24 l 52 32 q 67 40 57 34 m 580 356 q 602 355 595 356 l 618 355 l 703 359 l 814 367 q 842 370 829 369 q 846 407 844 382 q 850 439 850 433 l 863 636 l 873 763 q 834 732 865 759 q 796 701 820 723 l 640 551 l 612 526 q 582 496 597 509 q 553 469 566 483 q 535 452 546 461 q 514 433 524 443 q 494 414 505 425 q 471 390 484 402 q 444 361 463 381 q 495 354 455 354 l 530 355 q 580 356 554 356 m 1059 965 l 1047 965 q 852 1103 872 1083 q 833 1143 833 1124 q 842 1166 833 1157 q 867 1175 852 1175 q 904 1162 885 1175 q 968 1090 924 1149 q 1059 965 1035 1003 z "},"":{"ha":1056,"x_min":-77,"x_max":1236,"o":"m 67 40 q 87 56 75 47 l 97 65 l 256 224 q 292 258 283 251 q 311 277 300 265 q 337 304 321 288 q 364 330 354 319 q 401 366 392 355 q 653 608 496 453 l 800 751 q 829 779 817 768 q 895 852 871 827 q 930 890 903 859 q 947 891 939 891 q 970 890 956 891 l 971 882 q 966 802 966 826 q 961 723 962 774 l 952 601 q 948 529 951 587 l 924 211 l 924 196 l 923 161 l 923 151 q 920 139 921 142 l 919 81 l 920 72 l 918 45 q 947 33 923 35 q 1036 16 1007 26 l 1037 7 q 1034 -9 1037 1 q 1004 -5 1009 -5 l 920 1 l 860 -1 q 764 -7 801 -7 l 747 -9 l 728 -9 q 692 -12 698 -12 q 668 -9 682 -12 l 669 10 q 714 18 689 16 q 789 30 755 20 q 802 32 798 32 l 805 32 q 814 45 812 39 q 828 153 819 58 q 839 296 838 247 q 840 332 840 321 q 801 333 832 333 q 560 328 762 333 l 423 323 q 409 321 418 322 q 386 302 399 316 q 351 272 372 288 q 262 188 321 241 q 221 148 238 166 l 170 93 q 153 77 161 85 q 142 68 148 73 q 133 54 138 61 q 134 37 134 47 q 184 24 153 27 q 214 21 198 23 q 248 16 237 17 q 262 12 256 15 q 256 -11 261 1 l 131 -2 l 37 -7 q 6 -9 16 -7 l -1 -9 q -24 -11 -6 -9 l -57 -12 q -75 -9 -65 -12 q -77 14 -77 1 l -68 17 l 6 24 l 52 32 q 67 40 57 34 m 580 356 q 602 355 595 356 l 618 355 l 703 359 l 814 367 q 842 370 829 369 q 846 407 844 382 q 850 439 850 433 l 863 636 l 873 763 q 834 732 865 759 q 796 701 820 723 l 640 551 l 612 526 q 582 496 597 509 q 553 469 566 483 q 535 452 546 461 q 514 433 524 443 q 494 414 505 425 q 471 390 484 402 q 444 361 463 381 q 495 354 455 354 l 530 355 q 580 356 554 356 m 1225 1113 l 1236 1113 q 1236 1095 1236 1103 q 1203 1009 1236 1044 q 1125 974 1170 974 q 1080 983 1103 974 q 1005 1026 1056 993 q 924 1059 955 1059 q 884 1040 901 1059 q 862 974 867 1021 l 850 974 l 850 981 q 882 1077 850 1042 q 960 1112 914 1112 q 1061 1075 1002 1112 q 1133 1031 1120 1037 q 1162 1024 1151 1024 q 1201 1043 1183 1024 q 1225 1113 1219 1062 z "},"":{"ha":941,"x_min":113,"x_max":937,"o":"m 113 393 q 141 536 113 463 q 214 688 169 610 q 316 802 229 715 q 437 873 345 830 q 534 895 475 891 q 573 899 549 896 q 613 901 596 901 q 859 768 753 901 q 937 498 937 670 q 912 360 937 439 q 839 212 887 281 q 727 88 791 144 q 593 6 664 32 q 453 -19 523 -19 q 293 26 365 -19 q 176 146 220 72 q 113 393 113 250 m 313 68 q 353 38 336 47 q 425 12 370 30 q 465 9 439 8 l 493 11 q 593 44 568 28 q 673 117 635 69 q 758 260 724 182 q 807 395 791 339 q 829 539 829 473 q 814 657 829 600 q 790 732 800 714 q 737 808 766 779 q 670 854 708 837 q 589 871 632 871 q 453 836 518 871 q 343 740 389 800 q 256 562 297 680 q 214 346 214 444 q 246 162 214 242 q 313 68 262 121 m 851 1113 l 861 1113 q 862 1095 862 1103 q 829 1009 862 1044 q 751 974 795 974 q 705 983 729 974 q 631 1026 682 993 q 549 1059 581 1059 q 510 1040 527 1059 q 488 974 492 1021 l 475 974 l 475 981 q 508 1077 475 1042 q 585 1112 540 1112 q 687 1075 628 1112 q 758 1031 745 1037 q 787 1024 777 1024 q 827 1043 809 1024 q 851 1113 844 1062 z "},"":{"ha":1360,"x_min":111,"x_max":1339,"o":"m 1337 892 q 1339 873 1339 878 q 1315 752 1339 837 q 1302 750 1307 750 l 1299 751 q 1277 850 1291 833 q 1230 861 1269 861 q 1145 859 1217 861 l 932 854 q 911 764 922 825 l 866 494 l 882 494 q 1010 501 887 494 q 1168 517 1134 507 q 1190 527 1183 521 q 1242 621 1209 547 q 1247 633 1244 625 l 1272 634 q 1267 608 1270 621 q 1245 501 1261 585 q 1212 342 1228 416 l 1186 342 q 1192 418 1187 351 q 1174 467 1192 451 q 1109 475 1165 475 q 1063 473 1093 475 l 920 463 q 856 450 884 458 q 838 362 850 429 l 799 151 q 777 41 787 84 q 891 35 827 35 q 1088 49 1025 35 q 1193 98 1150 63 q 1287 213 1235 134 q 1318 217 1302 216 q 1257 1 1287 62 l 1045 7 q 783 3 1016 7 q 572 -3 637 0 q 486 -7 507 -7 q 287 33 366 -7 q 159 161 208 73 q 111 347 111 250 q 152 548 111 445 q 260 725 192 650 q 402 838 329 800 q 616 892 505 892 q 673 890 650 892 q 762 884 729 884 q 1057 887 936 884 q 1337 892 1255 892 m 471 25 q 632 90 569 25 q 742 348 696 155 q 789 658 789 541 q 744 812 789 763 q 623 861 699 861 q 421 794 513 861 q 274 589 328 727 q 220 329 220 450 q 292 105 220 184 q 471 25 363 25 z "},"":{"ha":637,"x_min":73,"x_max":686,"o":"m 477 476 q 564 539 536 525 q 618 553 593 553 q 665 530 644 553 q 686 475 686 507 q 661 401 686 443 q 589 326 637 359 q 449 260 565 310 q 412 96 412 144 q 424 50 412 64 q 451 36 435 36 q 509 62 476 36 q 615 175 563 104 q 637 170 626 174 q 517 26 595 94 q 421 -16 469 -16 q 375 4 393 -16 q 347 85 357 24 q 328 67 339 78 q 174 -16 237 -16 q 100 16 126 -16 q 73 129 73 47 q 120 321 73 209 q 193 439 144 380 q 276 522 241 499 q 374 553 323 553 q 433 534 408 553 q 477 476 459 515 m 128 70 q 141 22 128 37 q 174 7 153 7 q 270 58 213 7 q 382 255 327 109 q 437 457 437 401 q 419 509 437 488 q 375 529 400 529 q 311 503 340 529 q 199 319 270 465 q 128 70 128 173 m 455 287 q 539 323 512 304 q 587 364 559 338 q 628 420 614 391 q 642 481 642 450 q 633 511 642 502 q 601 524 619 524 q 526 469 564 524 q 455 287 497 427 z "},"":{"ha":694,"x_min":-8,"x_max":703,"o":"m -8 297 l 703 297 l 703 234 l -8 234 l -8 297 z "},"":{"ha":1389,"x_min":-8,"x_max":1397,"o":"m -8 297 l 1397 297 l 1397 234 l -8 234 l -8 297 z "},"":{"ha":578,"x_min":262,"x_max":745,"o":"m 453 898 q 466 871 460 886 q 365 780 391 819 q 338 724 338 741 q 362 688 338 713 q 387 639 387 663 q 359 557 387 597 q 328 536 345 536 q 288 561 307 536 q 262 646 262 595 q 284 736 262 692 q 351 823 307 779 q 453 898 375 845 m 733 895 q 745 873 742 883 q 618 726 618 778 q 623 708 618 716 q 643 686 625 703 q 663 663 660 669 q 670 633 670 648 q 645 558 670 591 q 608 536 628 536 q 568 558 585 536 q 545 643 545 590 q 596 783 545 713 q 733 895 647 852 z "},"":{"ha":578,"x_min":204,"x_max":688,"o":"m 479 561 q 589 658 555 611 q 614 707 614 692 q 611 720 614 713 q 584 751 607 726 q 561 800 561 776 q 587 873 561 839 q 626 897 606 897 q 663 873 646 897 q 688 789 688 840 q 638 655 688 724 q 495 539 587 586 l 479 561 m 204 561 q 304 645 274 605 q 334 706 334 686 q 317 739 334 720 q 290 774 294 764 q 282 807 282 790 q 309 875 282 841 q 346 897 327 897 q 385 873 367 897 q 409 788 409 840 q 356 650 409 720 q 217 540 303 579 l 204 561 z "},"":{"ha":304,"x_min":247,"x_max":454,"o":"m 439 904 l 454 881 q 344 781 378 828 q 320 732 320 747 q 348 694 320 715 q 361 682 359 684 q 375 655 368 673 q 378 638 378 646 q 352 560 378 595 q 312 536 334 536 q 270 567 292 536 q 247 659 247 597 q 255 701 247 662 q 276 752 260 723 q 316 807 281 761 q 439 904 378 868 z "},"":{"ha":304,"x_min":212,"x_max":413,"o":"m 212 565 q 295 638 262 601 q 340 700 329 675 q 343 714 343 709 q 324 740 343 726 q 284 801 284 769 q 308 873 284 842 q 345 903 331 903 q 374 890 357 903 q 402 847 391 878 q 413 783 413 817 q 400 718 413 750 q 358 652 387 686 q 307 600 329 617 q 226 547 265 566 l 214 556 l 212 559 l 212 565 z "},"":{"ha":926,"x_min":148,"x_max":876,"o":"m 468 716 q 480 743 468 732 q 510 755 492 755 q 539 743 528 755 q 551 713 551 730 q 539 683 551 695 q 511 671 528 671 q 481 684 494 671 q 468 716 468 697 m 148 460 l 876 460 l 876 402 l 148 402 l 148 460 m 553 155 q 540 125 553 138 q 511 113 528 113 q 481 125 493 113 q 469 155 469 138 q 481 185 469 173 q 511 197 493 197 q 540 185 528 197 q 553 155 553 173 z "},"":{"ha":686,"x_min":81,"x_max":705,"o":"m 422 964 l 705 481 l 422 0 l 347 0 l 81 481 l 347 964 l 422 964 m 385 899 l 155 481 l 385 64 l 629 481 l 385 899 z "},"":{"ha":463,"x_min":-299,"x_max":505,"o":"m -192 -281 q -167 -301 -178 -297 q -132 -306 -157 -306 q -47 -286 -96 -306 q 24 -244 1 -266 q 125 -150 68 -215 q 177 -60 155 -115 q 210 79 199 -5 q 220 223 220 163 q 217 353 220 258 q 207 441 214 417 q 188 475 199 465 q 172 480 182 480 q 145 467 157 480 q 98 356 121 437 l 93 355 q 76 362 86 355 q 110 473 100 451 q 146 533 131 516 q 178 553 156 543 q 195 555 189 555 q 258 504 234 555 q 290 312 290 433 q 282 176 290 257 q 266 56 275 94 q 253 -12 254 1 q 260 -2 256 -9 q 335 123 304 63 q 379 230 359 168 q 411 358 399 292 q 418 444 418 397 q 417 473 418 461 q 416 493 416 490 q 429 543 416 526 q 452 553 435 553 q 478 543 470 553 q 487 512 487 534 q 448 350 487 479 q 339 73 395 171 q 142 -189 254 -75 q -16 -302 66 -267 q -158 -338 -98 -338 q -269 -317 -239 -338 q -299 -275 -299 -296 q -289 -252 -299 -262 q -265 -242 -279 -242 q -225 -252 -246 -242 q -192 -281 -215 -258 m 168 744 q 184 782 168 766 q 223 798 200 798 q 262 782 246 798 q 278 743 278 766 q 262 704 278 720 q 223 688 245 688 q 184 704 201 688 q 168 744 168 720 m 450 798 q 489 781 473 798 q 505 743 505 765 q 489 703 505 720 q 450 687 473 687 q 411 703 427 687 q 395 744 395 720 q 411 782 395 766 q 450 798 427 798 z "},"":{"ha":897,"x_min":99,"x_max":1056,"o":"m 100 893 l 111 894 q 139 892 118 894 l 229 884 q 421 890 309 884 q 437 890 433 890 l 445 890 q 448 874 448 880 q 447 864 448 871 l 353 848 q 339 833 339 844 q 341 824 339 829 l 374 758 q 456 583 422 661 q 524 458 477 531 q 683 615 656 591 q 739 669 710 638 q 818 746 781 711 q 876 826 876 801 q 863 849 876 841 q 760 867 833 866 q 738 867 753 867 l 737 875 q 741 890 737 880 l 757 891 l 846 891 l 916 888 q 1001 891 956 888 q 1056 893 1030 893 q 1055 878 1055 884 q 1055 866 1055 871 q 1040 863 1047 864 q 981 847 1029 861 q 937 821 958 836 q 894 780 922 809 q 875 762 882 769 q 812 702 833 721 q 726 621 790 683 l 546 446 q 538 412 543 433 q 521 338 529 376 q 503 259 509 286 l 489 199 q 479 158 483 172 q 466 70 466 111 q 476 39 466 47 q 546 24 496 25 q 579 23 566 24 q 604 20 593 21 q 605 12 605 15 q 602 -1 605 7 q 508 -3 569 -3 l 462 -1 q 422 1 441 1 q 379 -1 410 1 q 218 -5 278 -5 q 196 -4 214 -5 l 201 16 l 329 37 q 344 45 340 40 q 363 93 353 56 l 393 199 q 439 417 431 369 q 335 623 417 456 q 278 732 294 705 q 226 835 237 819 q 212 849 218 846 q 141 861 210 850 q 100 865 112 863 q 99 875 99 870 l 100 893 m 460 1038 q 476 1076 460 1059 q 515 1092 492 1092 q 554 1076 538 1092 q 570 1037 570 1060 q 553 998 570 1014 q 515 981 537 981 q 476 998 492 981 q 460 1038 460 1014 m 741 1091 q 781 1075 764 1091 q 797 1036 797 1059 q 781 997 797 1013 q 741 981 764 981 q 702 997 718 981 q 686 1038 686 1013 q 702 1075 686 1059 q 741 1091 718 1091 z "},"":{"ha":260,"x_min":-170,"x_max":456,"o":"m -170 -44 l -113 50 q -59 132 -87 92 q 138 437 -12 199 l 416 878 l 422 880 q 456 878 452 878 l 170 414 q 125 341 130 350 q 108 319 119 329 l 96 302 q 43 216 64 252 q 28 191 36 202 l -129 -45 q -165 -44 -137 -45 l -170 -44 z "},"":{"ha":651,"x_min":62,"x_max":850,"o":"m 297 521 l 316 521 l 378 522 l 409 522 q 448 521 435 522 l 512 517 l 594 517 q 615 515 605 517 q 612 505 614 507 q 608 494 612 503 q 602 482 603 485 l 561 481 l 441 481 l 366 479 l 340 479 l 295 481 l 283 481 q 259 389 269 438 l 295 389 l 450 390 l 512 387 l 547 387 l 566 386 l 565 376 q 555 351 557 363 l 513 351 l 500 352 q 498 353 498 352 l 490 353 l 366 350 l 254 350 l 254 346 q 250 271 250 315 q 387 9 250 9 q 468 30 433 9 q 528 82 503 50 q 567 148 553 115 q 594 205 581 180 l 610 204 l 610 191 l 597 115 q 587 65 588 70 q 555 43 579 60 q 495 9 531 25 q 424 -15 460 -7 q 358 -22 389 -22 q 193 60 251 -22 q 136 297 136 143 q 138 357 136 339 l 134 357 q 100 358 129 358 l 66 358 q 64 363 65 361 q 63 366 64 365 q 62 370 62 368 q 62 374 62 372 l 62 379 q 62 382 62 380 l 62 383 l 63 385 q 64 389 64 386 l 129 389 l 144 390 l 166 485 l 155 485 q 90 488 141 488 l 66 488 q 62 505 62 497 q 63 514 62 512 q 64 518 64 516 l 178 518 q 224 612 190 557 q 299 711 258 667 q 389 791 340 756 q 490 850 439 827 q 561 874 511 860 q 631 890 610 888 q 727 897 717 897 q 850 873 789 897 q 794 722 798 727 l 772 721 l 770 732 q 780 800 770 758 q 784 828 784 823 q 765 859 784 848 q 734 869 746 869 l 726 869 l 715 872 l 677 869 q 558 829 638 869 q 403 702 478 789 q 298 525 328 614 l 297 521 z "},"":{"ha":333,"x_min":85,"x_max":441,"o":"m 85 277 l 416 562 l 441 561 q 340 456 434 552 l 165 279 l 263 -8 l 243 -8 l 85 277 z "},"":{"ha":333,"x_min":-27,"x_max":329,"o":"m -27 -9 l 250 275 l 151 561 l 171 562 l 329 275 l -3 -10 l -27 -9 z "},"":{"ha":622,"x_min":-174,"x_max":707,"o":"m -122 -267 q -82 -302 -101 -273 q -65 -310 -72 -310 q -24 -261 -50 -310 q 73 14 1 -212 l 229 500 q 156 503 194 503 q 124 504 137 503 q 134 539 127 524 l 147 541 l 243 540 q 373 810 304 734 q 565 905 459 905 q 672 879 637 905 q 707 830 707 854 q 696 802 707 814 q 671 790 685 790 l 663 790 q 635 803 646 795 q 602 834 627 808 q 561 868 576 860 q 532 877 547 877 q 464 849 498 877 q 390 739 420 812 q 320 544 348 637 q 330 543 326 543 l 373 544 q 394 543 378 544 q 453 542 428 542 q 583 577 528 542 q 618 596 604 590 l 631 594 q 615 538 628 569 q 590 467 606 518 l 509 241 l 453 87 q 448 71 448 77 l 450 64 q 469 72 462 66 q 524 124 493 89 q 587 210 530 132 l 608 201 q 523 78 572 132 q 432 -1 474 24 q 387 -17 406 -17 q 368 -10 375 -17 q 360 8 360 -3 q 363 31 360 20 q 408 153 366 43 q 491 379 469 312 l 532 507 l 521 507 q 493 505 511 507 q 460 504 475 504 q 432 505 449 504 q 372 507 406 507 l 307 507 q 303 493 306 503 q 294 467 300 484 q 153 43 270 387 q 42 -238 79 -175 q -41 -330 5 -302 q -114 -351 -75 -351 q -160 -339 -147 -351 q -174 -309 -174 -328 q -161 -278 -174 -291 q -136 -265 -149 -265 q -122 -267 -130 -265 z "},"":{"ha":550,"x_min":-176,"x_max":713,"o":"m -114 -254 q -86 -293 -101 -262 q -71 -301 -79 -301 q -64 -300 -68 -301 q -49 -290 -54 -295 q 18 -138 -31 -267 q 132 217 66 -10 l 214 493 l 119 503 q 132 538 125 526 q 148 539 142 539 q 172 538 155 539 q 189 536 183 536 q 222 538 201 536 q 246 601 233 555 q 301 720 259 646 q 344 780 303 723 q 402 842 369 816 q 475 883 436 869 q 553 898 514 898 q 633 879 596 898 q 654 872 646 873 q 690 903 667 876 l 713 902 l 681 803 l 623 635 q 575 490 581 505 q 570 479 574 486 q 566 469 568 475 l 478 222 q 424 60 424 69 l 425 56 q 438 62 431 58 q 489 104 458 76 q 553 174 519 132 l 573 198 l 589 183 q 524 100 576 161 q 412 1 472 39 q 362 -22 378 -22 q 341 -13 351 -22 q 334 3 334 -7 q 336 16 334 9 l 366 108 l 406 218 l 476 414 l 500 492 q 400 499 433 499 q 290 495 336 499 q 229 295 281 471 q 41 -228 106 -118 q -105 -337 -24 -337 q -159 -323 -143 -337 q -176 -287 -176 -309 q -165 -260 -176 -269 q -133 -247 -151 -247 q -114 -254 -125 -247 m 515 533 q 600 806 600 758 q 580 847 600 830 q 526 865 560 865 q 477 853 500 865 q 419 805 448 838 q 361 703 391 771 q 305 542 317 606 q 326 539 315 540 l 394 536 q 515 533 444 534 z "},"":{"ha":578,"x_min":-25,"x_max":693,"o":"m 218 -56 q 228 5 228 -22 q 203 92 228 49 q 298 218 271 157 q 337 385 337 303 q 323 459 337 416 q 421 609 398 524 l 413 609 q 310 587 377 609 q 243 572 268 572 q 202 587 218 572 q 186 623 186 602 q 203 660 186 644 q 243 675 219 675 q 307 660 264 675 q 408 635 375 635 q 431 637 416 635 q 448 737 448 683 l 447 787 q 470 879 447 849 q 520 909 492 909 q 552 893 538 909 q 566 856 566 878 q 521 749 566 814 q 458 635 476 683 q 559 654 500 635 q 641 674 618 674 q 677 659 661 674 q 693 622 693 643 q 678 586 693 601 q 640 571 663 571 q 546 594 614 571 q 469 610 500 610 q 450 608 465 610 q 440 542 440 571 q 463 460 440 501 q 401 390 422 421 q 350 285 370 342 q 330 172 330 228 q 344 93 330 134 q 245 -56 277 41 q 346 -37 285 -56 q 426 -18 407 -18 q 465 -33 450 -18 q 480 -68 480 -47 q 465 -105 480 -90 q 425 -120 449 -120 q 364 -106 406 -120 q 250 -83 293 -83 l 237 -83 q 221 -219 223 -127 q 205 -315 219 -289 q 151 -354 183 -354 q 117 -339 132 -354 q 103 -300 103 -324 q 148 -194 103 -257 q 209 -83 193 -131 q 164 -87 186 -83 q 97 -106 142 -92 q 35 -120 52 -120 q -9 -105 7 -120 q -25 -68 -25 -90 q -9 -33 -25 -47 q 35 -18 7 -18 q 109 -37 54 -18 q 203 -56 164 -56 l 218 -56 z "},"":{"ha":492,"x_min":210,"x_max":351,"o":"m 210 430 q 232 483 210 460 q 283 505 254 505 q 331 484 311 505 q 351 431 351 463 q 330 377 351 399 q 280 356 309 356 q 231 378 252 356 q 210 430 210 400 z "},"":{"ha":304,"x_min":10,"x_max":211,"o":"m 10 -174 q 93 -100 60 -137 q 138 -39 127 -63 q 141 -24 141 -30 q 122 2 141 -12 q 82 62 82 31 q 105 135 82 104 q 142 165 129 165 q 172 152 155 165 q 200 109 189 139 q 211 45 211 79 q 198 -20 211 12 q 156 -86 184 -52 q 105 -138 127 -121 q 24 -191 63 -173 l 12 -182 l 10 -178 l 10 -174 z "},"":{"ha":578,"x_min":9,"x_max":497,"o":"m 288 -201 q 396 -109 362 -155 q 421 -55 421 -74 q 406 -27 421 -43 q 378 8 380 2 q 371 33 371 21 q 389 98 371 64 q 434 132 407 132 q 475 103 453 132 q 497 24 497 75 q 449 -104 497 -38 q 300 -225 401 -170 l 288 -201 m 9 -203 q 113 -119 83 -160 q 142 -56 142 -79 q 126 -25 142 -43 q 94 39 94 12 q 121 109 94 74 q 157 132 139 132 q 193 110 177 132 q 218 32 218 76 q 165 -113 218 -41 q 21 -224 111 -185 l 9 -203 z "},"":{"ha":1259,"x_min":98,"x_max":1238,"o":"m 138 -44 l 195 50 q 249 132 221 92 q 445 437 296 199 l 723 878 l 730 880 q 764 878 760 878 l 477 414 q 433 341 437 350 q 416 319 427 329 q 404 302 413 317 q 351 216 371 252 q 336 191 343 202 l 178 -45 q 143 -44 170 -45 l 138 -44 m 98 572 q 139 725 98 642 q 235 844 180 809 q 345 880 290 880 q 427 843 396 880 q 458 727 458 807 q 437 612 458 667 q 402 541 422 574 q 357 482 382 507 q 286 428 319 444 q 220 413 252 413 q 134 454 170 413 q 98 572 98 496 m 167 525 q 181 457 167 475 q 218 439 195 439 q 281 469 253 439 q 364 637 323 513 q 395 782 395 730 q 378 840 395 819 q 344 854 367 854 q 265 812 304 854 q 193 661 226 769 q 167 525 167 580 m 488 151 q 529 304 488 220 q 625 423 570 387 q 734 458 680 458 q 816 422 785 458 q 847 306 847 386 q 827 191 847 246 q 791 120 812 153 q 746 61 771 86 q 674 7 707 22 q 610 -8 642 -8 q 523 33 559 -8 q 488 151 488 75 m 556 104 q 570 36 556 54 q 608 18 584 18 q 671 48 642 18 q 753 216 713 92 q 785 361 785 309 q 768 419 785 398 q 732 433 756 433 q 654 391 693 433 q 582 240 615 348 q 556 104 556 159 m 878 151 q 919 304 878 220 q 1015 423 960 387 q 1124 458 1070 458 q 1207 422 1176 458 q 1238 306 1238 386 q 1217 191 1238 246 q 1182 120 1202 153 q 1137 61 1162 86 q 1065 7 1099 22 q 1000 -8 1032 -8 q 914 33 949 -8 q 878 151 878 75 m 947 104 q 961 36 947 54 q 998 18 975 18 q 1061 48 1033 18 q 1144 216 1103 92 q 1175 361 1175 309 q 1158 419 1175 398 q 1123 433 1147 433 q 1045 391 1084 433 q 972 240 1006 348 q 947 104 947 159 z "},"":{"ha":1056,"x_min":-77,"x_max":1149,"o":"m 67 40 q 87 56 75 47 l 97 65 l 256 224 q 292 258 283 251 q 311 277 300 265 q 337 304 321 288 q 364 330 354 319 q 401 366 392 355 q 653 608 496 453 l 800 751 q 829 779 817 768 q 895 852 871 827 q 930 890 903 859 q 947 891 939 891 q 970 890 956 891 l 971 882 q 966 802 966 826 q 961 723 962 774 l 952 601 q 948 529 951 587 l 924 211 l 924 196 l 923 161 l 923 151 q 920 139 921 142 l 919 81 l 920 72 l 918 45 q 947 33 923 35 q 1036 16 1007 26 l 1037 7 q 1034 -9 1037 1 q 1004 -5 1009 -5 l 920 1 l 860 -1 q 764 -7 801 -7 l 747 -9 l 728 -9 q 692 -12 698 -12 q 668 -9 682 -12 l 669 10 q 714 18 689 16 q 789 30 755 20 q 802 32 798 32 l 805 32 q 814 45 812 39 q 828 153 819 58 q 839 296 838 247 q 840 332 840 321 q 801 333 832 333 q 560 328 762 333 l 423 323 q 409 321 418 322 q 386 302 399 316 q 351 272 372 288 q 262 188 321 241 q 221 148 238 166 l 170 93 q 153 77 161 85 q 142 68 148 73 q 133 54 138 61 q 134 37 134 47 q 184 24 153 27 q 214 21 198 23 q 248 16 237 17 q 262 12 256 15 q 256 -11 261 1 l 131 -2 l 37 -7 q 6 -9 16 -7 l -1 -9 q -24 -11 -6 -9 l -57 -12 q -75 -9 -65 -12 q -77 14 -77 1 l -68 17 l 6 24 l 52 32 q 67 40 57 34 m 580 356 q 602 355 595 356 l 618 355 l 703 359 l 814 367 q 842 370 829 369 q 846 407 844 382 q 850 439 850 433 l 863 636 l 873 763 q 834 732 865 759 q 796 701 820 723 l 640 551 l 612 526 q 582 496 597 509 q 553 469 566 483 q 535 452 546 461 q 514 433 524 443 q 494 414 505 425 q 471 390 484 402 q 444 361 463 381 q 495 354 455 354 l 530 355 q 580 356 554 356 m 835 945 q 914 1023 846 959 l 1097 1196 l 1136 1197 l 1149 944 l 1135 943 q 1116 1004 1133 948 l 1090 1091 q 1084 1109 1087 1101 l 856 946 l 835 945 z "},"":{"ha":955,"x_min":-4,"x_max":936,"o":"m 151 29 q 157 58 154 41 q 206 315 194 239 l 248 545 q 258 612 250 553 l 281 726 q 290 799 287 755 q 291 817 291 808 q 279 840 291 832 q 201 852 268 848 l 158 854 q 163 880 159 867 l 245 880 l 347 880 l 403 879 l 880 884 q 911 883 897 884 q 936 882 920 882 q 922 798 935 865 q 904 732 914 758 q 887 741 894 733 q 879 793 880 781 q 876 830 877 826 q 869 851 876 835 q 831 856 848 855 q 810 858 823 857 q 785 858 795 857 l 767 857 l 745 857 l 699 854 l 646 854 l 608 853 l 594 854 l 568 853 l 557 853 l 532 852 l 515 852 l 448 850 q 416 846 430 849 q 393 836 410 844 q 387 798 392 821 l 371 711 l 357 631 l 355 612 q 334 496 338 530 q 332 476 334 487 q 524 490 367 481 q 727 504 715 500 q 768 525 753 511 q 820 621 783 539 l 846 624 q 817 482 840 585 q 810 446 814 469 q 798 391 808 429 q 793 368 795 376 q 786 332 790 343 q 762 333 774 333 l 762 336 q 764 349 762 340 q 767 397 767 363 q 753 456 767 441 q 690 470 739 470 q 577 460 643 470 q 435 453 527 460 l 387 450 l 374 448 q 345 446 355 448 q 328 444 340 445 q 312 366 317 389 q 292 276 298 309 l 252 73 q 250 52 250 61 q 254 35 250 45 q 281 19 269 23 q 332 15 294 16 q 366 14 340 15 q 377 14 373 14 l 485 18 l 511 20 l 529 19 q 619 27 569 19 q 652 31 632 29 q 806 92 739 42 q 887 208 857 130 l 897 208 q 908 206 902 208 q 849 -5 901 173 q 638 -7 777 -7 l 538 -9 l 509 -9 l 424 -12 l 362 -10 l 296 -11 l 147 -10 l 114 -12 l 56 -10 l -3 -11 l -4 10 l 59 13 l 101 18 q 151 29 119 22 m 460 945 q 540 1023 472 959 l 723 1196 l 762 1197 l 775 944 l 761 943 q 742 1004 759 948 l 715 1091 q 709 1109 713 1101 l 481 946 l 460 945 z "},"":{"ha":1056,"x_min":-77,"x_max":1185,"o":"m 67 40 q 87 56 75 47 l 97 65 l 256 224 q 292 258 283 251 q 311 277 300 265 q 337 304 321 288 q 364 330 354 319 q 401 366 392 355 q 653 608 496 453 l 800 751 q 829 779 817 768 q 895 852 871 827 q 930 890 903 859 q 947 891 939 891 q 970 890 956 891 l 971 882 q 966 802 966 826 q 961 723 962 774 l 952 601 q 948 529 951 587 l 924 211 l 924 196 l 923 161 l 923 151 q 920 139 921 142 l 919 81 l 920 72 l 918 45 q 947 33 923 35 q 1036 16 1007 26 l 1037 7 q 1034 -9 1037 1 q 1004 -5 1009 -5 l 920 1 l 860 -1 q 764 -7 801 -7 l 747 -9 l 728 -9 q 692 -12 698 -12 q 668 -9 682 -12 l 669 10 q 714 18 689 16 q 789 30 755 20 q 802 32 798 32 l 805 32 q 814 45 812 39 q 828 153 819 58 q 839 296 838 247 q 840 332 840 321 q 801 333 832 333 q 560 328 762 333 l 423 323 q 409 321 418 322 q 386 302 399 316 q 351 272 372 288 q 262 188 321 241 q 221 148 238 166 l 170 93 q 153 77 161 85 q 142 68 148 73 q 133 54 138 61 q 134 37 134 47 q 184 24 153 27 q 214 21 198 23 q 248 16 237 17 q 262 12 256 15 q 256 -11 261 1 l 131 -2 l 37 -7 q 6 -9 16 -7 l -1 -9 q -24 -11 -6 -9 l -57 -12 q -75 -9 -65 -12 q -77 14 -77 1 l -68 17 l 6 24 l 52 32 q 67 40 57 34 m 580 356 q 602 355 595 356 l 618 355 l 703 359 l 814 367 q 842 370 829 369 q 846 407 844 382 q 850 439 850 433 l 863 636 l 873 763 q 834 732 865 759 q 796 701 820 723 l 640 551 l 612 526 q 582 496 597 509 q 553 469 566 483 q 535 452 546 461 q 514 433 524 443 q 494 414 505 425 q 471 390 484 402 q 444 361 463 381 q 495 354 455 354 l 530 355 q 580 356 554 356 m 972 964 l 960 965 q 1018 1048 961 968 q 1082 1136 1074 1128 q 1120 1168 1100 1157 q 1148 1175 1133 1175 q 1175 1165 1165 1175 q 1185 1143 1185 1156 q 1129 1076 1185 1114 l 972 964 z "},"":{"ha":955,"x_min":-4,"x_max":936,"o":"m 151 29 q 157 58 154 41 q 206 315 194 239 l 248 545 q 258 612 250 553 l 281 726 q 290 799 287 755 q 291 817 291 808 q 279 840 291 832 q 201 852 268 848 l 158 854 q 163 880 159 867 l 245 880 l 347 880 l 403 879 l 880 884 q 911 883 897 884 q 936 882 920 882 q 922 798 935 865 q 904 732 914 758 q 887 741 894 733 q 879 793 880 781 q 876 830 877 826 q 869 851 876 835 q 831 856 848 855 q 810 858 823 857 q 785 858 795 857 l 767 857 l 745 857 l 699 854 l 646 854 l 608 853 l 594 854 l 568 853 l 557 853 l 532 852 l 515 852 l 448 850 q 416 846 430 849 q 393 836 410 844 q 387 798 392 821 l 371 711 l 357 631 l 355 612 q 334 496 338 530 q 332 476 334 487 q 524 490 367 481 q 727 504 715 500 q 768 525 753 511 q 820 621 783 539 l 846 624 q 817 482 840 585 q 810 446 814 469 q 798 391 808 429 q 793 368 795 376 q 786 332 790 343 q 762 333 774 333 l 762 336 q 764 349 762 340 q 767 397 767 363 q 753 456 767 441 q 690 470 739 470 q 577 460 643 470 q 435 453 527 460 l 387 450 l 374 448 q 345 446 355 448 q 328 444 340 445 q 312 366 317 389 q 292 276 298 309 l 252 73 q 250 52 250 61 q 254 35 250 45 q 281 19 269 23 q 332 15 294 16 q 366 14 340 15 q 377 14 373 14 l 485 18 l 511 20 l 529 19 q 619 27 569 19 q 652 31 632 29 q 806 92 739 42 q 887 208 857 130 l 897 208 q 908 206 902 208 q 849 -5 901 173 q 638 -7 777 -7 l 538 -9 l 509 -9 l 424 -12 l 362 -10 l 296 -11 l 147 -10 l 114 -12 l 56 -10 l -3 -11 l -4 10 l 59 13 l 101 18 q 151 29 119 22 m 491 1038 q 507 1076 491 1059 q 546 1092 523 1092 q 585 1076 569 1092 q 601 1037 601 1060 q 585 998 601 1014 q 546 981 568 981 q 507 998 524 981 q 491 1038 491 1014 m 772 1091 q 812 1075 795 1091 q 828 1036 828 1059 q 812 997 828 1013 q 772 981 795 981 q 733 997 749 981 q 718 1038 718 1013 q 733 1075 718 1059 q 772 1091 749 1091 z "},"":{"ha":955,"x_min":-4,"x_max":936,"o":"m 151 29 q 157 58 154 41 q 206 315 194 239 l 248 545 q 258 612 250 553 l 281 726 q 290 799 287 755 q 291 817 291 808 q 279 840 291 832 q 201 852 268 848 l 158 854 q 163 880 159 867 l 245 880 l 347 880 l 403 879 l 880 884 q 911 883 897 884 q 936 882 920 882 q 922 798 935 865 q 904 732 914 758 q 887 741 894 733 q 879 793 880 781 q 876 830 877 826 q 869 851 876 835 q 831 856 848 855 q 810 858 823 857 q 785 858 795 857 l 767 857 l 745 857 l 699 854 l 646 854 l 608 853 l 594 854 l 568 853 l 557 853 l 532 852 l 515 852 l 448 850 q 416 846 430 849 q 393 836 410 844 q 387 798 392 821 l 371 711 l 357 631 l 355 612 q 334 496 338 530 q 332 476 334 487 q 524 490 367 481 q 727 504 715 500 q 768 525 753 511 q 820 621 783 539 l 846 624 q 817 482 840 585 q 810 446 814 469 q 798 391 808 429 q 793 368 795 376 q 786 332 790 343 q 762 333 774 333 l 762 336 q 764 349 762 340 q 767 397 767 363 q 753 456 767 441 q 690 470 739 470 q 577 460 643 470 q 435 453 527 460 l 387 450 l 374 448 q 345 446 355 448 q 328 444 340 445 q 312 366 317 389 q 292 276 298 309 l 252 73 q 250 52 250 61 q 254 35 250 45 q 281 19 269 23 q 332 15 294 16 q 366 14 340 15 q 377 14 373 14 l 485 18 l 511 20 l 529 19 q 619 27 569 19 q 652 31 632 29 q 806 92 739 42 q 887 208 857 130 l 897 208 q 908 206 902 208 q 849 -5 901 173 q 638 -7 777 -7 l 538 -9 l 509 -9 l 424 -12 l 362 -10 l 296 -11 l 147 -10 l 114 -12 l 56 -10 l -3 -11 l -4 10 l 59 13 l 101 18 q 151 29 119 22 m 680 965 l 667 965 q 473 1103 492 1083 q 453 1143 453 1124 q 463 1166 453 1157 q 487 1175 472 1175 q 525 1162 505 1175 q 589 1090 544 1149 q 680 965 655 1003 z "},"":{"ha":448,"x_min":11,"x_max":568,"o":"m 11 11 q 57 20 34 16 q 134 42 114 29 q 148 60 140 46 q 186 201 155 73 q 258 559 227 372 l 296 753 l 300 793 q 302 819 302 808 q 292 844 302 838 q 218 857 273 857 l 213 856 l 195 856 q 167 860 184 856 q 173 889 169 873 l 254 885 l 381 881 l 495 886 l 546 889 l 546 865 q 497 858 534 862 q 429 843 441 851 q 413 820 420 836 q 358 578 406 803 l 281 208 q 250 46 250 65 q 253 37 250 42 q 322 22 269 26 q 377 14 355 18 l 379 -7 q 369 -9 376 -9 l 353 -9 q 247 -12 321 -12 l 127 -9 l 95 -9 q 64 -11 91 -9 q 11 -12 38 -12 l 11 11 m 355 964 l 342 965 q 400 1048 344 968 q 465 1136 457 1128 q 503 1168 483 1157 q 531 1175 516 1175 q 558 1165 548 1175 q 568 1143 568 1156 q 512 1076 568 1114 l 355 964 z "},"":{"ha":448,"x_min":11,"x_max":546,"o":"m 11 11 q 57 20 34 16 q 134 42 114 29 q 148 60 140 46 q 186 201 155 73 q 258 559 227 372 l 296 753 l 300 793 q 302 819 302 808 q 292 844 302 838 q 218 857 273 857 l 213 856 l 195 856 q 167 860 184 856 q 173 889 169 873 l 254 885 l 381 881 l 495 886 l 546 889 l 546 865 q 497 858 534 862 q 429 843 441 851 q 413 820 420 836 q 358 578 406 803 l 281 208 q 250 46 250 65 q 253 37 250 42 q 322 22 269 26 q 377 14 355 18 l 379 -7 q 369 -9 376 -9 l 353 -9 q 247 -12 321 -12 l 127 -9 l 95 -9 q 64 -11 91 -9 q 11 -12 38 -12 l 11 11 m 189 945 q 268 1023 200 959 l 451 1196 l 490 1197 l 503 944 l 489 943 q 470 1004 487 948 l 444 1091 q 437 1109 441 1101 l 210 946 l 189 945 z "},"":{"ha":448,"x_min":11,"x_max":621,"o":"m 11 11 q 57 20 34 16 q 134 42 114 29 q 148 60 140 46 q 186 201 155 73 q 258 559 227 372 l 296 753 l 300 793 q 302 819 302 808 q 292 844 302 838 q 218 857 273 857 l 213 856 l 195 856 q 167 860 184 856 q 173 889 169 873 l 254 885 l 381 881 l 495 886 l 546 889 l 546 865 q 497 858 534 862 q 429 843 441 851 q 413 820 420 836 q 358 578 406 803 l 281 208 q 250 46 250 65 q 253 37 250 42 q 322 22 269 26 q 377 14 355 18 l 379 -7 q 369 -9 376 -9 l 353 -9 q 247 -12 321 -12 l 127 -9 l 95 -9 q 64 -11 91 -9 q 11 -12 38 -12 l 11 11 m 283 1038 q 299 1076 283 1059 q 338 1092 315 1092 q 377 1076 361 1092 q 393 1037 393 1060 q 377 998 393 1014 q 338 981 361 981 q 300 998 316 981 q 283 1038 283 1014 m 565 1091 q 604 1075 588 1091 q 621 1036 621 1059 q 604 997 621 1013 q 565 981 588 981 q 526 997 542 981 q 510 1038 510 1013 q 526 1075 510 1059 q 565 1091 542 1091 z "},"":{"ha":448,"x_min":11,"x_max":546,"o":"m 11 11 q 57 20 34 16 q 134 42 114 29 q 148 60 140 46 q 186 201 155 73 q 258 559 227 372 l 296 753 l 300 793 q 302 819 302 808 q 292 844 302 838 q 218 857 273 857 l 213 856 l 195 856 q 167 860 184 856 q 173 889 169 873 l 254 885 l 381 881 l 495 886 l 546 889 l 546 865 q 497 858 534 862 q 429 843 441 851 q 413 820 420 836 q 358 578 406 803 l 281 208 q 250 46 250 65 q 253 37 250 42 q 322 22 269 26 q 377 14 355 18 l 379 -7 q 369 -9 376 -9 l 353 -9 q 247 -12 321 -12 l 127 -9 l 95 -9 q 64 -11 91 -9 q 11 -12 38 -12 l 11 11 m 407 965 l 395 965 q 200 1103 220 1083 q 180 1143 180 1124 q 190 1166 180 1157 q 214 1175 199 1175 q 252 1162 233 1175 q 316 1090 271 1149 q 407 965 382 1003 z "},"":{"ha":941,"x_min":113,"x_max":937,"o":"m 113 393 q 141 536 113 463 q 214 688 169 610 q 316 802 229 715 q 437 873 345 830 q 534 895 475 891 q 573 899 549 896 q 613 901 596 901 q 859 768 753 901 q 937 498 937 670 q 912 360 937 439 q 839 212 887 281 q 727 88 791 144 q 593 6 664 32 q 453 -19 523 -19 q 293 26 365 -19 q 176 146 220 72 q 113 393 113 250 m 313 68 q 353 38 336 47 q 425 12 370 30 q 465 9 439 8 l 493 11 q 593 44 568 28 q 673 117 635 69 q 758 260 724 182 q 807 395 791 339 q 829 539 829 473 q 814 657 829 600 q 790 732 800 714 q 737 808 766 779 q 670 854 708 837 q 589 871 632 871 q 453 836 518 871 q 343 740 389 800 q 256 562 297 680 q 214 346 214 444 q 246 162 214 242 q 313 68 262 121 m 553 964 l 541 965 q 598 1048 542 968 q 663 1136 655 1128 q 701 1168 681 1157 q 729 1175 714 1175 q 756 1165 746 1175 q 766 1143 766 1156 q 710 1076 766 1114 l 553 964 z "},"":{"ha":941,"x_min":113,"x_max":937,"o":"m 113 393 q 141 536 113 463 q 214 688 169 610 q 316 802 229 715 q 437 873 345 830 q 534 895 475 891 q 573 899 549 896 q 613 901 596 901 q 859 768 753 901 q 937 498 937 670 q 912 360 937 439 q 839 212 887 281 q 727 88 791 144 q 593 6 664 32 q 453 -19 523 -19 q 293 26 365 -19 q 176 146 220 72 q 113 393 113 250 m 313 68 q 353 38 336 47 q 425 12 370 30 q 465 9 439 8 l 493 11 q 593 44 568 28 q 673 117 635 69 q 758 260 724 182 q 807 395 791 339 q 829 539 829 473 q 814 657 829 600 q 790 732 800 714 q 737 808 766 779 q 670 854 708 837 q 589 871 632 871 q 453 836 518 871 q 343 740 389 800 q 256 562 297 680 q 214 346 214 444 q 246 162 214 242 q 313 68 262 121 m 452 945 q 532 1023 464 959 l 715 1196 l 753 1197 l 767 944 l 753 943 q 734 1004 751 948 l 707 1091 q 701 1109 705 1101 l 473 946 l 452 945 z "},"":{"ha":941,"x_min":113,"x_max":937,"o":"m 113 393 q 141 536 113 463 q 214 688 169 610 q 316 802 229 715 q 437 873 345 830 q 534 895 475 891 q 573 899 549 896 q 613 901 596 901 q 859 768 753 901 q 937 498 937 670 q 912 360 937 439 q 839 212 887 281 q 727 88 791 144 q 593 6 664 32 q 453 -19 523 -19 q 293 26 365 -19 q 176 146 220 72 q 113 393 113 250 m 313 68 q 353 38 336 47 q 425 12 370 30 q 465 9 439 8 l 493 11 q 593 44 568 28 q 673 117 635 69 q 758 260 724 182 q 807 395 791 339 q 829 539 829 473 q 814 657 829 600 q 790 732 800 714 q 737 808 766 779 q 670 854 708 837 q 589 871 632 871 q 453 836 518 871 q 343 740 389 800 q 256 562 297 680 q 214 346 214 444 q 246 162 214 242 q 313 68 262 121 m 671 965 l 659 965 q 465 1103 484 1083 q 445 1143 445 1124 q 454 1166 445 1157 q 479 1175 464 1175 q 516 1162 497 1175 q 581 1090 536 1149 q 671 965 647 1003 z "},"":{"ha":998,"x_min":161,"x_max":1089,"o":"m 161 851 l 171 887 q 207 882 196 882 l 328 879 q 456 886 372 879 q 509 889 468 888 q 511 870 511 876 q 510 859 511 867 q 447 849 500 857 q 387 837 394 842 q 380 829 382 833 q 347 687 364 795 l 300 406 q 280 224 280 276 q 288 157 280 199 q 309 104 294 127 q 358 53 329 74 q 500 14 435 14 q 569 18 544 14 q 707 63 661 36 q 781 132 753 90 q 834 264 810 174 q 884 551 852 329 q 907 777 907 704 q 884 829 907 806 q 814 857 862 851 q 773 863 789 860 l 772 868 q 776 891 772 876 q 964 884 867 884 q 1046 888 998 884 l 1059 888 l 1088 888 l 1089 862 q 1048 854 1080 860 q 990 836 1006 846 q 962 804 973 825 q 937 713 943 772 l 907 484 q 867 269 894 382 q 816 129 848 188 q 749 52 795 92 q 652 0 715 22 q 503 -21 589 -21 q 456 -18 491 -21 q 334 6 392 -16 q 246 56 276 28 q 197 130 216 84 q 177 239 177 176 q 192 382 177 312 q 233 608 208 452 l 265 788 q 267 812 267 802 q 258 830 267 823 q 202 844 249 837 q 161 851 172 848 m 589 964 l 577 965 q 635 1048 578 968 q 699 1136 692 1128 q 737 1168 718 1157 q 766 1175 751 1175 q 792 1165 783 1175 q 802 1143 802 1156 q 747 1076 802 1114 l 589 964 z "},"":{"ha":998,"x_min":161,"x_max":1089,"o":"m 161 851 l 171 887 q 207 882 196 882 l 328 879 q 456 886 372 879 q 509 889 468 888 q 511 870 511 876 q 510 859 511 867 q 447 849 500 857 q 387 837 394 842 q 380 829 382 833 q 347 687 364 795 l 300 406 q 280 224 280 276 q 288 157 280 199 q 309 104 294 127 q 358 53 329 74 q 500 14 435 14 q 569 18 544 14 q 707 63 661 36 q 781 132 753 90 q 834 264 810 174 q 884 551 852 329 q 907 777 907 704 q 884 829 907 806 q 814 857 862 851 q 773 863 789 860 l 772 868 q 776 891 772 876 q 964 884 867 884 q 1046 888 998 884 l 1059 888 l 1088 888 l 1089 862 q 1048 854 1080 860 q 990 836 1006 846 q 962 804 973 825 q 937 713 943 772 l 907 484 q 867 269 894 382 q 816 129 848 188 q 749 52 795 92 q 652 0 715 22 q 503 -21 589 -21 q 456 -18 491 -21 q 334 6 392 -16 q 246 56 276 28 q 197 130 216 84 q 177 239 177 176 q 192 382 177 312 q 233 608 208 452 l 265 788 q 267 812 267 802 q 258 830 267 823 q 202 844 249 837 q 161 851 172 848 m 484 945 q 563 1023 495 959 l 746 1196 l 785 1197 l 798 944 l 784 943 q 765 1004 782 948 l 739 1091 q 732 1109 736 1101 l 505 946 l 484 945 z "},"":{"ha":998,"x_min":161,"x_max":1089,"o":"m 161 851 l 171 887 q 207 882 196 882 l 328 879 q 456 886 372 879 q 509 889 468 888 q 511 870 511 876 q 510 859 511 867 q 447 849 500 857 q 387 837 394 842 q 380 829 382 833 q 347 687 364 795 l 300 406 q 280 224 280 276 q 288 157 280 199 q 309 104 294 127 q 358 53 329 74 q 500 14 435 14 q 569 18 544 14 q 707 63 661 36 q 781 132 753 90 q 834 264 810 174 q 884 551 852 329 q 907 777 907 704 q 884 829 907 806 q 814 857 862 851 q 773 863 789 860 l 772 868 q 776 891 772 876 q 964 884 867 884 q 1046 888 998 884 l 1059 888 l 1088 888 l 1089 862 q 1048 854 1080 860 q 990 836 1006 846 q 962 804 973 825 q 937 713 943 772 l 907 484 q 867 269 894 382 q 816 129 848 188 q 749 52 795 92 q 652 0 715 22 q 503 -21 589 -21 q 456 -18 491 -21 q 334 6 392 -16 q 246 56 276 28 q 197 130 216 84 q 177 239 177 176 q 192 382 177 312 q 233 608 208 452 l 265 788 q 267 812 267 802 q 258 830 267 823 q 202 844 249 837 q 161 851 172 848 m 703 965 l 690 965 q 496 1103 515 1083 q 476 1143 476 1124 q 486 1166 476 1157 q 510 1175 495 1175 q 548 1162 528 1175 q 612 1090 567 1149 q 703 965 678 1003 z "},"":{"ha":318,"x_min":53,"x_max":349,"o":"m 261 502 q 140 412 208 488 l 103 406 q 212 510 144 467 q 321 553 279 553 q 341 545 333 553 q 349 525 349 537 q 347 510 349 517 q 328 456 345 503 q 246 287 318 429 l 148 106 q 133 73 136 83 q 130 47 130 62 q 138 43 134 43 q 186 66 161 43 q 277 167 254 127 q 303 165 289 167 q 245 83 284 130 q 164 12 206 36 q 94 -13 123 -13 q 64 -3 75 -13 q 53 18 53 7 q 130 216 53 75 q 245 429 223 382 q 261 460 256 450 q 271 482 271 475 q 261 502 271 488 z "},"":{"ha":463,"x_min":227,"x_max":542,"o":"m 227 613 q 307 691 239 627 l 490 864 l 528 865 l 542 612 l 528 611 q 509 671 526 616 l 482 759 q 476 777 479 769 l 248 614 l 227 613 z "},"":{"ha":463,"x_min":220,"x_max":607,"o":"m 596 819 l 606 819 q 607 801 607 808 q 574 714 607 749 q 496 680 541 680 q 450 689 474 680 q 376 732 427 699 q 294 765 326 765 q 255 746 272 765 q 233 680 237 727 l 220 680 l 220 686 q 253 783 220 748 q 330 818 285 818 q 432 780 373 818 q 503 737 490 743 q 532 730 522 730 q 572 749 554 730 q 596 819 589 768 z "},"":{"ha":463,"x_min":276,"x_max":562,"o":"m 538 639 l 515 638 l 403 639 l 304 638 q 276 639 300 638 q 303 684 288 663 l 534 682 l 562 684 q 538 639 549 657 z "},"":{"ha":463,"x_min":285,"x_max":590,"o":"m 285 840 l 307 840 q 343 754 311 783 q 429 726 375 726 q 514 752 478 726 q 570 840 549 779 q 579 840 576 840 l 590 840 q 533 707 581 772 q 420 642 484 642 q 360 659 388 642 q 315 705 332 675 q 292 773 298 735 q 285 827 285 812 l 285 840 z "},"":{"ha":463,"x_min":410,"x_max":521,"o":"m 465 798 q 505 781 489 798 q 521 743 521 765 q 505 703 521 720 q 465 687 488 687 q 427 703 443 687 q 410 743 410 720 q 426 781 410 765 q 465 798 442 798 z "},"":{"ha":463,"x_min":313,"x_max":538,"o":"m 313 742 q 346 823 313 789 q 426 856 379 856 q 505 823 472 856 q 538 743 538 790 q 505 664 538 697 q 426 631 472 631 q 346 663 379 631 q 313 742 313 696 m 426 661 q 485 685 460 661 q 509 743 509 709 q 484 802 509 777 q 426 826 460 826 q 368 802 392 826 q 344 743 344 778 q 368 685 344 709 q 426 661 391 661 z "},"":{"ha":463,"x_min":33,"x_max":205,"o":"m 115 -123 q 124 -97 117 -112 q 172 10 132 -83 l 190 9 q 173 -34 184 -9 q 156 -77 161 -58 l 157 -86 q 176 -109 161 -92 q 205 -193 205 -142 q 173 -277 205 -243 q 90 -310 140 -310 q 43 -298 59 -310 q 33 -274 33 -290 q 39 -254 33 -262 q 50 -247 45 -247 q 70 -258 58 -247 q 114 -281 94 -281 q 153 -262 136 -281 q 170 -216 170 -243 q 137 -153 170 -177 q 117 -135 120 -140 q 115 -123 115 -132 z "},"":{"ha":463,"x_min":313,"x_max":702,"o":"m 325 640 l 313 640 q 371 723 314 644 q 435 811 427 803 q 473 843 453 832 q 501 850 486 850 q 528 841 518 850 q 538 819 538 831 q 482 751 538 789 l 325 640 m 488 640 l 476 640 q 534 723 477 644 q 598 811 591 803 q 636 843 616 832 q 665 850 650 850 q 692 841 682 850 q 702 819 702 831 q 646 751 702 789 l 488 640 z "},"":{"ha":463,"x_min":81,"x_max":362,"o":"m 125 11 l 157 11 q 146 -47 146 -24 q 179 -126 146 -93 q 260 -160 213 -160 q 347 -128 300 -160 l 362 -145 q 283 -197 315 -184 q 214 -211 251 -211 q 119 -175 157 -211 q 81 -93 81 -139 q 125 11 81 -38 z "},"":{"ha":463,"x_min":346,"x_max":664,"o":"m 346 867 l 359 867 l 412 705 l 643 867 l 664 867 l 400 613 l 377 612 q 361 612 372 612 q 346 867 359 620 z "},"":{"ha":868,"x_min":-5,"x_max":930,"o":"m 207 358 l 43 220 l 54 279 l 216 414 l 218 428 l 218 433 l 251 636 l 269 773 l 269 780 q 267 811 269 804 q 258 827 265 817 q 208 844 240 838 q 141 852 176 851 q 146 878 142 864 q 220 876 200 878 q 360 873 273 873 q 389 874 375 873 q 427 876 408 876 l 513 877 l 513 864 q 511 850 513 858 q 486 848 501 848 q 403 828 423 845 q 372 758 383 810 l 333 513 l 501 654 l 490 596 l 324 457 l 276 181 q 263 67 263 79 q 273 37 263 45 q 318 24 287 24 l 397 25 l 538 24 q 673 36 612 24 q 785 76 733 47 q 850 127 819 95 q 899 201 861 140 q 907 215 901 206 q 930 213 920 215 q 923 176 927 189 l 877 28 q 864 -5 871 10 q 801 -7 819 -7 l 760 -5 l 591 -7 l 490 -5 l 361 -7 l 219 -3 l 162 -2 l 64 -5 q -5 -6 56 -6 l -5 -1 q -2 20 -5 8 l 91 27 q 123 35 102 29 q 146 54 139 44 l 157 67 l 172 156 l 207 358 z "},"":{"ha":434,"x_min":114,"x_max":540,"o":"m 392 530 l 540 648 q 522 598 528 622 q 439 530 507 576 q 373 477 416 513 q 304 299 357 432 q 227 112 252 167 q 203 53 203 58 l 206 45 q 264 75 229 47 q 357 178 315 115 q 378 180 371 180 l 387 180 q 330 99 360 130 q 263 37 281 50 q 185 -8 222 7 q 138 -18 161 -18 q 120 -12 126 -18 q 114 4 114 -6 q 222 283 114 35 q 268 394 249 343 l 117 276 q 136 327 127 300 q 290 449 193 373 l 355 620 q 410 751 374 666 q 438 827 430 797 q 439 837 439 833 q 430 856 439 848 q 372 878 418 867 l 374 897 q 500 903 457 903 l 530 903 l 530 893 l 509 827 q 453 686 507 825 l 392 530 z "},"":{"ha":694,"x_min":40,"x_max":834,"o":"m 63 180 q 86 178 75 180 q 140 30 92 83 q 216 4 174 7 l 241 3 q 327 16 283 1 q 390 50 371 31 q 439 127 415 76 q 449 186 449 149 q 446 223 449 208 q 426 288 441 249 q 389 374 412 327 l 323 511 q 288 605 307 546 q 280 671 280 632 q 302 767 280 725 q 367 841 325 809 q 441 882 409 872 q 536 896 485 896 q 727 856 630 896 q 717 786 725 817 q 693 712 705 743 q 671 714 680 712 q 654 802 670 751 q 616 852 646 831 q 546 873 586 873 q 425 828 470 873 q 379 706 379 783 q 391 624 379 664 q 463 467 404 585 q 507 370 492 409 q 526 313 510 362 q 543 252 542 263 q 547 209 547 233 q 478 56 547 113 q 233 -21 385 -21 q 40 9 137 -21 l 40 14 q 47 63 40 26 q 58 146 50 77 q 63 180 60 159 m 516 1190 l 530 1190 l 582 1027 l 813 1190 l 834 1190 l 570 936 l 547 935 q 531 935 542 935 q 516 1190 530 943 z "},"":{"ha":405,"x_min":36,"x_max":633,"o":"m 78 116 q 134 64 112 116 q 155 30 144 38 q 180 21 164 21 q 235 48 209 21 q 256 111 256 68 q 233 208 256 143 q 200 356 200 302 q 242 494 200 434 q 375 555 284 555 q 437 534 414 555 q 460 483 460 513 q 449 450 460 463 q 423 437 437 437 q 370 466 393 437 q 338 500 346 495 q 313 504 330 504 q 279 488 294 504 q 264 448 264 471 q 297 295 264 393 q 330 143 330 197 q 308 73 330 109 q 242 13 287 37 q 149 -12 197 -12 q 64 12 92 -12 q 36 71 36 37 q 47 103 36 91 q 78 116 59 116 m 315 867 l 328 867 l 380 705 l 612 867 l 633 867 l 369 613 l 346 612 q 330 612 340 612 q 315 867 328 620 z "},"":{"ha":839,"x_min":58,"x_max":901,"o":"m 58 1 l 58 9 l 70 24 q 370 384 211 185 l 669 762 q 715 823 685 782 q 740 852 728 839 q 586 856 667 856 q 454 850 546 856 q 365 836 391 845 q 308 806 329 824 q 257 733 288 787 q 242 699 253 718 q 209 701 227 699 q 224 782 216 753 l 250 881 q 661 882 277 882 l 845 883 q 876 882 856 883 q 877 869 877 875 q 875 857 877 863 q 850 821 857 831 l 703 642 q 667 599 686 623 q 576 486 649 575 l 459 338 l 352 209 l 248 83 q 203 31 217 49 l 220 30 q 372 33 310 30 q 395 33 387 33 l 463 35 q 573 44 498 35 q 640 60 601 47 q 664 79 647 63 q 701 119 691 103 q 751 209 732 170 l 778 206 l 778 201 l 776 193 q 740 3 746 24 l 524 3 q 378 1 472 3 l 245 1 l 113 0 q 58 1 84 0 m 583 1184 l 597 1184 l 649 1022 l 880 1185 l 901 1185 l 637 930 l 614 929 q 598 930 609 929 q 583 1184 597 937 z "},"":{"ha":578,"x_min":81,"x_max":726,"o":"m 560 406 l 487 404 q 333 462 419 404 q 248 494 286 494 q 184 469 210 494 q 159 410 159 445 q 171 369 159 391 l 180 368 q 189 382 186 374 q 206 410 195 401 q 232 419 217 419 q 260 406 248 419 q 274 361 271 393 q 250 326 267 338 q 209 313 232 313 q 157 338 179 313 q 135 404 135 363 q 187 508 135 460 q 308 555 239 555 q 442 501 371 555 q 528 439 513 447 q 553 432 543 432 q 576 442 565 432 l 582 454 q 600 516 590 505 q 631 531 612 531 q 661 519 648 531 q 674 493 674 507 q 661 450 674 469 q 588 379 644 425 q 530 323 572 366 q 475 271 505 298 l 405 212 q 266 87 340 149 q 278 80 274 82 q 342 45 336 50 q 377 -3 357 32 q 417 -109 397 -39 l 451 -224 q 471 -269 457 -240 q 489 -293 481 -281 q 572 -328 519 -328 q 624 -318 610 -328 q 634 -301 634 -312 q 631 -287 634 -296 q 608 -277 627 -283 q 586 -265 590 -271 q 578 -241 578 -254 q 591 -214 578 -226 q 625 -201 605 -201 q 639 -205 631 -201 q 665 -225 654 -210 q 675 -267 675 -241 q 648 -329 675 -305 q 559 -353 620 -353 q 488 -344 511 -353 q 420 -295 452 -329 q 367 -216 389 -262 q 335 -118 358 -198 q 305 -18 313 -37 q 264 45 286 26 q 237 56 252 56 q 196 29 222 56 q 123 -12 157 -12 q 94 1 107 -12 q 81 31 81 14 q 106 73 81 53 q 180 92 130 92 q 215 95 208 92 q 291 153 235 104 l 492 334 q 560 406 521 359 m 408 867 l 422 867 l 474 705 l 705 867 l 726 867 l 463 613 l 439 612 q 423 612 434 612 q 408 867 422 620 z "},"":{"ha":694,"x_min":366,"x_max":427,"o":"m 366 891 l 427 891 l 427 402 l 366 402 l 366 891 m 366 146 l 427 146 l 427 -342 l 366 -342 l 366 146 z "},"":{"ha":1056,"x_min":47,"x_max":1042,"o":"m 249 429 l 124 429 l 131 460 l 256 460 l 296 646 q 309 723 298 656 q 325 802 321 789 q 331 829 331 820 q 319 847 331 840 q 240 858 307 854 q 193 863 212 859 l 192 872 q 197 888 192 878 q 242 886 208 888 q 298 885 288 885 q 326 886 312 885 q 366 888 361 888 q 496 886 425 888 l 600 887 l 632 885 l 705 886 q 817 867 764 886 q 912 817 871 848 q 991 731 954 785 q 1028 646 1015 695 q 1042 557 1042 597 q 1006 390 1042 479 q 904 223 970 300 q 744 88 837 146 q 574 21 677 47 q 385 -5 471 -5 l 260 -4 l 196 -8 q 102 -9 180 -9 q 47 -7 64 -9 l 47 16 l 125 25 q 163 35 153 29 q 172 43 168 37 q 189 101 179 54 q 218 262 210 203 q 249 429 220 274 m 349 429 q 300 191 313 243 q 281 79 281 117 q 301 36 281 50 q 414 22 322 22 q 477 31 422 22 q 616 73 553 44 q 733 148 679 101 q 830 260 788 195 q 892 380 873 325 q 927 545 927 479 q 888 695 927 626 q 798 799 849 764 q 657 845 747 833 q 499 857 566 857 q 432 851 455 857 q 421 796 431 839 q 406 716 411 753 q 356 460 401 680 l 670 460 l 664 429 l 349 429 z "},"":{"ha":550,"x_min":81,"x_max":591,"o":"m 582 783 l 591 757 l 455 718 q 509 444 509 573 q 454 198 509 311 q 332 33 400 85 q 197 -18 264 -18 q 115 22 148 -18 q 81 145 81 62 q 195 441 81 304 q 377 550 286 550 q 407 546 390 550 q 443 532 423 541 q 415 704 441 618 l 292 671 l 282 696 l 404 733 l 368 810 q 321 876 357 828 l 343 892 q 397 829 370 870 q 443 745 425 789 l 582 783 m 140 70 q 155 26 140 42 q 203 11 171 11 q 265 39 235 11 q 377 225 313 85 q 441 456 441 366 q 428 504 441 488 q 397 520 414 520 q 351 506 376 520 q 293 451 327 491 q 230 360 258 412 q 166 208 192 293 q 140 70 140 123 z "},"":{"ha":897,"x_min":99,"x_max":1056,"o":"m 100 893 l 111 894 q 139 892 118 894 l 229 884 q 421 890 309 884 q 437 890 433 890 l 445 890 q 448 874 448 880 q 447 864 448 871 l 353 848 q 339 833 339 844 q 341 824 339 829 l 374 758 q 456 583 422 661 q 524 458 477 531 q 683 615 656 591 q 739 669 710 638 q 818 746 781 711 q 876 826 876 801 q 863 849 876 841 q 760 867 833 866 q 738 867 753 867 l 737 875 q 741 890 737 880 l 757 891 l 846 891 l 916 888 q 1001 891 956 888 q 1056 893 1030 893 q 1055 878 1055 884 q 1055 866 1055 871 q 1040 863 1047 864 q 981 847 1029 861 q 937 821 958 836 q 894 780 922 809 q 875 762 882 769 q 812 702 833 721 q 726 621 790 683 l 546 446 q 538 412 543 433 q 521 338 529 376 q 503 259 509 286 l 489 199 q 479 158 483 172 q 466 70 466 111 q 476 39 466 47 q 546 24 496 25 q 579 23 566 24 q 604 20 593 21 q 605 12 605 15 q 602 -1 605 7 q 508 -3 569 -3 l 462 -1 q 422 1 441 1 q 379 -1 410 1 q 218 -5 278 -5 q 196 -4 214 -5 l 201 16 l 329 37 q 344 45 340 40 q 363 93 353 56 l 393 199 q 439 417 431 369 q 335 623 417 456 q 278 732 294 705 q 226 835 237 819 q 212 849 218 846 q 141 861 210 850 q 100 865 112 863 q 99 875 99 870 l 100 893 m 543 964 l 531 965 q 589 1048 532 968 q 653 1136 646 1128 q 691 1168 671 1157 q 720 1175 705 1175 q 746 1165 736 1175 q 756 1143 756 1156 q 701 1076 756 1114 l 543 964 z "},"":{"ha":463,"x_min":-299,"x_max":562,"o":"m -192 -281 q -167 -301 -178 -297 q -132 -306 -157 -306 q -47 -286 -96 -306 q 24 -244 1 -266 q 125 -150 68 -215 q 177 -60 155 -115 q 210 79 199 -5 q 220 223 220 163 q 217 353 220 258 q 207 441 214 417 q 188 475 199 465 q 172 480 182 480 q 145 467 157 480 q 98 356 121 437 l 93 355 q 76 362 86 355 q 110 473 100 451 q 146 533 131 516 q 178 553 156 543 q 195 555 189 555 q 258 504 234 555 q 290 312 290 433 q 282 176 290 257 q 266 56 275 94 q 253 -12 254 1 q 260 -2 256 -9 q 335 123 304 63 q 379 230 359 168 q 411 358 399 292 q 418 444 418 397 q 417 473 418 461 q 416 493 416 490 q 429 543 416 526 q 452 553 435 553 q 478 543 470 553 q 487 512 487 534 q 448 350 487 479 q 339 73 395 171 q 142 -189 254 -75 q -16 -302 66 -267 q -158 -338 -98 -338 q -269 -317 -239 -338 q -299 -275 -299 -296 q -289 -252 -299 -262 q -265 -242 -279 -242 q -225 -252 -246 -242 q -192 -281 -215 -258 m 349 640 l 337 640 q 395 723 338 644 q 459 811 452 803 q 497 843 477 832 q 526 850 511 850 q 552 841 543 850 q 562 819 562 831 q 507 751 562 789 l 349 640 z "},"":{"ha":767,"x_min":32,"x_max":773,"o":"m 383 686 q 493 695 427 695 q 610 672 556 695 q 622 667 614 670 l 669 640 q 720 594 708 610 q 758 528 743 566 q 773 452 773 490 q 768 408 773 426 l 752 349 q 723 296 742 324 q 692 264 714 283 q 675 249 683 256 q 585 195 637 219 q 524 180 558 184 q 450 171 458 171 q 294 209 381 171 q 288 182 292 201 q 281 141 284 163 q 274 104 278 119 q 267 64 267 79 q 278 44 267 53 q 327 33 289 36 q 380 22 365 29 q 379 5 379 11 q 377 -9 379 -4 q 296 -3 359 -9 l 163 -1 q 32 -8 101 -1 l 32 19 q 45 22 38 22 q 139 37 111 27 q 167 57 158 44 q 184 117 171 63 q 222 297 188 147 q 235 378 227 329 q 249 463 238 391 q 264 547 250 475 l 280 635 l 283 661 q 313 838 313 801 q 309 850 313 842 q 274 859 298 857 q 256 861 269 859 l 222 861 l 207 860 l 196 859 q 175 863 189 859 q 183 892 176 871 q 265 888 193 892 q 361 884 337 884 q 422 886 383 884 l 426 886 q 549 892 510 888 l 549 866 q 536 863 543 863 q 429 841 454 856 q 407 807 412 831 l 405 799 l 383 686 m 378 659 l 331 399 l 298 243 l 296 231 q 355 212 336 216 q 420 205 387 206 q 442 207 429 205 q 520 229 481 210 q 589 276 574 262 q 637 337 617 302 q 661 393 656 372 q 669 465 669 434 q 640 563 669 511 q 561 640 610 614 q 444 665 512 665 q 378 659 406 665 z "},"":{"ha":564,"x_min":-196,"x_max":568,"o":"m -192 -328 q -126 -317 -167 -321 q -96 -313 -105 -315 q -76 -309 -85 -311 q -62 -300 -66 -305 q -44 -264 -55 -292 l 23 -88 q 50 -12 37 -54 q 68 40 58 15 q 79 73 78 65 q 86 95 83 88 l 149 271 q 200 420 153 281 q 226 504 214 462 q 142 485 178 496 q 121 479 134 483 q 90 469 96 469 q 73 473 84 469 l 71 481 q 82 497 71 490 q 239 545 115 518 q 310 775 275 680 q 332 844 326 819 q 355 900 342 885 q 372 901 363 901 q 400 900 382 901 q 412 880 412 888 l 409 871 q 400 840 408 867 q 378 777 396 825 q 312 556 348 696 q 352 558 342 558 q 385 557 363 558 l 388 557 q 463 538 424 557 q 543 465 518 511 q 568 359 568 419 q 551 262 568 313 q 497 157 533 210 q 415 67 461 103 q 333 18 369 31 q 227 -10 252 -10 q 184 -5 208 -10 q 132 12 160 1 q 42 -224 105 -43 q 22 -277 30 -260 q 15 -304 15 -294 l 16 -310 l 23 -316 q 67 -323 41 -321 q 111 -328 92 -324 q 120 -332 115 -330 l 123 -343 q 120 -351 123 -347 q 79 -349 94 -349 q 64 -350 70 -349 l 47 -351 l -77 -346 q -130 -350 -111 -346 q -170 -349 -153 -349 l -195 -349 l -196 -344 q -192 -328 -196 -338 m 372 94 q 462 235 435 163 q 489 361 489 307 q 479 431 489 396 q 460 465 475 450 q 419 496 439 487 q 336 510 387 510 q 298 508 320 510 q 224 291 254 368 l 168 129 q 159 91 161 109 q 157 71 157 81 q 170 37 157 47 q 226 22 190 22 q 288 35 258 22 q 372 94 311 45 z "},"":{"ha":926,"x_min":148,"x_max":876,"o":"m 148 462 l 876 462 l 876 401 l 148 401 l 148 462 z "},"":{"ha":926,"x_min":182,"x_max":843,"o":"m 182 719 l 224 762 l 513 472 l 802 762 l 843 719 l 555 429 l 840 144 l 798 102 l 513 388 l 225 102 l 183 144 l 470 429 l 182 719 z "},"":{"ha":391,"x_min":178,"x_max":408,"o":"m 187 421 l 308 791 q 180 732 243 755 l 178 762 q 368 879 306 814 l 408 879 l 258 421 l 187 421 z "},"":{"ha":391,"x_min":68,"x_max":471,"o":"m 387 474 l 370 421 l 68 421 l 73 436 q 354 682 315 634 q 393 773 393 730 q 376 822 393 806 q 329 839 360 839 q 267 821 292 839 q 216 755 242 804 l 178 755 q 244 848 201 817 q 340 879 286 879 q 437 849 404 879 q 471 777 471 820 q 457 724 471 747 q 383 644 438 690 q 164 474 357 621 l 387 474 z "},"":{"ha":391,"x_min":73,"x_max":444,"o":"m 258 785 l 228 798 q 275 856 241 833 q 353 879 309 879 q 421 860 398 879 q 444 814 444 840 q 427 770 444 791 q 338 710 409 750 q 395 679 380 698 q 411 633 411 659 q 373 536 411 589 q 262 448 336 483 q 104 413 188 413 q 73 414 92 413 l 79 437 q 282 513 205 437 q 337 621 337 568 q 324 658 337 644 q 291 671 311 671 q 206 632 254 671 q 186 654 193 642 q 253 694 213 674 q 347 757 324 732 q 370 810 370 782 q 360 833 370 825 q 332 842 351 842 q 258 785 284 842 z "},"":{"ha":1027,"x_min":178,"x_max":1048,"o":"m 187 421 l 308 791 q 180 732 243 755 l 178 762 q 368 879 306 814 l 408 879 l 258 421 l 187 421 m 237 -44 l 294 50 q 348 132 320 92 q 545 437 395 199 l 823 878 l 829 880 q 863 878 859 878 l 576 414 q 532 341 537 350 q 515 319 526 329 l 503 302 q 450 216 471 252 q 435 191 443 202 l 278 -45 q 242 -44 270 -45 l 237 -44 m 964 52 l 947 -1 l 646 -1 l 650 14 q 931 260 892 212 q 970 351 970 309 q 954 400 970 384 q 906 417 937 417 q 844 399 869 417 q 793 334 819 382 l 755 334 q 821 426 779 395 q 917 457 863 457 q 1014 428 981 457 q 1048 355 1048 398 q 1034 302 1048 326 q 960 222 1015 269 q 741 52 935 199 l 964 52 z "},"":{"ha":1027,"x_min":178,"x_max":1014,"o":"m 187 421 l 308 791 q 180 732 243 755 l 178 762 q 368 879 306 814 l 408 879 l 258 421 l 187 421 m 237 -44 l 294 50 q 348 132 320 92 q 545 437 395 199 l 823 878 l 829 880 q 863 878 859 878 l 576 414 q 532 341 537 350 q 515 319 526 329 l 503 302 q 450 216 471 252 q 435 191 443 202 l 278 -45 q 242 -44 270 -45 l 237 -44 m 788 0 l 831 132 l 646 132 l 650 163 l 979 458 l 1014 458 l 918 172 l 1014 172 l 1002 132 l 905 132 l 861 0 l 788 0 m 845 172 l 903 348 l 707 172 l 845 172 z "},"":{"ha":1027,"x_min":73,"x_max":1014,"o":"m 258 785 l 228 798 q 275 856 241 833 q 353 879 309 879 q 421 860 398 879 q 444 814 444 840 q 427 770 444 791 q 338 710 409 750 q 395 679 380 698 q 411 633 411 659 q 373 536 411 589 q 262 448 336 483 q 104 413 188 413 q 73 414 92 413 l 79 437 q 282 513 205 437 q 337 621 337 568 q 324 658 337 644 q 291 671 311 671 q 206 632 254 671 q 186 654 193 642 q 253 694 213 674 q 347 757 324 732 q 370 810 370 782 q 360 833 370 825 q 332 842 351 842 q 258 785 284 842 m 237 -44 l 294 50 q 348 132 320 92 q 545 437 395 199 l 823 878 l 829 880 q 863 878 859 878 l 576 414 q 532 341 537 350 q 515 319 526 329 l 503 302 q 450 216 471 252 q 435 191 443 202 l 278 -45 q 242 -44 270 -45 l 237 -44 m 788 0 l 831 132 l 646 132 l 650 163 l 979 458 l 1014 458 l 918 172 l 1014 172 l 1002 132 l 905 132 l 861 0 l 788 0 m 845 172 l 903 348 l 707 172 l 845 172 z "},"":{"ha":868,"x_min":-53,"x_max":934,"o":"m 586 201 l 583 189 q 622 262 593 205 q 781 521 732 471 q 865 556 817 556 q 916 534 892 556 q 934 490 934 517 q 914 436 934 458 q 876 420 901 420 q 846 430 854 420 q 836 479 837 440 q 815 497 827 497 q 793 486 804 497 q 670 299 760 456 q 557 80 580 141 q 520 -5 534 18 q 492 -16 513 -16 q 466 -10 474 -16 q 458 7 458 -3 q 465 38 458 20 q 559 302 515 158 q 591 398 583 376 q 604 444 604 427 q 589 471 604 460 q 528 481 574 481 l 515 481 q 408 479 484 479 l 383 479 q 355 479 369 479 q 318 478 340 479 q 286 477 295 477 q 269 475 275 477 q 237 257 259 420 q 227 190 231 212 q 219 149 222 169 q 208 71 216 117 q 205 33 205 50 q 217 27 213 28 q 324 15 288 16 q 347 14 332 15 q 348 3 348 7 q 346 -10 348 -1 q 326 -9 332 -9 q 301 -11 319 -9 q 279 -12 288 -12 q 220 -5 264 -12 q 182 -4 201 -5 q 155 -3 163 -3 q 23 -7 68 -3 q -20 -9 -7 -9 q -53 -6 -36 -9 q -43 19 -50 9 q 22 24 -18 23 l 61 24 l 88 28 q 98 33 92 30 q 107 62 104 46 q 161 393 117 109 q 184 571 180 511 q 214 783 203 673 q 217 823 217 808 q 194 854 217 847 q 75 865 180 859 l 76 888 l 125 888 q 150 888 140 888 q 302 883 200 884 l 334 882 l 574 888 l 629 889 l 684 888 l 730 888 l 760 888 l 771 888 l 783 888 l 838 886 q 836 873 837 877 q 833 851 834 862 l 810 758 q 804 741 809 755 l 782 743 q 774 801 781 774 q 758 845 769 838 q 680 860 736 860 l 428 856 q 319 848 353 855 l 317 836 l 301 701 l 276 512 q 336 509 292 510 q 357 507 351 508 l 363 507 l 468 513 l 509 513 q 535 512 516 513 q 562 511 554 511 q 623 526 608 511 q 658 602 637 541 q 668 625 663 616 q 699 627 687 627 q 724 616 715 627 q 718 586 722 601 q 667 414 695 499 q 624 291 640 330 l 586 201 z "},"":{"ha":984,"x_min":98,"x_max":985,"o":"m 102 385 q 124 471 111 428 q 150 534 127 480 l 162 553 l 170 569 q 268 693 222 643 q 351 770 313 744 q 486 838 413 813 q 650 880 585 873 l 724 889 q 760 890 735 890 q 913 882 821 890 q 980 871 960 878 q 981 847 981 855 q 979 821 981 833 l 969 753 q 959 718 966 737 q 934 723 947 719 l 924 797 q 913 839 918 830 q 903 850 908 848 q 868 861 890 858 q 812 865 820 865 q 682 851 738 865 q 548 806 601 830 q 440 736 495 783 q 357 652 386 690 l 345 640 q 307 589 326 612 q 241 444 279 547 q 218 317 218 382 l 220 275 q 221 262 221 271 q 249 177 230 216 q 296 108 269 138 q 370 52 324 78 q 441 24 405 31 q 526 13 493 13 q 672 28 611 13 q 728 60 707 37 q 747 97 740 73 q 775 252 775 202 q 759 279 775 273 q 689 294 718 294 l 646 294 q 625 300 637 294 q 637 320 635 319 l 662 321 l 715 319 l 771 321 q 816 320 787 321 q 856 319 844 319 q 905 320 888 319 q 930 321 922 321 l 985 319 l 985 298 q 948 290 970 294 q 899 275 909 285 q 877 224 884 259 q 855 121 866 165 l 837 31 l 691 -3 q 619 -16 639 -14 l 555 -23 q 422 -16 490 -23 q 384 -7 407 -15 l 300 24 q 222 72 271 39 q 162 128 174 114 q 121 198 138 159 q 106 252 111 220 q 98 322 98 299 l 102 385 m 600 1162 l 621 1162 q 658 1077 626 1106 q 744 1048 690 1048 q 828 1075 793 1048 q 885 1162 864 1101 q 894 1163 890 1163 l 905 1163 q 847 1030 896 1095 q 734 964 799 964 q 675 981 703 964 q 630 1028 647 998 q 606 1096 613 1058 q 600 1150 600 1135 l 600 1162 z "},"":{"ha":448,"x_min":-129,"x_max":617,"o":"m 127 -33 q 60 27 75 9 q 55 42 55 34 q 62 60 55 52 q 97 80 69 68 q 186 132 124 92 q 154 168 179 142 l 132 192 q 117 232 124 207 q 111 282 111 257 q 123 361 111 323 q 169 456 142 417 q 223 517 195 495 q 269 541 242 532 q 340 556 311 556 q 410 539 375 556 q 461 528 432 528 q 489 530 473 528 q 511 532 505 532 q 527 531 516 532 q 529 502 529 511 q 524 488 529 495 q 509 486 513 486 q 461 495 493 486 q 438 501 448 498 q 457 410 457 460 q 390 224 457 311 q 233 119 322 138 q 158 88 185 110 q 147 66 147 80 q 182 16 147 44 q 262 -22 226 -5 q 419 -104 366 -59 q 460 -198 460 -139 q 444 -255 460 -229 q 391 -302 427 -280 q 311 -330 366 -317 q 205 -342 256 -342 q 71 -334 113 -342 q -47 -296 -4 -318 q -115 -239 -90 -273 q -129 -199 -129 -220 q -101 -147 -129 -170 q 127 -33 -61 -115 m 227 150 q 287 176 262 155 q 326 230 298 184 q 366 313 353 276 q 395 452 395 397 q 377 508 395 488 q 332 528 359 528 q 274 503 302 528 q 207 378 246 477 q 168 224 168 279 q 185 175 168 196 q 227 150 202 154 m -33 -250 q 68 -300 5 -285 q 89 -307 79 -303 q 130 -314 101 -310 q 203 -316 173 -316 q 319 -296 264 -316 q 391 -256 374 -277 q 403 -220 403 -242 q 359 -146 403 -183 q 227 -81 327 -119 q 154 -51 182 -63 q 36 -105 109 -66 q -23 -144 -3 -126 q -45 -167 -43 -163 q -53 -200 -53 -183 q -33 -250 -53 -229 m 312 840 l 334 840 q 370 754 338 783 q 456 726 402 726 q 541 752 505 726 q 597 840 576 779 q 606 840 603 840 l 617 840 q 560 707 608 772 q 447 642 511 642 q 387 659 415 642 q 342 705 359 675 q 319 773 326 735 q 312 827 312 812 l 312 840 z "},"":{"ha":448,"x_min":11,"x_max":546,"o":"m 11 11 q 57 20 34 16 q 134 42 114 29 q 148 60 140 46 q 186 201 155 73 q 258 559 227 372 l 296 753 l 300 793 q 302 819 302 808 q 292 844 302 838 q 218 857 273 857 l 213 856 l 195 856 q 167 860 184 856 q 173 889 169 873 l 254 885 l 381 881 l 495 886 l 546 889 l 546 865 q 497 858 534 862 q 429 843 441 851 q 413 820 420 836 q 358 578 406 803 l 281 208 q 250 46 250 65 q 253 37 250 42 q 322 22 269 26 q 377 14 355 18 l 379 -7 q 369 -9 376 -9 l 353 -9 q 247 -12 321 -12 l 127 -9 l 95 -9 q 64 -11 91 -9 q 11 -12 38 -12 l 11 11 m 431 1120 q 471 1104 455 1120 q 487 1065 487 1088 q 471 1026 487 1042 q 431 1010 454 1010 q 393 1026 409 1010 q 376 1065 376 1042 q 392 1104 376 1088 q 431 1120 408 1120 z "},"":{"ha":694,"x_min":40,"x_max":727,"o":"m 63 180 q 86 178 75 180 q 140 30 92 83 q 216 4 174 7 l 241 3 q 327 16 283 1 q 390 50 371 31 q 439 127 415 76 q 449 186 449 149 q 446 223 449 208 q 426 288 441 249 q 389 374 412 327 l 323 511 q 288 605 307 546 q 280 671 280 632 q 302 767 280 725 q 367 841 325 809 q 441 882 409 872 q 536 896 485 896 q 727 856 630 896 q 717 786 725 817 q 693 712 705 743 q 671 714 680 712 q 654 802 670 751 q 616 852 646 831 q 546 873 586 873 q 425 828 470 873 q 379 706 379 783 q 391 624 379 664 q 463 467 404 585 q 507 370 492 409 q 526 313 510 362 q 543 252 542 263 q 547 209 547 233 q 478 56 547 113 q 233 -21 385 -21 q 40 9 137 -21 l 40 14 q 47 63 40 26 q 58 146 50 77 q 63 180 60 159 m 231 -130 q 240 -104 233 -119 q 288 3 248 -90 l 306 3 q 289 -40 300 -16 q 272 -84 277 -65 l 273 -93 q 292 -115 277 -99 q 321 -199 321 -149 q 289 -283 321 -250 q 206 -317 256 -317 q 159 -305 175 -317 q 149 -281 149 -296 q 155 -261 149 -269 q 166 -254 161 -254 q 186 -264 174 -254 q 230 -288 210 -288 q 269 -269 252 -288 q 286 -223 286 -250 q 253 -159 286 -184 q 233 -142 236 -147 q 231 -130 231 -139 z "},"":{"ha":405,"x_min":3,"x_max":460,"o":"m 78 116 q 134 64 112 116 q 155 30 144 38 q 180 21 164 21 q 235 48 209 21 q 256 111 256 68 q 233 208 256 143 q 200 356 200 302 q 242 494 200 434 q 375 555 284 555 q 437 534 414 555 q 460 483 460 513 q 449 450 460 463 q 423 437 437 437 q 370 466 393 437 q 338 500 346 495 q 313 504 330 504 q 279 488 294 504 q 264 448 264 471 q 297 295 264 393 q 330 143 330 197 q 308 73 330 109 q 242 13 287 37 q 149 -12 197 -12 q 64 12 92 -12 q 36 71 36 37 q 47 103 36 91 q 78 116 59 116 m 85 -123 q 95 -97 88 -112 q 142 10 102 -83 l 161 9 q 144 -34 155 -9 q 127 -77 132 -58 l 128 -86 q 146 -109 132 -92 q 176 -193 176 -142 q 144 -277 176 -243 q 61 -310 111 -310 q 14 -298 30 -310 q 3 -274 3 -290 q 9 -254 3 -262 q 21 -247 16 -247 q 41 -258 29 -247 q 85 -281 65 -281 q 124 -262 106 -281 q 141 -216 141 -243 q 108 -153 141 -177 q 87 -135 91 -140 q 85 -123 85 -132 z "},"":{"ha":868,"x_min":98,"x_max":975,"o":"m 975 884 q 961 809 972 861 q 941 732 949 758 l 921 733 l 921 751 q 905 843 921 825 q 838 862 889 862 q 805 861 817 861 l 780 861 q 756 862 762 862 q 648 843 708 862 q 505 773 589 825 q 390 677 467 749 q 288 545 360 648 l 264 504 l 235 431 q 220 361 224 395 q 216 294 216 328 q 226 207 216 248 q 253 144 236 166 q 329 70 289 100 q 422 24 370 41 q 544 8 475 8 q 661 28 615 8 q 742 86 707 49 q 807 182 753 98 l 829 175 l 793 60 q 778 16 783 30 q 687 -7 734 0 q 513 -22 597 -22 q 321 2 389 -22 q 191 85 254 26 q 121 192 145 127 q 98 312 98 256 q 123 455 98 396 q 248 653 178 580 q 414 784 318 727 q 575 861 483 825 q 764 897 667 897 l 884 898 q 975 884 927 898 m 742 962 l 730 963 q 788 1046 731 966 q 852 1134 844 1126 q 890 1166 870 1155 q 918 1173 903 1173 q 945 1163 935 1173 q 955 1141 955 1154 q 899 1074 955 1112 l 742 962 z "},"":{"ha":376,"x_min":67,"x_max":519,"o":"m 408 435 q 392 450 397 443 q 379 476 389 454 q 365 502 370 497 q 348 509 357 509 q 297 480 324 509 q 196 303 247 427 q 144 98 144 180 q 153 56 144 68 q 173 47 160 47 q 231 75 199 47 q 318 181 274 113 q 338 184 331 184 l 348 183 q 310 119 345 171 q 216 15 259 44 q 138 -15 174 -15 q 90 7 106 -15 q 67 100 67 37 q 93 232 67 154 q 170 382 119 310 q 253 487 221 455 q 332 541 286 518 q 392 556 364 556 q 443 531 420 556 q 465 473 465 507 q 454 442 465 453 q 429 431 444 431 q 408 435 420 431 m 306 640 l 294 640 q 352 723 295 644 q 416 811 408 803 q 454 843 434 832 q 482 850 467 850 q 509 841 499 850 q 519 819 519 831 q 463 751 519 789 l 306 640 z "},"":{"ha":868,"x_min":98,"x_max":1057,"o":"m 975 884 q 961 809 972 861 q 941 732 949 758 l 921 733 l 921 751 q 905 843 921 825 q 838 862 889 862 q 805 861 817 861 l 780 861 q 756 862 762 862 q 648 843 708 862 q 505 773 589 825 q 390 677 467 749 q 288 545 360 648 l 264 504 l 235 431 q 220 361 224 395 q 216 294 216 328 q 226 207 216 248 q 253 144 236 166 q 329 70 289 100 q 422 24 370 41 q 544 8 475 8 q 661 28 615 8 q 742 86 707 49 q 807 182 753 98 l 829 175 l 793 60 q 778 16 783 30 q 687 -7 734 0 q 513 -22 597 -22 q 321 2 389 -22 q 191 85 254 26 q 121 192 145 127 q 98 312 98 256 q 123 455 98 396 q 248 653 178 580 q 414 784 318 727 q 575 861 483 825 q 764 897 667 897 l 884 898 q 975 884 927 898 m 739 1199 l 752 1199 l 804 1037 l 1036 1200 l 1057 1200 l 793 945 l 770 944 q 753 945 764 944 q 739 1199 752 952 z "},"":{"ha":376,"x_min":67,"x_max":621,"o":"m 408 435 q 392 450 397 443 q 379 476 389 454 q 365 502 370 497 q 348 509 357 509 q 297 480 324 509 q 196 303 247 427 q 144 98 144 180 q 153 56 144 68 q 173 47 160 47 q 231 75 199 47 q 318 181 274 113 q 338 184 331 184 l 348 183 q 310 119 345 171 q 216 15 259 44 q 138 -15 174 -15 q 90 7 106 -15 q 67 100 67 37 q 93 232 67 154 q 170 382 119 310 q 253 487 221 455 q 332 541 286 518 q 392 556 364 556 q 443 531 420 556 q 465 473 465 507 q 454 442 465 453 q 429 431 444 431 q 408 435 420 431 m 302 867 l 316 867 l 368 705 l 600 867 l 621 867 l 357 613 l 334 612 q 317 612 328 612 q 302 867 316 620 z "},"":{"ha":564,"x_min":62,"x_max":766,"o":"m 564 671 l 303 671 l 316 703 l 574 703 l 594 775 q 608 832 608 820 q 600 848 608 841 q 538 873 581 863 l 524 877 l 529 896 q 682 911 644 896 l 690 912 q 708 909 699 912 q 654 737 699 867 q 643 703 645 711 l 766 703 l 753 671 l 632 671 l 567 463 q 552 410 558 437 q 532 337 543 371 l 435 49 l 437 45 q 562 159 462 49 q 578 147 573 155 q 452 10 522 62 q 377 -27 402 -27 q 362 -24 372 -27 q 358 -14 358 -18 q 381 81 358 7 q 413 188 404 155 q 359 132 395 171 q 218 7 292 56 q 121 -28 164 -28 q 83 -9 97 -28 q 62 73 62 20 q 92 209 62 139 q 150 319 109 252 q 242 436 191 386 q 338 508 292 486 q 421 530 384 530 q 473 516 450 530 q 505 481 488 507 l 564 671 m 195 42 q 258 67 222 42 q 381 190 323 113 q 463 342 439 266 q 486 432 486 418 q 469 473 486 454 q 438 493 452 493 q 377 475 413 493 q 302 415 342 458 q 234 316 280 391 q 165 186 188 241 q 143 103 143 132 q 158 58 143 75 q 195 42 172 42 z "},"":{"ha":361,"x_min":72,"x_max":374,"o":"m 72 241 q 83 266 75 251 q 95 290 91 281 q 100 302 97 294 l 115 302 l 136 302 q 173 304 142 302 l 194 304 l 227 305 l 286 304 q 308 303 293 304 q 336 304 332 304 q 358 303 341 304 q 374 302 363 302 q 347 238 360 260 q 319 235 333 236 l 307 238 q 269 236 275 237 q 237 239 250 239 q 131 236 168 239 q 72 241 111 241 z "},"":{"ha":694,"x_min":111,"x_max":822,"o":"m 111 999 l 822 999 l 822 930 l 111 930 l 111 999 z "},"":{"ha":463,"x_min":226,"x_max":367,"o":"m 226 441 q 248 493 226 471 q 299 515 270 515 q 347 494 328 515 q 367 441 367 473 q 346 388 367 410 q 296 366 326 366 q 247 388 268 366 q 226 441 226 410 z "},"":{"ha":1056,"x_min":-77,"x_max":1102,"o":"m 67 40 q 87 56 75 47 l 97 65 l 256 224 q 292 258 283 251 q 311 277 300 265 q 337 304 321 288 q 364 330 354 319 q 401 366 392 355 q 653 608 496 453 l 800 751 q 829 779 817 768 q 895 852 871 827 q 930 890 903 859 q 947 891 939 891 q 970 890 956 891 l 971 882 q 966 802 966 826 q 961 723 962 774 l 952 601 q 948 529 951 587 l 924 211 l 924 196 l 923 161 l 923 151 q 920 139 921 142 l 919 81 l 920 72 l 918 45 q 947 33 923 35 q 1036 16 1007 26 l 1037 7 q 1034 -9 1037 1 q 1004 -5 1009 -5 l 920 1 l 860 -1 q 764 -7 801 -7 l 747 -9 l 728 -9 q 692 -12 698 -12 q 668 -9 682 -12 l 669 10 q 714 18 689 16 q 789 30 755 20 q 802 32 798 32 l 805 32 q 814 45 812 39 q 828 153 819 58 q 839 296 838 247 q 840 332 840 321 q 801 333 832 333 q 560 328 762 333 l 423 323 q 409 321 418 322 q 386 302 399 316 q 351 272 372 288 q 262 188 321 241 q 221 148 238 166 l 170 93 q 153 77 161 85 q 142 68 148 73 q 133 54 138 61 q 134 37 134 47 q 184 24 153 27 q 214 21 198 23 q 248 16 237 17 q 262 12 256 15 q 256 -11 261 1 l 131 -2 l 37 -7 q 6 -9 16 -7 l -1 -9 q -24 -11 -6 -9 l -57 -12 q -75 -9 -65 -12 q -77 14 -77 1 l -68 17 l 6 24 l 52 32 q 67 40 57 34 m 580 356 q 602 355 595 356 l 618 355 l 703 359 l 814 367 q 842 370 829 369 q 846 407 844 382 q 850 439 850 433 l 863 636 l 873 763 q 834 732 865 759 q 796 701 820 723 l 640 551 l 612 526 q 582 496 597 509 q 553 469 566 483 q 535 452 546 461 q 514 433 524 443 q 494 414 505 425 q 471 390 484 402 q 444 361 463 381 q 495 354 455 354 l 530 355 q 580 356 554 356 m 1078 1019 l 1055 1018 l 943 1019 l 844 1018 q 816 1019 840 1018 q 843 1063 828 1043 l 1074 1062 l 1102 1063 q 1078 1019 1088 1037 z "},"":{"ha":564,"x_min":53,"x_max":673,"o":"m 515 491 q 524 509 522 503 q 540 536 532 530 q 568 538 559 538 q 590 533 579 538 l 592 525 q 589 513 592 521 q 580 487 587 509 l 574 473 l 530 352 q 480 221 501 270 q 443 122 458 172 q 414 50 427 71 l 412 43 q 419 32 412 39 q 471 68 450 49 q 535 132 525 119 q 549 148 543 140 q 564 134 557 141 q 500 62 545 107 q 420 -3 456 16 q 368 -17 392 -17 q 344 -10 352 -17 q 336 7 336 -3 q 343 43 336 17 q 367 102 360 87 q 385 146 374 116 q 413 210 392 164 q 381 172 400 197 q 255 41 326 102 q 176 -5 239 26 q 122 -16 153 -14 q 87 -11 96 -16 q 60 17 71 -2 q 53 61 53 31 q 72 157 53 104 q 138 291 104 248 q 251 410 195 366 q 353 475 307 454 q 460 502 415 502 q 489 499 475 502 q 515 491 503 496 m 192 46 q 220 58 208 50 q 273 95 228 62 q 367 191 356 178 q 420 263 391 217 q 455 327 429 275 l 473 374 q 482 421 482 415 q 467 457 482 440 q 433 467 456 467 q 388 458 407 467 q 310 407 345 438 q 218 297 262 364 q 156 186 174 231 q 131 94 131 124 q 141 56 131 68 q 167 44 151 44 q 192 46 172 44 m 649 723 l 625 722 l 513 723 l 415 722 q 387 723 411 722 q 414 768 399 747 l 644 766 l 673 768 q 649 723 659 741 z "}}}
